<svg xmlns="http://www.w3.org/2000/svg" xmlns:xlink="http://www.w3.org/1999/xlink" viewBox="0 0 408.1 193.95"><defs><style>.cls-1{fill:none;}.cls-2{isolation:isolate;}.cls-3{clip-path:url(#clip-path);}.cls-4{opacity:0.35;}.cls-10,.cls-13,.cls-15,.cls-17,.cls-18,.cls-19,.cls-22,.cls-23,.cls-24,.cls-27,.cls-28,.cls-29,.cls-32,.cls-33,.cls-34,.cls-35,.cls-36,.cls-38,.cls-40,.cls-42,.cls-44,.cls-47,.cls-49,.cls-5,.cls-50,.cls-51,.cls-53,.cls-54,.cls-57,.cls-58,.cls-59,.cls-6,.cls-62,.cls-7{opacity:0.5;}.cls-10,.cls-11,.cls-12,.cls-13,.cls-14,.cls-15,.cls-16,.cls-17,.cls-18,.cls-19,.cls-20,.cls-21,.cls-22,.cls-23,.cls-24,.cls-25,.cls-26,.cls-27,.cls-28,.cls-29,.cls-30,.cls-31,.cls-32,.cls-33,.cls-34,.cls-35,.cls-36,.cls-37,.cls-38,.cls-39,.cls-40,.cls-41,.cls-42,.cls-43,.cls-44,.cls-45,.cls-46,.cls-47,.cls-48,.cls-49,.cls-5,.cls-50,.cls-51,.cls-52,.cls-53,.cls-54,.cls-55,.cls-56,.cls-57,.cls-58,.cls-59,.cls-6,.cls-60,.cls-61,.cls-62,.cls-63,.cls-64,.cls-66,.cls-67,.cls-68,.cls-69,.cls-7,.cls-70,.cls-8,.cls-9,.cls-90{mix-blend-mode:screen;}.cls-5{fill:url(#radial-gradient);}.cls-6{fill:url(#radial-gradient-2);}.cls-7{fill:url(#radial-gradient-3);}.cls-8{fill:url(#radial-gradient-4);}.cls-9{fill:url(#radial-gradient-5);}.cls-10{fill:url(#radial-gradient-6);}.cls-11{fill:url(#radial-gradient-7);}.cls-12{fill:url(#radial-gradient-8);}.cls-13{fill:url(#radial-gradient-9);}.cls-14{fill:url(#radial-gradient-10);}.cls-15{fill:url(#radial-gradient-11);}.cls-16{fill:url(#radial-gradient-12);}.cls-17{fill:url(#radial-gradient-13);}.cls-18{fill:url(#radial-gradient-14);}.cls-19{fill:url(#radial-gradient-15);}.cls-20{fill:url(#radial-gradient-16);}.cls-21{fill:url(#radial-gradient-17);}.cls-22{fill:url(#radial-gradient-18);}.cls-23{fill:url(#radial-gradient-19);}.cls-24{fill:url(#radial-gradient-20);}.cls-25{fill:url(#radial-gradient-21);}.cls-26{fill:url(#radial-gradient-22);}.cls-27{fill:url(#radial-gradient-23);}.cls-28{fill:url(#radial-gradient-24);}.cls-29{fill:url(#radial-gradient-25);}.cls-30{fill:url(#radial-gradient-26);}.cls-31{fill:url(#radial-gradient-27);}.cls-32{fill:url(#radial-gradient-28);}.cls-33{fill:url(#radial-gradient-29);}.cls-34{fill:url(#radial-gradient-30);}.cls-35{fill:url(#radial-gradient-31);}.cls-36{fill:url(#radial-gradient-32);}.cls-37{fill:url(#radial-gradient-33);}.cls-38{fill:url(#radial-gradient-34);}.cls-39{fill:url(#radial-gradient-35);}.cls-40{fill:url(#radial-gradient-36);}.cls-41{fill:url(#radial-gradient-37);}.cls-42{fill:url(#radial-gradient-38);}.cls-43{fill:url(#radial-gradient-39);}.cls-44{fill:url(#radial-gradient-40);}.cls-45{fill:url(#radial-gradient-41);}.cls-46{fill:url(#radial-gradient-42);}.cls-47{fill:url(#radial-gradient-43);}.cls-48{fill:url(#radial-gradient-44);}.cls-49{fill:url(#radial-gradient-45);}.cls-50{fill:url(#radial-gradient-46);}.cls-51{fill:url(#radial-gradient-47);}.cls-52{fill:url(#radial-gradient-48);}.cls-53{fill:url(#radial-gradient-49);}.cls-54{fill:url(#radial-gradient-50);}.cls-55{fill:url(#radial-gradient-51);}.cls-56{fill:url(#radial-gradient-52);}.cls-57{fill:url(#radial-gradient-53);}.cls-58{fill:url(#radial-gradient-54);}.cls-59{fill:url(#radial-gradient-55);}.cls-60{fill:url(#radial-gradient-56);}.cls-61{fill:url(#radial-gradient-57);}.cls-62{fill:url(#radial-gradient-58);}.cls-63{fill:url(#linear-gradient);}.cls-64{fill:url(#radial-gradient-59);}.cls-65{fill:url(#linear-gradient-2);}.cls-66{fill:url(#linear-gradient-3);}.cls-67{fill:url(#linear-gradient-4);}.cls-68{fill:url(#linear-gradient-5);}.cls-69{fill:url(#linear-gradient-6);}.cls-70{fill:url(#linear-gradient-7);}.cls-71{fill:url(#linear-gradient-8);}.cls-72{fill:url(#linear-gradient-9);}.cls-73{fill:url(#linear-gradient-10);}.cls-74{fill:url(#linear-gradient-11);}.cls-75{fill:url(#linear-gradient-12);}.cls-76{fill:url(#linear-gradient-13);}.cls-77{fill:url(#linear-gradient-14);}.cls-78{fill:url(#linear-gradient-15);}.cls-79{fill:url(#linear-gradient-16);}.cls-80{fill:url(#linear-gradient-17);}.cls-81{fill:url(#linear-gradient-18);}.cls-82{fill:url(#linear-gradient-19);}.cls-83{fill:url(#linear-gradient-20);}.cls-84{fill:url(#linear-gradient-21);}.cls-85{fill:url(#linear-gradient-22);}.cls-86,.cls-88,.cls-91{opacity:0.45;mix-blend-mode:multiply;}.cls-86{fill:url(#linear-gradient-23);}.cls-87{fill:url(#linear-gradient-24);}.cls-88{fill:url(#linear-gradient-25);}.cls-89{fill:url(#linear-gradient-26);}.cls-90{fill:url(#linear-gradient-27);}.cls-91{fill:url(#linear-gradient-28);}.cls-92{opacity:0.8;}.cls-93{fill:url(#linear-gradient-29);}.cls-94{fill:url(#linear-gradient-30);}.cls-95{fill:url(#linear-gradient-31);}.cls-96{fill:url(#linear-gradient-32);}.cls-97{fill:url(#linear-gradient-33);}.cls-98{fill:url(#linear-gradient-34);}.cls-99{fill:url(#linear-gradient-35);}</style><clipPath id="clip-path" transform="translate(-2.63 5.61)"><rect class="cls-1" width="409.73" height="130"/></clipPath><radialGradient id="radial-gradient" cx="-402.26" cy="370.34" r="0.5" gradientTransform="matrix(-0.94, 0.54, 0.6, 0.84, -244.76, -34)" gradientUnits="userSpaceOnUse"><stop offset="0.07" stop-color="#fff"/><stop offset="1" stop-color="#9d9d9d"/></radialGradient><radialGradient id="radial-gradient-2" cx="-417.16" cy="378.53" r="0.5" xlink:href="#radial-gradient"/><radialGradient id="radial-gradient-3" cx="-411.4" cy="356.05" r="0.5" xlink:href="#radial-gradient"/><radialGradient id="radial-gradient-4" cx="1428.93" cy="4.06" r="5.76" gradientTransform="matrix(-1.11, 0, 0, 1, 1937.87, 53.95)" xlink:href="#radial-gradient"/><radialGradient id="radial-gradient-5" cx="1429.43" cy="-6.45" r="3.18" gradientTransform="matrix(-1.11, 0, 0, 1, 1937.87, 53.95)" xlink:href="#radial-gradient"/><radialGradient id="radial-gradient-6" cx="-512.94" cy="51.94" r="0.5" gradientTransform="matrix(-0.51, 0.89, 0.99, 0.45, -81.07, 465.11)" xlink:href="#radial-gradient"/><radialGradient id="radial-gradient-7" cx="1525.4" cy="-21" r="3.3" gradientTransform="matrix(-1.11, 0, 0, 1, 1937.87, 53.95)" xlink:href="#radial-gradient"/><radialGradient id="radial-gradient-8" cx="1538.07" cy="-15.93" r="3.29" gradientTransform="matrix(-1.11, 0, 0, 1, 1937.87, 53.95)" xlink:href="#radial-gradient"/><radialGradient id="radial-gradient-9" cx="-1435.18" cy="643.75" r="0.5" gradientTransform="matrix(1.11, 0.05, -0.06, 1, 1872.4, -550)" xlink:href="#radial-gradient"/><radialGradient id="radial-gradient-10" cx="1520.65" cy="-38.05" r="5.42" gradientTransform="matrix(-1.11, 0, 0, 1, 1937.87, 53.95)" xlink:href="#radial-gradient"/><radialGradient id="radial-gradient-11" cx="-1466.72" cy="653.66" r="0.5" gradientTransform="matrix(1.11, 0.05, -0.06, 1, 1872.4, -550)" xlink:href="#radial-gradient"/><radialGradient id="radial-gradient-12" cx="1474.42" cy="-45.15" r="0.33" gradientTransform="matrix(-1.11, 0, 0, 1, 1937.87, 53.95)" xlink:href="#radial-gradient"/><radialGradient id="radial-gradient-13" cx="-1046.79" cy="131.26" r="0.5" gradientTransform="matrix(0.57, 0.86, 0.96, -0.51, 802.02, 999.56)" xlink:href="#radial-gradient"/><radialGradient id="radial-gradient-14" cx="-1061.69" cy="139.45" r="0.5" gradientTransform="matrix(0.57, 0.86, 0.96, -0.51, 802.02, 999.56)" xlink:href="#radial-gradient"/><radialGradient id="radial-gradient-15" cx="-1055.93" cy="116.97" r="0.5" gradientTransform="matrix(0.57, 0.86, 0.96, -0.51, 802.02, 999.56)" xlink:href="#radial-gradient"/><radialGradient id="radial-gradient-16" cx="1449.94" cy="-30.91" r="3.19" gradientTransform="matrix(-1.11, 0, 0, 1, 1937.87, 53.95)" xlink:href="#radial-gradient"/><radialGradient id="radial-gradient-17" cx="1452.56" cy="-15.86" r="3.17" gradientTransform="matrix(-1.11, 0, 0, 1, 1937.87, 53.95)" xlink:href="#radial-gradient"/><radialGradient id="radial-gradient-18" cx="-1120.85" cy="232.52" r="0.5" gradientTransform="matrix(0.64, -0.82, 0.91, 0.58, 895, -1026)" xlink:href="#radial-gradient"/><radialGradient id="radial-gradient-19" cx="-1136.21" cy="240.64" r="0.9" gradientTransform="matrix(0.64, -0.82, 0.91, 0.58, 895, -1026)" xlink:href="#radial-gradient"/><radialGradient id="radial-gradient-20" cx="-1129.99" cy="218.23" r="0.5" gradientTransform="matrix(0.64, -0.82, 0.91, 0.58, 895, -1026)" xlink:href="#radial-gradient"/><radialGradient id="radial-gradient-21" cx="1406.38" cy="-23.96" r="3.19" gradientTransform="matrix(-1.11, 0, 0, 1, 1937.87, 53.95)" xlink:href="#radial-gradient"/><radialGradient id="radial-gradient-22" cx="1408.17" cy="-38.95" r="3.19" gradientTransform="matrix(-1.11, 0, 0, 1, 1937.87, 53.95)" xlink:href="#radial-gradient"/><radialGradient id="radial-gradient-23" cx="-1057.84" cy="62.8" r="0.5" gradientTransform="matrix(0.57, 0.86, 0.96, -0.51, 802.02, 999.56)" xlink:href="#radial-gradient"/><radialGradient id="radial-gradient-24" cx="-1072.74" cy="70.99" r="0.5" gradientTransform="matrix(0.57, 0.86, 0.96, -0.51, 802.02, 999.56)" xlink:href="#radial-gradient"/><radialGradient id="radial-gradient-25" cx="-1066.97" cy="48.5" r="0.5" gradientTransform="matrix(0.57, 0.86, 0.96, -0.51, 802.02, 999.56)" xlink:href="#radial-gradient"/><radialGradient id="radial-gradient-26" cx="1514.54" cy="-5.65" r="3.19" gradientTransform="matrix(-1.11, 0, 0, 1, 1937.87, 53.95)" xlink:href="#radial-gradient"/><radialGradient id="radial-gradient-27" cx="1517.15" cy="9.39" r="3.17" gradientTransform="matrix(-1.11, 0, 0, 1, 1937.87, 53.95)" xlink:href="#radial-gradient"/><radialGradient id="radial-gradient-28" cx="-1033.46" cy="31.72" r="0.5" gradientTransform="matrix(0.57, 0.86, 0.96, -0.51, 802.02, 999.56)" xlink:href="#radial-gradient"/><radialGradient id="radial-gradient-29" cx="-1048.37" cy="39.91" r="0.5" gradientTransform="matrix(0.57, 0.86, 0.96, -0.51, 802.02, 999.56)" xlink:href="#radial-gradient"/><radialGradient id="radial-gradient-30" cx="-1017.13" cy="109" r="0.5" gradientTransform="matrix(0.57, 0.86, 0.96, -0.51, 802.02, 999.56)" xlink:href="#radial-gradient"/><radialGradient id="radial-gradient-31" cx="-1032.04" cy="117.19" r="0.5" gradientTransform="matrix(0.57, 0.86, 0.96, -0.51, 802.02, 999.56)" xlink:href="#radial-gradient"/><radialGradient id="radial-gradient-32" cx="-1026.27" cy="94.71" r="0.5" gradientTransform="matrix(0.57, 0.86, 0.96, -0.51, 802.02, 999.56)" xlink:href="#radial-gradient"/><radialGradient id="radial-gradient-33" cx="1454.06" cy="5.95" r="3.19" gradientTransform="matrix(-1.11, 0, 0, 1, 1937.87, 53.95)" xlink:href="#radial-gradient"/><radialGradient id="radial-gradient-34" cx="-1185.59" cy="194.01" r="0.5" gradientTransform="matrix(0.64, -0.82, 0.91, 0.58, 895, -1026)" xlink:href="#radial-gradient"/><radialGradient id="radial-gradient-35" cx="1473.29" cy="-10.3" r="3.19" gradientTransform="matrix(-1.11, 0, 0, 1, 1937.87, 53.95)" xlink:href="#radial-gradient"/><radialGradient id="radial-gradient-36" cx="-1226.27" cy="189.63" r="0.5" gradientTransform="matrix(0.64, -0.82, 0.91, 0.58, 895, -1026)" xlink:href="#radial-gradient"/><radialGradient id="radial-gradient-37" cx="1487.16" cy="23.09" r="3.19" gradientTransform="matrix(-1.11, 0, 0, 1, 1937.87, 53.95)" xlink:href="#radial-gradient"/><radialGradient id="radial-gradient-38" cx="-503.72" cy="597.64" r="0.5" gradientTransform="matrix(-1.11, 0.05, 0.06, 1, -425.32, -550)" xlink:href="#radial-gradient"/><radialGradient id="radial-gradient-39" cx="588.01" cy="-40.49" r="6.46" gradientTransform="translate(-490.8 53.95) scale(1.11 1)" xlink:href="#radial-gradient"/><radialGradient id="radial-gradient-40" cx="-544.4" cy="593.26" r="0.5" gradientTransform="matrix(-1.11, 0.05, 0.06, 1, -425.32, -550)" xlink:href="#radial-gradient"/><radialGradient id="radial-gradient-41" cx="624.01" cy="-38.23" r="3.1" gradientTransform="translate(-490.8 53.95) scale(1.11 1)" xlink:href="#radial-gradient"/><radialGradient id="radial-gradient-42" cx="542.66" cy="-48.06" r="3.19" gradientTransform="translate(-490.8 53.95) scale(1.11 1)" xlink:href="#radial-gradient"/><radialGradient id="radial-gradient-43" cx="-597.09" cy="965.43" r="0.5" gradientTransform="matrix(-0.57, 0.86, -0.96, -0.51, 645.05, 999.56)" xlink:href="#radial-gradient"/><radialGradient id="radial-gradient-44" cx="505.52" cy="-52.13" r="3.17" gradientTransform="translate(-490.8 53.95) scale(1.11 1)" xlink:href="#radial-gradient"/><radialGradient id="radial-gradient-45" cx="-572.72" cy="934.35" r="0.5" gradientTransform="matrix(-0.57, 0.86, -0.96, -0.51, 645.05, 999.56)" xlink:href="#radial-gradient"/><radialGradient id="radial-gradient-46" cx="-587.62" cy="942.55" r="0.5" gradientTransform="matrix(-0.57, 0.86, -0.96, -0.51, 645.05, 999.56)" xlink:href="#radial-gradient"/><radialGradient id="radial-gradient-47" cx="-581.86" cy="920.06" r="0.5" gradientTransform="matrix(-0.57, 0.86, -0.96, -0.51, 645.05, 999.56)" xlink:href="#radial-gradient"/><radialGradient id="radial-gradient-48" cx="517.3" cy="-30.38" r="3.19" gradientTransform="translate(-490.8 53.95) scale(1.11 1)" xlink:href="#radial-gradient"/><radialGradient id="radial-gradient-49" cx="-582.18" cy="993.91" r="0.5" gradientTransform="matrix(-0.64, -0.82, -0.91, 0.58, 552.08, -1026)" xlink:href="#radial-gradient"/><radialGradient id="radial-gradient-50" cx="-591.31" cy="979.61" r="0.5" gradientTransform="matrix(-0.64, -0.82, -0.91, 0.58, 552.08, -1026)" xlink:href="#radial-gradient"/><radialGradient id="radial-gradient-51" cx="473.74" cy="-23.44" r="3.19" gradientTransform="translate(-490.8 53.95) scale(1.11 1)" xlink:href="#radial-gradient"/><radialGradient id="radial-gradient-52" cx="475.53" cy="-38.43" r="3.19" gradientTransform="translate(-490.8 53.95) scale(1.11 1)" xlink:href="#radial-gradient"/><radialGradient id="radial-gradient-53" cx="-583.77" cy="865.89" r="0.5" gradientTransform="matrix(-0.57, 0.86, -0.96, -0.51, 645.05, 999.56)" xlink:href="#radial-gradient"/><radialGradient id="radial-gradient-54" cx="-598.67" cy="874.08" r="0.5" gradientTransform="matrix(-0.57, 0.86, -0.96, -0.51, 645.05, 999.56)" xlink:href="#radial-gradient"/><radialGradient id="radial-gradient-55" cx="-592.9" cy="851.6" r="0.5" gradientTransform="matrix(-0.57, 0.86, -0.96, -0.51, 645.05, 999.56)" xlink:href="#radial-gradient"/><radialGradient id="radial-gradient-56" cx="581.89" cy="-5.13" r="3.19" gradientTransform="translate(-490.8 53.95) scale(1.11 1)" xlink:href="#radial-gradient"/><radialGradient id="radial-gradient-57" cx="143.43" cy="63.59" r="3.17" gradientTransform="translate(0.27 0.27) scale(1.11 1)" xlink:href="#radial-gradient"/><radialGradient id="radial-gradient-58" cx="-574.3" cy="843" r="0.5" gradientTransform="matrix(-0.57, 0.86, -0.96, -0.51, 645.05, 999.56)" xlink:href="#radial-gradient"/><linearGradient id="linear-gradient" x1="141.72" y1="-90.16" x2="158.71" y2="101.47" gradientUnits="userSpaceOnUse"><stop offset="0" stop-color="#606060"/><stop offset="0.23" stop-color="#606060" stop-opacity="0.79"/><stop offset="0.71" stop-color="#626262" stop-opacity="0.24"/><stop offset="0.9" stop-color="#626262" stop-opacity="0"/></linearGradient><radialGradient id="radial-gradient-59" cx="180.77" cy="116.45" r="69.94" gradientTransform="matrix(0.04, 1, -2.21, 0.07, 449.7, -66.41)" gradientUnits="userSpaceOnUse"><stop offset="0" stop-color="#606060" stop-opacity="0.5"/><stop offset="0.42" stop-color="#616161" stop-opacity="0.29"/><stop offset="0.9" stop-color="#626262" stop-opacity="0"/></radialGradient><linearGradient id="linear-gradient-2" x1="292.99" y1="31.41" x2="303.97" y2="128.18" gradientUnits="userSpaceOnUse"><stop offset="0.07" stop-color="#747474"/><stop offset="0.52" stop-color="#434343"/><stop offset="0.64" stop-color="#3a3a3a"/><stop offset="1" stop-color="#232323"/></linearGradient><linearGradient id="linear-gradient-3" x1="293.93" y1="39.73" x2="299.47" y2="88.56" xlink:href="#linear-gradient-2"/><linearGradient id="linear-gradient-4" x1="294.46" y1="34.39" x2="303.41" y2="113.26" xlink:href="#linear-gradient-2"/><linearGradient id="linear-gradient-5" x1="306.26" y1="29.77" x2="335.78" y2="87.12" gradientUnits="userSpaceOnUse"><stop offset="0.07" stop-color="#fff"/><stop offset="0.52" stop-color="#909090"/><stop offset="0.78" stop-color="#6f6f6f"/><stop offset="1" stop-color="#585858"/></linearGradient><linearGradient id="linear-gradient-6" x1="315.88" y1="38.24" x2="335.18" y2="75.73" xlink:href="#linear-gradient-5"/><linearGradient id="linear-gradient-7" x1="308.08" y1="31.24" x2="330.18" y2="74.18" xlink:href="#linear-gradient-5"/><linearGradient id="linear-gradient-8" x1="307.59" y1="24.85" x2="316.61" y2="59.92" xlink:href="#linear-gradient-5"/><linearGradient id="linear-gradient-9" x1="795.85" y1="617.41" x2="805.13" y2="653.52" gradientTransform="translate(530.2 -965.73) rotate(62.27)" xlink:href="#linear-gradient-5"/><linearGradient id="linear-gradient-10" x1="1434.38" y1="578.04" x2="1444.28" y2="616.55" gradientTransform="translate(1465.23 -1034.17) rotate(113.03)" xlink:href="#linear-gradient-5"/><linearGradient id="linear-gradient-11" x1="872.33" y1="642.01" x2="881.73" y2="678.54" gradientTransform="translate(633.79 -1018.17) rotate(68.3)" xlink:href="#linear-gradient-5"/><linearGradient id="linear-gradient-12" x1="314.92" y1="23.07" x2="323.95" y2="58.2" xlink:href="#linear-gradient-5"/><linearGradient id="linear-gradient-13" x1="296.43" y1="-122.02" x2="305.44" y2="-86.98" gradientTransform="translate(26.47 211.18) rotate(-12.12)" xlink:href="#linear-gradient-5"/><linearGradient id="linear-gradient-14" x1="310.98" y1="-196.16" x2="320.08" y2="-160.77" gradientTransform="translate(53.23 313.93) rotate(-18.07)" xlink:href="#linear-gradient-5"/><linearGradient id="linear-gradient-15" x1="317.72" y1="22.87" x2="326.75" y2="57.98" xlink:href="#linear-gradient-5"/><linearGradient id="linear-gradient-16" x1="319.44" y1="27.51" x2="328.41" y2="62.39" xlink:href="#linear-gradient-5"/><linearGradient id="linear-gradient-17" x1="289.65" y1="35.09" x2="410.73" y2="35.09" xlink:href="#linear-gradient-2"/><linearGradient id="linear-gradient-18" x1="387.39" y1="26.45" x2="407.59" y2="26.45" xlink:href="#linear-gradient-2"/><linearGradient id="linear-gradient-19" x1="286.13" y1="45.75" x2="398.76" y2="45.75" xlink:href="#linear-gradient-2"/><linearGradient id="linear-gradient-20" x1="403.78" y1="32.76" x2="407.91" y2="32.76" xlink:href="#linear-gradient-2"/><linearGradient id="linear-gradient-21" x1="903.76" y1="-127.98" x2="1024.83" y2="-127.98" gradientTransform="matrix(-1.25, -0.11, 0.09, -1.08, 1298.5, 17.2)" xlink:href="#linear-gradient-2"/><linearGradient id="linear-gradient-22" x1="15.9" y1="42.98" x2="155.73" y2="42.98" xlink:href="#linear-gradient-2"/><linearGradient id="linear-gradient-23" x1="148.64" y1="-16.27" x2="54.82" y2="74.2" xlink:href="#linear-gradient-2"/><linearGradient id="linear-gradient-24" x1="178.32" y1="81.65" x2="187.34" y2="161.16" xlink:href="#linear-gradient-2"/><linearGradient id="linear-gradient-25" x1="179.1" y1="88.45" x2="186.03" y2="149.56" xlink:href="#linear-gradient-2"/><linearGradient id="linear-gradient-26" x1="368.44" y1="50.98" x2="373.3" y2="93.85" xlink:href="#linear-gradient-2"/><linearGradient id="linear-gradient-27" x1="368.64" y1="52.86" x2="372.28" y2="84.9" xlink:href="#linear-gradient-2"/><linearGradient id="linear-gradient-28" x1="368.86" y1="54.71" x2="372.58" y2="87.48" xlink:href="#linear-gradient-2"/><linearGradient id="linear-gradient-29" x1="230.7" y1="129.55" x2="320.12" y2="129.55" xlink:href="#linear-gradient-2"/><linearGradient id="linear-gradient-30" x1="330.44" y1="129.61" x2="338.55" y2="129.61" gradientTransform="translate(463.37 -205.17) rotate(89.88)" xlink:href="#linear-gradient-2"/><linearGradient id="linear-gradient-31" x1="338.55" y1="129.62" x2="346.65" y2="129.62" gradientTransform="translate(471.48 -213.26) rotate(89.88)" xlink:href="#linear-gradient-2"/><linearGradient id="linear-gradient-32" x1="346.65" y1="129.64" x2="354.76" y2="129.64" gradientTransform="translate(479.58 -221.35) rotate(89.88)" xlink:href="#linear-gradient-2"/><linearGradient id="linear-gradient-33" x1="197.06" y1="129.32" x2="205.17" y2="129.32" gradientTransform="translate(329.99 -72.08) rotate(89.88)" xlink:href="#linear-gradient-2"/><linearGradient id="linear-gradient-34" x1="205.17" y1="129.33" x2="213.27" y2="129.33" gradientTransform="translate(338.1 -80.17) rotate(89.88)" xlink:href="#linear-gradient-2"/><linearGradient id="linear-gradient-35" x1="213.27" y1="129.35" x2="221.38" y2="129.35" gradientTransform="translate(346.21 -88.26) rotate(89.88)" xlink:href="#linear-gradient-2"/></defs><title>bobo_header_banner</title><g class="cls-2"><g id="Layer_1" data-name="Layer 1"><g class="cls-3"><g class="cls-4"><path class="cls-5" d="M355,61.5a2.08,2.08,0,0,0-.36-.17,2.19,2.19,0,0,0-.41,0,1.5,1.5,0,0,0,.2-.32,1.64,1.64,0,0,0,0-.37,2,2,0,0,0,.36.18,2.07,2.07,0,0,0,.4,0,1.56,1.56,0,0,0-.19.32A1.54,1.54,0,0,0,355,61.5Z" transform="translate(-2.63 5.61)"/><path class="cls-6" d="M373.93,60.37a2,2,0,0,0-.36-.18,2,2,0,0,0-.41,0,1.64,1.64,0,0,0,.2-.33,1.54,1.54,0,0,0,0-.36,2.08,2.08,0,0,0,.36.17,2.19,2.19,0,0,0,.41,0,1.5,1.5,0,0,0-.2.32A1.64,1.64,0,0,0,373.93,60.37Z" transform="translate(-2.63 5.61)"/><path class="cls-7" d="M355,44.53a2.08,2.08,0,0,0-.36-.17,2.19,2.19,0,0,0-.41,0,2.07,2.07,0,0,0,.2-.32,1.54,1.54,0,0,0,0-.36.82.82,0,0,0,.76.15,1.56,1.56,0,0,0-.19.32A1.54,1.54,0,0,0,355,44.53Z" transform="translate(-2.63 5.61)"/><path class="cls-8" d="M345.4,56.52a.36.36,0,0,1,.46.09.28.28,0,0,1-.1.41.35.35,0,0,1-.46-.09A.27.27,0,0,1,345.4,56.52Zm-5.86-2.1a.73.73,0,0,0,.93.19.57.57,0,0,0,.2-.83.72.72,0,0,0-.92-.19A.56.56,0,0,0,339.54,54.42Zm3,7.54a1.43,1.43,0,0,0,1.84.37,1.14,1.14,0,0,0,.41-1.66,1.43,1.43,0,0,0-1.85-.36A1.12,1.12,0,0,0,342.54,62Zm10.79-5.25a.71.71,0,0,0,.92.18.58.58,0,0,0,.21-.83.72.72,0,0,0-.93-.18A.57.57,0,0,0,353.33,56.71Z" transform="translate(-2.63 5.61)"/><path class="cls-9" d="M347.39,48.17a.18.18,0,0,1-.25-.07.15.15,0,0,1,.08-.22.2.2,0,0,1,.25.07A.15.15,0,0,1,347.39,48.17Zm3.12,1.41a.38.38,0,0,0-.5-.14.31.31,0,0,0-.15.45.4.4,0,0,0,.5.14A.31.31,0,0,0,350.51,49.58Zm-1.25-4.29a.78.78,0,0,0-1-.28.64.64,0,0,0-.31.9.79.79,0,0,0,1,.28A.64.64,0,0,0,349.26,45.29ZM343,47.73a.39.39,0,0,0-.5-.13.3.3,0,0,0-.15.44.38.38,0,0,0,.5.14A.31.31,0,0,0,343,47.73Z" transform="translate(-2.63 5.61)"/><path class="cls-10" d="M230.49,32a2,2,0,0,0-.41,0,2.15,2.15,0,0,0-.33.21,1.61,1.61,0,0,0,0-.37,2,2,0,0,0-.23-.3,2.92,2.92,0,0,0,.4,0,1.9,1.9,0,0,0,.34-.21,1.61,1.61,0,0,0,0,.37A1.87,1.87,0,0,0,230.49,32Z" transform="translate(-2.63 5.61)"/><path class="cls-11" d="M239.23,32.52a.19.19,0,0,1,.25-.08.17.17,0,0,1,.08.23.2.2,0,0,1-.25.07A.16.16,0,0,1,239.23,32.52Zm-3.45.47a.39.39,0,0,0,.5-.15.33.33,0,0,0-.16-.45.4.4,0,0,0-.5.15A.33.33,0,0,0,235.78,33Zm3.78,2.85a.78.78,0,0,0,1-.29.64.64,0,0,0-.33-.9.79.79,0,0,0-1,.29A.64.64,0,0,0,239.56,35.84Zm3.52-5.23a.39.39,0,0,0,.5-.14.32.32,0,0,0-.16-.45.4.4,0,0,0-.5.15A.31.31,0,0,0,243.08,30.61Z" transform="translate(-2.63 5.61)"/><path class="cls-12" d="M226,38.62a.2.2,0,0,1-.25.06.15.15,0,0,1-.06-.23.2.2,0,0,1,.25-.06A.15.15,0,0,1,226,38.62Zm3.49-.2a.39.39,0,0,0-.51.1A.31.31,0,0,0,229,39a.39.39,0,0,0,.51-.11A.3.3,0,0,0,229.44,38.42Zm-3.5-3.13a.78.78,0,0,0-1,.21.63.63,0,0,0,.24.92.8.8,0,0,0,1-.22A.62.62,0,0,0,225.94,35.29Zm-4,4.94a.4.4,0,0,0-.51.1.32.32,0,0,0,.12.46.39.39,0,0,0,.51-.11A.3.3,0,0,0,221.93,40.23Z" transform="translate(-2.63 5.61)"/><path class="cls-13" d="M240.62,21.71a1.53,1.53,0,0,1,.22-.31,1.91,1.91,0,0,1,.36-.16,1.55,1.55,0,0,1-.34-.19,1.63,1.63,0,0,1-.18-.33,1.53,1.53,0,0,1-.22.31,1.91,1.91,0,0,1-.36.16,1.83,1.83,0,0,1,.35.19A2.09,2.09,0,0,1,240.62,21.71Z" transform="translate(-2.63 5.61)"/><path class="cls-14" d="M246.79,13.58a.37.37,0,0,1-.41.33.37.37,0,0,1-.37-.37.38.38,0,0,1,.41-.33A.36.36,0,0,1,246.79,13.58Zm4.59,2.2a1.52,1.52,0,0,0-1.65,1.34,1.48,1.48,0,0,0,1.49,1.47,1.52,1.52,0,0,0,1.65-1.33A1.48,1.48,0,0,0,251.38,15.78Zm-13.66,1a.76.76,0,0,0-.82.67.74.74,0,0,0,.74.74.76.76,0,0,0,.82-.67A.73.73,0,0,0,237.72,16.81Z" transform="translate(-2.63 5.61)"/><path class="cls-15" d="M205,30a1.53,1.53,0,0,1,.22-.31,1.91,1.91,0,0,1,.36-.16,1.55,1.55,0,0,1-.34-.19,1.63,1.63,0,0,1-.18-.33,1.87,1.87,0,0,1-.21.31,2.25,2.25,0,0,1-.37.16,1.83,1.83,0,0,1,.35.19A2.09,2.09,0,0,1,205,30Z" transform="translate(-2.63 5.61)"/><path class="cls-16" d="M296.16,8.51A.31.31,0,0,0,296,9a.4.4,0,0,0,.51.11.31.31,0,0,0,.12-.46A.4.4,0,0,0,296.16,8.51Z" transform="translate(-2.63 5.61)"/><path class="cls-17" d="M336.48,30.83a1.46,1.46,0,0,0-.21.32,1.29,1.29,0,0,0,0,.36,1.79,1.79,0,0,0-.35-.18,1.68,1.68,0,0,0-.41,0,1.46,1.46,0,0,0,.21-.32,1.31,1.31,0,0,0,0-.36,2.39,2.39,0,0,0,.35.19A2.19,2.19,0,0,0,336.48,30.83Z" transform="translate(-2.63 5.61)"/><path class="cls-18" d="M335.91,13.83a1.46,1.46,0,0,0-.21.32,1.29,1.29,0,0,0,0,.36,1.79,1.79,0,0,0-.35-.18,1.68,1.68,0,0,0-.41,0,1.46,1.46,0,0,0,.21-.32,1.31,1.31,0,0,0,0-.36,2.39,2.39,0,0,0,.35.19A2.19,2.19,0,0,0,335.91,13.83Z" transform="translate(-2.63 5.61)"/><path class="cls-19" d="M317.6,30.22a2,2,0,0,0-.21.32,1.86,1.86,0,0,0,0,.36,1.79,1.79,0,0,0-.35-.18,1.62,1.62,0,0,0-.4,0,2,2,0,0,0,.21-.32,1.68,1.68,0,0,0,0-.36,1.79,1.79,0,0,0,.35.18A1.68,1.68,0,0,0,317.6,30.22Z" transform="translate(-2.63 5.61)"/><path class="cls-20" d="M322.76,23.86a.15.15,0,0,1,.06-.22.21.21,0,0,1,.26.05.16.16,0,0,1-.07.23A.19.19,0,0,1,322.76,23.86Zm-1.41,2.87a.31.31,0,0,0,.13-.45.4.4,0,0,0-.51-.12.32.32,0,0,0-.13.45A.39.39,0,0,0,321.35,26.73Zm4.71-1.33a.64.64,0,0,0,.26-.91.8.8,0,0,0-1-.24.63.63,0,0,0-.26.91A.8.8,0,0,0,326.06,25.4Zm-3-5.48a.31.31,0,0,0,.13-.45.4.4,0,0,0-.51-.12.31.31,0,0,0-.13.46A.4.4,0,0,0,323,19.92Z" transform="translate(-2.63 5.61)"/><path class="cls-21" d="M321.37,37.21a.16.16,0,0,1-.09.22.19.19,0,0,1-.24-.08.15.15,0,0,1,.08-.22A.19.19,0,0,1,321.37,37.21ZM323,34.46a.31.31,0,0,0-.17.44.4.4,0,0,0,.5.15.31.31,0,0,0,.17-.44A.4.4,0,0,0,323,34.46Zm-4.81,1a.63.63,0,0,0-.35.88.79.79,0,0,0,1,.32.65.65,0,0,0,.35-.89A.78.78,0,0,0,318.23,35.43Zm2.49,5.68a.32.32,0,0,0-.17.45.39.39,0,0,0,.49.15.32.32,0,0,0,.17-.44A.38.38,0,0,0,320.72,41.11Z" transform="translate(-2.63 5.61)"/><path class="cls-22" d="M385.42,23.3a1.79,1.79,0,0,1-.18-.33,1.33,1.33,0,0,1,.05-.36,1.72,1.72,0,0,1-.37.16,1.86,1.86,0,0,1-.41,0,1.34,1.34,0,0,1,.18.33,1.42,1.42,0,0,1,0,.36,2.24,2.24,0,0,1,.36-.16A2.79,2.79,0,0,1,385.42,23.3Z" transform="translate(-2.63 5.61)"/><path class="cls-23" d="M383.27,40.76a2.73,2.73,0,0,1-.33-.6,2.7,2.7,0,0,1,.09-.65,3.73,3.73,0,0,1-.66.29,3.53,3.53,0,0,1-.73-.08,2.8,2.8,0,0,1,.32.6,2.7,2.7,0,0,1-.09.65,3.58,3.58,0,0,1,.67-.29A3.53,3.53,0,0,1,383.27,40.76Z" transform="translate(-2.63 5.61)"/><path class="cls-24" d="M366.55,22.5a1.79,1.79,0,0,1-.18-.33,1.42,1.42,0,0,1,.05-.37,1.72,1.72,0,0,1-.37.16,1.86,1.86,0,0,1-.41,0,1.34,1.34,0,0,1,.18.33,1.42,1.42,0,0,1,0,.36,2.24,2.24,0,0,1,.36-.16A2.5,2.5,0,0,1,366.55,22.5Z" transform="translate(-2.63 5.61)"/><path class="cls-25" d="M371.35,29.18a.15.15,0,0,1,0,.23.2.2,0,0,1-.26,0,.16.16,0,0,1,0-.23A.19.19,0,0,1,371.35,29.18Zm-1.91-2.85a.32.32,0,0,0,.09.47.41.41,0,0,0,.52-.08.33.33,0,0,0-.09-.47A.41.41,0,0,0,369.44,26.33Zm4.05,1.77a.62.62,0,0,0,.18.92.79.79,0,0,0,1-.15.62.62,0,0,0-.17-.93A.81.81,0,0,0,373.49,28.1Zm-3,5.15a.31.31,0,0,0,.09.46.38.38,0,0,0,.51-.08.31.31,0,0,0-.08-.46A.4.4,0,0,0,370.49,33.25Z" transform="translate(-2.63 5.61)"/><path class="cls-26" d="M370.7,15.88a.16.16,0,0,1-.07-.23.2.2,0,0,1,.26-.06.15.15,0,0,1,.06.23A.2.2,0,0,1,370.7,15.88Zm2.17,2.69a.31.31,0,0,0-.13-.46.39.39,0,0,0-.5.12.31.31,0,0,0,.13.46A.39.39,0,0,0,372.87,18.57Zm-4.2-1.45a.63.63,0,0,0-.26-.91.78.78,0,0,0-1,.24.63.63,0,0,0,.26.91A.79.79,0,0,0,368.67,17.12Zm2.51-5.36a.31.31,0,0,0-.13-.45.4.4,0,0,0-.51.11.32.32,0,0,0,.13.46A.4.4,0,0,0,371.18,11.76Z" transform="translate(-2.63 5.61)"/><path class="cls-27" d="M264.57,56.09a1.62,1.62,0,0,0-.21.31,1.37,1.37,0,0,0,0,.37,2.39,2.39,0,0,0-.35-.19,2.42,2.42,0,0,0-.41,0,1.34,1.34,0,0,0,.21-.31,1.37,1.37,0,0,0,0-.37,1.7,1.7,0,0,0,.35.19A2.42,2.42,0,0,0,264.57,56.09Z" transform="translate(-2.63 5.61)"/><path class="cls-28" d="M264,39.09a1.62,1.62,0,0,0-.21.31,1.37,1.37,0,0,0,0,.37,2.39,2.39,0,0,0-.35-.19,2.19,2.19,0,0,0-.41,0,1.46,1.46,0,0,0,.21-.32,1.37,1.37,0,0,0,0-.37,1.7,1.7,0,0,0,.35.19A2.42,2.42,0,0,0,264,39.09Z" transform="translate(-2.63 5.61)"/><path class="cls-29" d="M245.69,55.48a1.77,1.77,0,0,0-.21.31,1.37,1.37,0,0,0,0,.37,1.7,1.7,0,0,0-.35-.19,2.29,2.29,0,0,0-.4,0,.63.63,0,0,0,.19-.68,1.7,1.7,0,0,0,.35.19A2.42,2.42,0,0,0,245.69,55.48Z" transform="translate(-2.63 5.61)"/><path class="cls-30" d="M250.85,49.12a.15.15,0,0,1,.06-.23.22.22,0,0,1,.26.06.16.16,0,0,1-.07.23A.19.19,0,0,1,250.85,49.12ZM249.44,52a.33.33,0,0,0,.13-.46.4.4,0,0,0-.51-.11.31.31,0,0,0-.13.45A.4.4,0,0,0,249.44,52Zm4.7-1.34a.63.63,0,0,0,.27-.91.8.8,0,0,0-1-.23.63.63,0,0,0-.26.91A.79.79,0,0,0,254.14,50.65Zm-3-5.47a.31.31,0,0,0,.13-.46.39.39,0,0,0-.5-.11.3.3,0,0,0-.13.45A.39.39,0,0,0,251.12,45.18Z" transform="translate(-2.63 5.61)"/><path class="cls-31" d="M249.46,62.46a.16.16,0,0,1-.09.22.2.2,0,0,1-.25-.07.17.17,0,0,1,.09-.23A.22.22,0,0,1,249.46,62.46Zm1.67-2.75a.32.32,0,0,0-.17.45.39.39,0,0,0,.49.15.31.31,0,0,0,.18-.44A.39.39,0,0,0,251.13,59.71Zm-4.81,1a.64.64,0,0,0-.35.89.78.78,0,0,0,1,.31.62.62,0,0,0,.34-.88A.76.76,0,0,0,246.32,60.68Zm2.49,5.69a.31.31,0,0,0-.17.44.38.38,0,0,0,.49.16.32.32,0,0,0,.17-.45A.39.39,0,0,0,248.81,66.37Z" transform="translate(-2.63 5.61)"/><path class="cls-32" d="M248.54,92.87a2,2,0,0,0-.21.32,1.86,1.86,0,0,0,0,.36,1.79,1.79,0,0,0-.35-.18,1.62,1.62,0,0,0-.4,0,2,2,0,0,0,.21-.32,1.68,1.68,0,0,0,0-.36,2.39,2.39,0,0,0,.35.19A2.19,2.19,0,0,0,248.54,92.87Z" transform="translate(-2.63 5.61)"/><path class="cls-33" d="M248,75.87a2,2,0,0,0-.21.32,1.29,1.29,0,0,0,0,.36,1.79,1.79,0,0,0-.35-.18,1.59,1.59,0,0,0-.4,0,1.5,1.5,0,0,0,.2-.32,1.31,1.31,0,0,0,0-.36,2.39,2.39,0,0,0,.35.19A2.19,2.19,0,0,0,248,75.87Z" transform="translate(-2.63 5.61)"/><path class="cls-34" d="M331.9,67.69a1.34,1.34,0,0,0-.21.31,1.37,1.37,0,0,0,0,.37,1.7,1.7,0,0,0-.35-.19,2.42,2.42,0,0,0-.41,0,1.34,1.34,0,0,0,.21-.31,1.37,1.37,0,0,0,0-.37,1.7,1.7,0,0,0,.35.19A2.42,2.42,0,0,0,331.9,67.69Z" transform="translate(-2.63 5.61)"/><path class="cls-35" d="M331.32,50.69a.63.63,0,0,0-.19.68,1.7,1.7,0,0,0-.35-.19,2.42,2.42,0,0,0-.41,0,1.77,1.77,0,0,0,.21-.31,1.37,1.37,0,0,0,0-.37,1.7,1.7,0,0,0,.35.19A2.29,2.29,0,0,0,331.32,50.69Z" transform="translate(-2.63 5.61)"/><path class="cls-36" d="M313,67.08a1.34,1.34,0,0,0-.21.31,1.37,1.37,0,0,0,0,.37,1.7,1.7,0,0,0-.35-.19,2.42,2.42,0,0,0-.41,0,1.34,1.34,0,0,0,.21-.31,1.37,1.37,0,0,0,0-.37,1.7,1.7,0,0,0,.35.19A2.42,2.42,0,0,0,313,67.08Z" transform="translate(-2.63 5.61)"/><path class="cls-37" d="M318.18,60.72a.15.15,0,0,1,.06-.23.19.19,0,0,1,.25.06.15.15,0,0,1-.06.23A.2.2,0,0,1,318.18,60.72Zm-1.41,2.87a.33.33,0,0,0,.13-.46.4.4,0,0,0-.51-.12.31.31,0,0,0-.13.46A.4.4,0,0,0,316.77,63.59Zm4.7-1.34a.62.62,0,0,0,.26-.91.78.78,0,0,0-1-.23.63.63,0,0,0-.26.91A.79.79,0,0,0,321.47,62.25Zm-3-5.47a.31.31,0,0,0,.13-.46.39.39,0,0,0-.5-.12.31.31,0,0,0-.13.46A.39.39,0,0,0,318.45,56.78Z" transform="translate(-2.63 5.61)"/><path class="cls-38" d="M308.77,53.87a1.79,1.79,0,0,1-.18-.33,1.42,1.42,0,0,1,.05-.37,2.27,2.27,0,0,1-.37.17,2.35,2.35,0,0,1-.4-.05,1.79,1.79,0,0,1,.18.33A2.05,2.05,0,0,1,308,54a1.52,1.52,0,0,1,.37-.16A1.75,1.75,0,0,1,308.77,53.87Z" transform="translate(-2.63 5.61)"/><path class="cls-39" d="M296.86,42.85a.15.15,0,0,1,0,.23.21.21,0,0,1-.26,0,.16.16,0,0,1,0-.23A.19.19,0,0,1,296.86,42.85ZM295,40a.31.31,0,0,0,.08.46.41.41,0,0,0,.52-.07.32.32,0,0,0-.09-.47A.39.39,0,0,0,295,40ZM299,41.76a.62.62,0,0,0,.17.93.79.79,0,0,0,1-.16.61.61,0,0,0-.17-.92A.78.78,0,0,0,299,41.76Zm-3,5.15a.33.33,0,0,0,.09.47.41.41,0,0,0,.52-.08.32.32,0,0,0-.09-.47A.41.41,0,0,0,296,46.91Z" transform="translate(-2.63 5.61)"/><path class="cls-40" d="M278.61,84.54a1.79,1.79,0,0,1-.18-.33,1.42,1.42,0,0,1,.05-.37,1.72,1.72,0,0,1-.37.16,1.75,1.75,0,0,1-.4,0,1.79,1.79,0,0,1,.18.33,1.92,1.92,0,0,1-.05.36,2.06,2.06,0,0,1,.37-.16A2.35,2.35,0,0,1,278.61,84.54Z" transform="translate(-2.63 5.61)"/><path class="cls-41" d="M282.76,77.92a.15.15,0,0,1-.06-.23.19.19,0,0,1,.25-.06.16.16,0,0,1,.07.23A.22.22,0,0,1,282.76,77.92Zm2.18,2.69a.32.32,0,0,0-.14-.46.39.39,0,0,0-.5.12.31.31,0,0,0,.13.46A.4.4,0,0,0,284.94,80.61Zm-4.21-1.45a.63.63,0,0,0-.26-.91.78.78,0,0,0-1,.24.63.63,0,0,0,.26.91A.79.79,0,0,0,280.73,79.16Zm2.51-5.36a.31.31,0,0,0-.13-.45.39.39,0,0,0-.51.11.33.33,0,0,0,.13.46A.4.4,0,0,0,283.24,73.8Z" transform="translate(-2.63 5.61)"/><path class="cls-42" d="M168.11,22.23a1.87,1.87,0,0,0-.21-.31,2.25,2.25,0,0,0-.37-.16,1.83,1.83,0,0,0,.35-.19,1.63,1.63,0,0,0,.18-.33,1.39,1.39,0,0,0,.21.31,2.25,2.25,0,0,0,.37.16,1.83,1.83,0,0,0-.35.19A1.63,1.63,0,0,0,168.11,22.23Z" transform="translate(-2.63 5.61)"/><path class="cls-43" d="M162.31,13.73a.37.37,0,0,1,.41.33.36.36,0,0,1-.37.37.38.38,0,0,1-.41-.33A.37.37,0,0,1,162.31,13.73Zm-4.6-5.2a.76.76,0,0,0,.82.67.74.74,0,0,0,.74-.74.76.76,0,0,0-.82-.67A.74.74,0,0,0,157.71,8.53Zm-1.84,9.25a1.51,1.51,0,0,0,1.64,1.33A1.48,1.48,0,0,0,159,17.64a1.51,1.51,0,0,0-1.64-1.34A1.48,1.48,0,0,0,155.87,17.78Zm14.4.29a.76.76,0,0,0,.82.67.74.74,0,0,0,.75-.74.76.76,0,0,0-.83-.67A.74.74,0,0,0,170.27,18.07Z" transform="translate(-2.63 5.61)"/><path class="cls-44" d="M213.11,15.83a1.84,1.84,0,0,0-.22-.32,1.91,1.91,0,0,0-.36-.16,1.55,1.55,0,0,0,.34-.19,1.63,1.63,0,0,0,.18-.33,1.87,1.87,0,0,0,.21.31,1.61,1.61,0,0,0,.37.16,2,2,0,0,0-.35.2A1.73,1.73,0,0,0,213.11,15.83Z" transform="translate(-2.63 5.61)"/><path class="cls-45" d="M204.47,15.58a.17.17,0,1,1,.19-.16A.17.17,0,0,1,204.47,15.58Zm1.93,2.61a.35.35,0,0,0-.35-.34.36.36,0,0,0-.39.32.35.35,0,0,0,.36.34A.34.34,0,0,0,206.4,18.19Zm1.28-4.28a.69.69,0,0,0-.71-.69.73.73,0,0,0-.77.64.74.74,0,0,0,1.48.05Zm-6.76-.66a.35.35,0,0,0-.36-.34.36.36,0,0,0-.38.32.34.34,0,0,0,.36.34A.35.35,0,0,0,200.92,13.25Z" transform="translate(-2.63 5.61)"/><path class="cls-46" d="M112.71,5a.17.17,0,0,1,.06.23.21.21,0,0,1-.26.05.16.16,0,0,1-.06-.23A.2.2,0,0,1,112.71,5Zm-2.07-2.76a.31.31,0,0,0,.12.46.4.4,0,0,0,.51-.1.31.31,0,0,0-.12-.46A.39.39,0,0,0,110.64,2.28Zm4.15,1.58a.63.63,0,0,0,.22.92.78.78,0,0,0,1-.2.63.63,0,0,0-.22-.92A.78.78,0,0,0,114.79,3.86Zm-2.72,5.28a.32.32,0,0,0,.11.46.4.4,0,0,0,.51-.11.32.32,0,0,0-.11-.46A.4.4,0,0,0,112.07,9.14Z" transform="translate(-2.63 5.61)"/><path class="cls-47" d="M56.23-5.43a2,2,0,0,1,.21.32,1.9,1.9,0,0,1,0,.36,2.39,2.39,0,0,1,.35-.19,2.13,2.13,0,0,1,.4,0A2,2,0,0,1,57-5.24a1.79,1.79,0,0,1,0-.37,1.7,1.7,0,0,1-.35.19A1.68,1.68,0,0,1,56.23-5.43Z" transform="translate(-2.63 5.61)"/><path class="cls-48" d="M71.59.87a.15.15,0,0,1,.08.22.2.2,0,0,1-.24.08.16.16,0,0,1-.09-.23A.19.19,0,0,1,71.59.87ZM69.17-1.65a.32.32,0,0,0,.17.44.4.4,0,0,0,.5-.15.33.33,0,0,0-.18-.45A.38.38,0,0,0,69.17-1.65ZM73.49-.52a.63.63,0,0,0,.35.88.78.78,0,0,0,1-.31.65.65,0,0,0-.35-.89A.79.79,0,0,0,73.49-.52ZM71.49,5a.33.33,0,0,0,.18.45.38.38,0,0,0,.49-.16A.32.32,0,0,0,72,4.85.4.4,0,0,0,71.49,5Z" transform="translate(-2.63 5.61)"/><path class="cls-49" d="M72.26,31.35a2,2,0,0,1,.21.32,1.68,1.68,0,0,1,0,.36,1.79,1.79,0,0,1,.35-.18,1.68,1.68,0,0,1,.41,0,2,2,0,0,1-.21-.32,1.9,1.9,0,0,1,0-.36,2.39,2.39,0,0,1-.35.19A2.13,2.13,0,0,1,72.26,31.35Z" transform="translate(-2.63 5.61)"/><path class="cls-50" d="M72.83,14.35a2,2,0,0,1,.21.32A1.79,1.79,0,0,1,73,15a2,2,0,0,1,.35-.19,1.68,1.68,0,0,1,.41,0,2,2,0,0,1-.21-.32,1.73,1.73,0,0,1,0-.36,3.09,3.09,0,0,1-.35.19A2.19,2.19,0,0,1,72.83,14.35Z" transform="translate(-2.63 5.61)"/><path class="cls-51" d="M91.13,30.74a1.46,1.46,0,0,1,.21.32,1.29,1.29,0,0,1,0,.36,1.79,1.79,0,0,1,.35-.18,1.68,1.68,0,0,1,.41,0,1.46,1.46,0,0,1-.21-.32,1.29,1.29,0,0,1,0-.36,1.79,1.79,0,0,1-.35.18A1.68,1.68,0,0,1,91.13,30.74Z" transform="translate(-2.63 5.61)"/><path class="cls-52" d="M85.72,24.44a.15.15,0,0,1-.06-.22.19.19,0,0,1,.25-.06.15.15,0,0,1,.07.22A.2.2,0,0,1,85.72,24.44Zm2.17,2.7a.31.31,0,0,0-.13-.46.39.39,0,0,0-.5.12.3.3,0,0,0,.13.45A.39.39,0,0,0,87.89,27.14Zm-4.2-1.46a.63.63,0,0,0-.26-.91.79.79,0,0,0-1,.24.63.63,0,0,0,.26.91A.79.79,0,0,0,83.69,25.68Zm2.52-5.35a.33.33,0,0,0-.13-.46.4.4,0,0,0-.51.12.3.3,0,0,0,.13.45A.4.4,0,0,0,86.21,20.33Z" transform="translate(-2.63 5.61)"/><path class="cls-53" d="M23.32,23.82a1.79,1.79,0,0,0,.18-.33,1.92,1.92,0,0,0-.05-.36,1.52,1.52,0,0,0,.37.16,1.75,1.75,0,0,0,.4,0,1.79,1.79,0,0,0-.18.33,1.33,1.33,0,0,0,.05.36,2.46,2.46,0,0,0-.37-.16A2.62,2.62,0,0,0,23.32,23.82Z" transform="translate(-2.63 5.61)"/><path class="cls-54" d="M42.19,23a1.79,1.79,0,0,0,.18-.33,2.05,2.05,0,0,0,0-.37,1.6,1.6,0,0,0,.36.16,1.78,1.78,0,0,0,.41,0,1.79,1.79,0,0,0-.18.33,1.33,1.33,0,0,0,.05.36,2.46,2.46,0,0,0-.37-.16A2.35,2.35,0,0,0,42.19,23Z" transform="translate(-2.63 5.61)"/><path class="cls-55" d="M37.64,29.74a.15.15,0,0,1,0,.23.19.19,0,0,1-.25,0,.16.16,0,0,1,0-.23A.2.2,0,0,1,37.64,29.74Zm1.14-3a.3.3,0,0,0-.09.46.4.4,0,0,0,.51.08.32.32,0,0,0,.09-.47A.39.39,0,0,0,38.78,26.78Zm-4.57,1.68a.63.63,0,0,0-.18.93.79.79,0,0,0,1,.15.61.61,0,0,0,.17-.92A.8.8,0,0,0,34.21,28.46Zm3.52,5.23a.3.3,0,0,0-.09.46.4.4,0,0,0,.52.08.31.31,0,0,0,.08-.46A.39.39,0,0,0,37.73,33.69Z" transform="translate(-2.63 5.61)"/><path class="cls-56" d="M37.78,16.34a.16.16,0,0,1,.07-.23.2.2,0,0,1,.25.06.16.16,0,0,1-.07.23A.2.2,0,0,1,37.78,16.34Zm-1.41,2.87a.33.33,0,0,0,.13-.46.4.4,0,0,0-.51-.12.33.33,0,0,0-.13.46A.4.4,0,0,0,36.37,19.21Zm4.71-1.33a.63.63,0,0,0,.26-.91.78.78,0,0,0-1-.24.63.63,0,0,0-.27.91A.8.8,0,0,0,41.08,17.88Zm-3-5.48a.32.32,0,0,0,.14-.46.4.4,0,0,0-.51-.11.3.3,0,0,0-.13.45A.39.39,0,0,0,38.06,12.4Z" transform="translate(-2.63 5.61)"/><path class="cls-57" d="M144.17,56.61a2.27,2.27,0,0,1,.21.31,1.79,1.79,0,0,1,0,.37,2.39,2.39,0,0,1,.35-.19,2.19,2.19,0,0,1,.41,0,2,2,0,0,1-.21-.32,1.79,1.79,0,0,1,0-.37,2,2,0,0,1-.35.19A1.68,1.68,0,0,1,144.17,56.61Z" transform="translate(-2.63 5.61)"/><path class="cls-58" d="M144.74,39.61a2,2,0,0,1,.21.32,1.73,1.73,0,0,1,0,.36,3.09,3.09,0,0,1,.35-.19,2.19,2.19,0,0,1,.41,0,2,2,0,0,1-.21-.32,1.79,1.79,0,0,1,0-.37,1.7,1.7,0,0,1-.35.19A1.68,1.68,0,0,1,144.74,39.61Z" transform="translate(-2.63 5.61)"/><path class="cls-59" d="M163.05,56a.63.63,0,0,1,.19.68,1.7,1.7,0,0,1,.35-.19,2.42,2.42,0,0,1,.41,0,1.77,1.77,0,0,1-.21-.31,1.37,1.37,0,0,1,0-.37,1.7,1.7,0,0,1-.35.19A2.29,2.29,0,0,1,163.05,56Z" transform="translate(-2.63 5.61)"/><path class="cls-60" d="M157.63,49.7a.17.17,0,0,1-.06-.23.2.2,0,0,1,.25-.06.16.16,0,0,1,.07.23A.2.2,0,0,1,157.63,49.7Zm2.17,2.69a.3.3,0,0,0-.13-.45.39.39,0,0,0-.5.11.31.31,0,0,0,.13.46A.39.39,0,0,0,159.8,52.39Zm-4.2-1.45a.63.63,0,0,0-.26-.91.79.79,0,0,0-1,.23.63.63,0,0,0,.26.91A.78.78,0,0,0,155.6,50.94Zm2.52-5.36a.31.31,0,0,0-.13-.45.4.4,0,0,0-.51.11.32.32,0,0,0,.13.46A.4.4,0,0,0,158.12,45.58Z" transform="translate(-2.63 5.61)"/><path class="cls-61" d="M159.52,62.91a.15.15,0,0,1,.09.22.19.19,0,0,1-.25.07.15.15,0,0,1-.08-.22A.19.19,0,0,1,159.52,62.91Zm-2.41-2.52a.32.32,0,0,0,.17.44.39.39,0,0,0,.49-.15.32.32,0,0,0-.17-.45A.38.38,0,0,0,157.11,60.39Zm4.32,1.13a.63.63,0,0,0,.35.88.77.77,0,0,0,1-.31.63.63,0,0,0-.34-.89A.79.79,0,0,0,161.43,61.52Zm-2,5.52a.32.32,0,0,0,.17.45.39.39,0,0,0,.5-.16.32.32,0,0,0-.17-.44A.4.4,0,0,0,159.43,67Z" transform="translate(-2.63 5.61)"/><path class="cls-62" d="M160.77,76.39a1.5,1.5,0,0,1,.2.32,1.29,1.29,0,0,1,0,.36,1.79,1.79,0,0,1,.35-.18,1.68,1.68,0,0,1,.41,0,2,2,0,0,1-.21-.32,1.9,1.9,0,0,1,0-.36,2.39,2.39,0,0,1-.35.19A2.07,2.07,0,0,1,160.77,76.39Z" transform="translate(-2.63 5.61)"/><path class="cls-63" d="M289.78,43.78c-12.06-6.89-27.64-4.85-41.77-3s-30.15,2.92-41.13-5.29c-8.39-6.28-12.58-17.21-22.8-20.66-5.92-2-12.48-.94-18.73-.13A221.58,221.58,0,0,1,88.7,11.3C74.81,8.2,61.06,3.62,46.57,4A91.65,91.65,0,0,0,26.33,6.59c-3,.75-16.89,4.18-17.56,7-.75,3.15,2.58,5.6,5.75,7.1s6.82,1.92,10.2,3c2.35.75,4.58,1.81,7,2.43a39.16,39.16,0,0,0,5,.82c5.86.71,11.6,3.19,17.6,2.61,5.1-.5,9.63-2.35,14.25-4.21,11.1-4.48,24-4.68,35.53-1.24,4.51,1.35,10.75,3.35,14.69,5.57,4.39,2.47,6,7.71,10.48,9.86a14.09,14.09,0,0,0,4.73,1c19.8,1.94,47-10.59,63.39,5.51,2.42,2.37,6.53,8.54,4.42,11.89-2.68,4.28-9.57,1.78-13.85,1.1a179.48,179.48,0,0,0-58.14.5C117.33,61.6,105,65,92.36,64.81c-24-.28-47.37-13.07-70.73-8.27-3.44.7-7.12,2-8.67,4.9-1.78,3.3.13,7.45,3.32,9.74s7.33,3.16,11.33,3.9a379.8,379.8,0,0,0,147-2c6.29-1.34,12.81-2.85,19.12-1.6,5.82,1.15,10.74,4.53,16.15,6.79,17.12,7.18,37.19,2.74,55.39-1.8,7.31-1.82,14.72-3.69,21.23-7.19,6.87-3.7,13-10.68,10.66-17.57C296.05,48.31,293.08,45.67,289.78,43.78Z" transform="translate(-2.63 5.61)"/><ellipse class="cls-64" cx="198.91" cy="122.33" rx="156.45" ry="71.63"/><path class="cls-65" d="M288.19,49.69a7.85,7.85,0,0,0-3.77.86c-.88.51-1.09,1.31-1.84,1.8-1.38.89-3.31.34-4.87.23A16.93,16.93,0,0,0,269.9,54c-1.13.49-2.32,1.28-2.39,2.41s1,2,2,2.53c4.24,2.24,8.92.71,13.63.93,5.36.25,8.11,4.64,12.94,5.09,4.13.39,8.27.64,12.42.66,3.82,0,8.19-.39,10.46-3.16,2.09-2.55,8.85-8.54,2-10.26-2-.5-4.1-.06-6.16.07s-4.4-.17-5.63-1.66c-.59-.71-.84-1.61-1.47-2.28-1.35-1.46-3.9-1.39-5.87-.69s-3.71,1.88-5.77,2.29C293.51,50.45,290.84,49.7,288.19,49.69Z" transform="translate(-2.63 5.61)"/><path class="cls-66" d="M268.29,57.79c.06-1.12,1.25-1.91,2.38-2.41A16.92,16.92,0,0,1,278.48,54c1.56.11,3.49.65,4.87-.24.75-.48,1-1.29,1.84-1.8a7.85,7.85,0,0,1,3.77-.86c2.65,0,5.32.77,7.9.25,2.06-.42,3.81-1.6,5.77-2.29s4.52-.78,5.87.68c.63.68.89,1.57,1.47,2.28,1.23,1.49,3.58,1.79,5.64,1.66s4.16-.56,6.15-.06a5.31,5.31,0,0,1,2.2,1c-.14-1-1-1.9-3-2.4s-4.1-.06-6.16.07-4.4-.17-5.63-1.66c-.59-.71-.84-1.61-1.47-2.28-1.35-1.46-3.9-1.39-5.87-.69s-3.71,1.88-5.77,2.29c-2.58.52-5.25-.23-7.9-.24a7.85,7.85,0,0,0-3.77.86c-.88.51-1.09,1.31-1.84,1.8-1.38.89-3.31.34-4.87.23A16.93,16.93,0,0,0,269.9,54c-1.13.49-2.32,1.28-2.39,2.41a2.23,2.23,0,0,0,.79,1.66A1.29,1.29,0,0,1,268.29,57.79Z" transform="translate(-2.63 5.61)"/><path class="cls-67" d="M321,52.2c-2-.5-4.1-.06-6.16.07s-4.4-.17-5.63-1.66c-.59-.71-.84-1.61-1.47-2.28-1.35-1.46-3.9-1.39-5.87-.69s-3.71,1.88-5.77,2.29c-2.58.52-5.25-.23-7.9-.24a7.85,7.85,0,0,0-3.77.86c-.88.51-1.09,1.31-1.84,1.8-1.38.89-3.31.34-4.87.23A16.93,16.93,0,0,0,269.9,54l-.4.18a5.14,5.14,0,0,0,1.42,1c4.23,2.24,8.91.71,13.62.93,5.37.25,8.12,4.64,12.95,5.09,4.13.39,8.27.64,12.42.66,3.82,0,8.18-.39,10.45-3.16.84-1,2.43-2.59,3.59-4.22C323.78,53.53,322.94,52.69,321,52.2Z" transform="translate(-2.63 5.61)"/><ellipse class="cls-68" cx="318.48" cy="53.52" rx="24.06" ry="21.61"/><path class="cls-69" d="M343.23,43.15a18.72,18.72,0,0,1,.19,2.6c0,11.29-10.18,20.44-22.75,20.44-10.74,0-19.74-6.69-22.12-15.68,1.42,10.06,11,17.83,22.56,17.83,12.56,0,22.75-9.14,22.75-20.43A18.34,18.34,0,0,0,343.23,43.15Z" transform="translate(-2.63 5.61)"/><ellipse class="cls-70" cx="317.23" cy="49.02" rx="18.01" ry="16.18"/><path class="cls-71" d="M320.81,65.24c0,.89-1.27,1.61-2.83,1.61s-2.83-.72-2.83-1.61,1.27-1.61,2.83-1.61S320.81,64.35,320.81,65.24Z" transform="translate(-2.63 5.61)"/><path class="cls-72" d="M341,41.23c-.87.41-2.17-.26-2.9-1.5s-.61-2.59.27-3,2.17.26,2.9,1.5S341.87,40.81,341,41.23Z" transform="translate(-2.63 5.61)"/><path class="cls-73" d="M339.51,57.33c-.91-.35-1.15-1.68-.54-3s1.84-2.06,2.76-1.71,1.15,1.68.54,3S340.42,57.68,339.51,57.33Z" transform="translate(-2.63 5.61)"/><path class="cls-74" d="M341.68,44.51c-.43.16-1-.22-1.29-.84s-.14-1.26.29-1.41,1,.22,1.3.84S342.12,44.35,341.68,44.51Z" transform="translate(-2.63 5.61)"/><path class="cls-75" d="M327.22,65.41c0,.42-.63.77-1.41.77s-1.42-.35-1.42-.77.64-.76,1.42-.76S327.22,65,327.22,65.41Z" transform="translate(-2.63 5.61)"/><path class="cls-76" d="M303.79,51.65c.38,1.6-.18,3.07-1.25,3.28s-2.24-.93-2.63-2.53.18-3.07,1.25-3.27S303.4,50.05,303.79,51.65Z" transform="translate(-2.63 5.61)"/><path class="cls-77" d="M305.67,57c.24.66,0,1.32-.46,1.47s-1.09-.28-1.33-1,0-1.32.45-1.47A1.25,1.25,0,0,1,305.67,57Z" transform="translate(-2.63 5.61)"/><path class="cls-78" d="M321.75,29.73c0,.68-1,1.23-2.27,1.23s-2.26-.55-2.26-1.23,1-1.24,2.26-1.24S321.75,29.05,321.75,29.73Z" transform="translate(-2.63 5.61)"/><ellipse class="cls-79" cx="321.45" cy="35.33" rx="1.03" ry="0.74"/><path class="cls-80" d="M359.46,51a97.86,97.86,0,0,1,18.27-.78,22.69,22.69,0,0,1,5.91,1.32c3.87,1.19,8.06,2.18,12,1.23s7.4-4.5,6.49-8.08c-1.62-6.35,12.2-7.2,7.67-15.12-1.5-2.62-4.84-4.17-8.12-4.16-4.15,0-8.93,2.05-12.07-.4a11.62,11.62,0,0,1-2.26-2.91,17.47,17.47,0,0,0-12.63-7.69c-9.05-.87-10.48,7.08-17.62,7.94-6.4.77-13.94-.09-18.3,4.19-1.79,1.76-2.77,4.22-5,5.54-1.85,1.1-4.19,1.2-6.41,1.29a198.6,198.6,0,0,0-31.27,3.81c-2.81.58-6.18,1.76-6.48,4.35-.21,1.79,1.35,3.45,3.19,4.16a16,16,0,0,0,5.94.65L318.3,46c3-.05,6.53.1,8.32,2.28.86,1,1.14,2.39,1.82,3.54,1.74,2.9,5.76,4.07,9.42,4.08C345.31,55.87,352.14,52.23,359.46,51Z" transform="translate(-2.63 5.61)"/><path class="cls-81" d="M389.45,26.58c3.13,2.45,7.91.42,12.06.41a10.3,10.3,0,0,1,6.08,1.92c-.08-.18-.17-.35-.27-.54-1.5-2.62-4.84-4.16-8.12-4.15-4,0-8.68,1.93-11.81-.23A9.53,9.53,0,0,0,389.45,26.58Z" transform="translate(-2.63 5.61)"/><path class="cls-82" d="M398.57,42.35a9.58,9.58,0,0,1-1.86.66c-4,1-8.14,0-12-1.23a23,23,0,0,0-5.9-1.31,97,97,0,0,0-18.27.78c-7.32,1.25-14.15,4.89-21.6,4.88-3.66,0-7.69-1.18-9.42-4.08-.69-1.14-1-2.48-1.83-3.53-1.78-2.19-5.29-2.34-8.31-2.28l-19.5.34a18.57,18.57,0,0,1-5.12-.39l-2.11.41c-2.81.57-6.18,1.76-6.48,4.34-.21,1.79,1.34,3.45,3.19,4.16a15.74,15.74,0,0,0,5.94.65l19.5-.34c3-.06,6.53.09,8.32,2.28.86,1.05,1.14,2.39,1.82,3.53,1.74,2.9,5.76,4.08,9.42,4.08,7.45,0,14.28-3.63,21.6-4.88a97.86,97.86,0,0,1,18.27-.78A23.08,23.08,0,0,1,380.12,51c3.87,1.19,8.06,2.18,12,1.23s7.4-4.5,6.49-8.08A3.73,3.73,0,0,1,398.57,42.35Z" transform="translate(-2.63 5.61)"/><path class="cls-83" d="M403.91,34.37a4.88,4.88,0,0,1,0,2.49c2.79-2,5.39-4.2,3.26-8.2C405,30.22,403.27,31.87,403.91,34.37Z" transform="translate(-2.63 5.61)"/><path class="cls-84" d="M68.75,35.55c-7,.51-16-.15-23-.89a32.11,32.11,0,0,1-7.26-2C33.79,31,28.65,29.54,23.6,30.19s-9.73,4.18-9,8.15C16,45.37-1.37,45,3.49,54c1.6,3,5.63,5,9.74,5.28,5.21.38,11.4-1.37,15.08,1.59a12.37,12.37,0,0,1,2.53,3.37,22.18,22.18,0,0,0,15,9.54c11.25,1.8,13.86-6.68,22.89-6.93,8.1-.23,17.45,1.43,23.35-2.8,2.43-1.74,3.9-4.31,6.8-5.54,2.43-1,5.38-.89,8.17-.78a288.27,288.27,0,0,0,39.56-1.16c3.58-.36,7.92-1.32,8.57-4.09.44-1.93-1.34-3.88-3.58-4.82a22.45,22.45,0,0,0-7.37-1.27L119.8,44.91c-3.79-.23-8.16-.73-10.18-3.27-1-1.22-1.18-2.7-1.93-4-1.87-3.3-6.79-5-11.38-5.32C87,31.59,78.05,34.89,68.75,35.55Z" transform="translate(-2.63 5.61)"/><path class="cls-85" d="M152.09,48.11a23,23,0,0,0-7.37-1.27l-24.47-1.48c-3.79-.23-8.17-.73-10.18-3.27-1-1.22-1.19-2.7-1.93-4-1.87-3.31-6.79-5-11.38-5.32C87.43,32,78.5,35.33,69.2,36c-7,.5-16-.16-23-.9a32.62,32.62,0,0,1-7.26-2C34.24,31.46,29.1,30,24.05,30.63c-3.41.44-6.64,2.19-8.15,4.5a13.41,13.41,0,0,1,5.94-2.26c5.05-.65,10.19.82,14.92,2.48a32.11,32.11,0,0,0,7.26,2c7,.74,15.95,1.4,23,.89,9.3-.66,18.22-4,27.56-3.24,4.59.36,9.51,2,11.38,5.32.74,1.31,1,2.79,1.93,4,2,2.54,6.39,3,10.18,3.27l24.47,1.49a22.5,22.5,0,0,1,7.37,1.27c2.24.94,4,2.89,3.57,4.82a2,2,0,0,1-.1.32,4,4,0,0,0,2.31-2.56C156.11,51,154.33,49.06,152.09,48.11Z" transform="translate(-2.63 5.61)"/><path class="cls-86" d="M151.64,47.38a14.05,14.05,0,0,0-3-.83c-.63.1-1.26.18-1.86.24A288.27,288.27,0,0,1,107.23,48c-2.79-.11-5.74-.23-8.17.79-2.9,1.22-4.37,3.79-6.8,5.53-5.9,4.23-15.25,2.58-23.35,2.8-9,.25-11.64,8.74-22.89,6.93a22.18,22.18,0,0,1-15-9.54,12.37,12.37,0,0,0-2.53-3.37c-3.68-3-9.87-1.2-15.08-1.59a14,14,0,0,1-7.87-3c-2.43,1.65-3.9,3.73-2,7.24,1.6,3,5.63,5,9.74,5.29,5.21.38,11.4-1.37,15.08,1.58A12.41,12.41,0,0,1,30.84,64a22.17,22.17,0,0,0,15,9.53c11.25,1.81,13.86-6.68,22.89-6.93,8.09-.22,17.45,1.43,23.35-2.8,2.43-1.73,3.9-4.31,6.8-5.53,2.43-1,5.38-.9,8.17-.79a284.94,284.94,0,0,0,39.55-1.16c3.59-.35,7.93-1.32,8.58-4.09C155.66,50.28,153.88,48.33,151.64,47.38Z" transform="translate(-2.63 5.61)"/><path class="cls-87" d="M172.18,97.15a9,9,0,0,0-4.31,1c-1,.58-1.24,1.5-2.1,2.05-1.58,1-3.79.4-5.56.27a19.39,19.39,0,0,0-8.92,1.62c-1.29.56-2.65,1.46-2.72,2.75s1.11,2.26,2.31,2.89c3.62,1.91,8.07,2.06,12.24,1.58s8.23-1.54,12.41-1.87c11.57-.91,23.86,3.76,34.5-.42a5.2,5.2,0,0,0,3-2.25c.9-2-1.11-4.16-3.38-4.73s-4.68-.08-7,.07-5-.19-6.44-1.89c-.66-.81-1-1.83-1.67-2.61-1.54-1.66-4.46-1.57-6.7-.78s-4.25,2.15-6.6,2.62C178.25,98,175.2,97.16,172.18,97.15Z" transform="translate(-2.63 5.61)"/><path class="cls-88" d="M211.2,102.8c-10.64,4.18-22.93-.48-34.5.42-4.18.33-8.25,1.39-12.42,1.87s-8.61.34-12.23-1.57a6.52,6.52,0,0,1-1.5-1.08,3.2,3.2,0,0,0-2,2.38c-.07,1.25,1.11,2.26,2.31,2.89,3.62,1.91,8.07,2.06,12.24,1.58s8.23-1.54,12.41-1.87c11.57-.91,23.86,3.76,34.5-.42a5.2,5.2,0,0,0,3-2.25,2.67,2.67,0,0,0-.34-2.66A9.49,9.49,0,0,1,211.2,102.8Z" transform="translate(-2.63 5.61)"/><path class="cls-89" d="M365.12,59.33a4.85,4.85,0,0,0-2.32.53c-.54.32-.67.81-1.13,1.11-.86.55-2.05.21-3,.15a10.36,10.36,0,0,0-4.81.87c-.7.3-1.43.79-1.47,1.48s.6,1.22,1.25,1.56a11.42,11.42,0,0,0,6.59.85c2.25-.26,4.44-.83,6.7-1,6.24-.49,12.87,2,18.61-.23a2.73,2.73,0,0,0,1.6-1.21c.49-1-.6-2.24-1.82-2.55a12.36,12.36,0,0,0-3.79,0,4.17,4.17,0,0,1-3.48-1c-.35-.44-.51-1-.9-1.4-.83-.9-2.4-.86-3.61-.43A25.83,25.83,0,0,1,370,59.48C368.39,59.8,366.75,59.34,365.12,59.33Z" transform="translate(-2.63 5.61)"/><path class="cls-90" d="M354.51,63.15a10.49,10.49,0,0,1,4.81-.87c.95.07,2.14.41,3-.14.46-.3.59-.8,1.13-1.11a4.85,4.85,0,0,1,2.32-.53c1.63,0,3.27.47,4.86.15a25.83,25.83,0,0,0,3.56-1.41c1.21-.43,2.78-.48,3.61.42.39.42.54,1,.9,1.41a4.2,4.2,0,0,0,3.47,1,12.43,12.43,0,0,1,3.8,0,3,3,0,0,1,1.27.69,2.52,2.52,0,0,0-1.92-1.86,12.36,12.36,0,0,0-3.79,0,4.17,4.17,0,0,1-3.48-1c-.35-.44-.51-1-.9-1.4-.83-.9-2.4-.86-3.61-.43A25.83,25.83,0,0,1,370,59.48c-1.59.32-3.23-.14-4.86-.15a4.85,4.85,0,0,0-2.32.53c-.54.32-.67.81-1.13,1.11-.86.55-2.05.21-3,.15a10.36,10.36,0,0,0-4.81.87c-.7.3-1.43.79-1.47,1.48a1.45,1.45,0,0,0,.65,1.17C353.08,63.94,353.81,63.46,354.51,63.15Z" transform="translate(-2.63 5.61)"/><path class="cls-91" d="M386.29,61.34a5.19,5.19,0,0,1-1,.52c-5.74,2.25-12.37-.26-18.61.22-2.26.18-4.45.75-6.7,1a11.42,11.42,0,0,1-6.59-.85h0a1.7,1.7,0,0,0-1,1.24c0,.68.6,1.22,1.25,1.56a11.42,11.42,0,0,0,6.59.85c2.25-.26,4.44-.83,6.7-1,6.24-.49,12.87,2,18.61-.23a2.73,2.73,0,0,0,1.6-1.21A1.75,1.75,0,0,0,386.29,61.34Z" transform="translate(-2.63 5.61)"/></g><g class="cls-92"><path class="cls-93" d="M320.12,90.35l-16.77,6.81a13.07,13.07,0,0,1-9.72.17A50.93,50.93,0,0,0,275.35,94a52.49,52.49,0,0,0-18.2,3.24,13.53,13.53,0,0,1-9.72-.22L230.7,90.16v43.63c1.5,19.65,21.1,35.11,44.58,35.16s43.25-15.32,44.74-35Zm-60.89,27.54a8,8,0,1,1-8,8A8,8,0,0,1,259.23,117.89Zm32.24.07a8,8,0,1,1-8,8A8,8,0,0,1,291.47,118Z" transform="translate(-2.63 5.61)"/><ellipse class="cls-94" cx="334.49" cy="129.61" rx="2.67" ry="4.05" transform="translate(201.53 469.42) rotate(-89.88)"/><ellipse class="cls-95" cx="342.6" cy="129.62" rx="2.67" ry="4.05" transform="translate(209.6 477.54) rotate(-89.88)"/><ellipse class="cls-96" cx="350.71" cy="129.64" rx="2.67" ry="4.05" transform="translate(217.68 485.67) rotate(-89.88)"/><ellipse class="cls-97" cx="201.11" cy="129.32" rx="2.67" ry="4.05" transform="translate(68.73 335.75) rotate(-89.88)"/><ellipse class="cls-98" cx="209.22" cy="129.33" rx="2.67" ry="4.05" transform="translate(76.81 343.88) rotate(-89.88)"/><ellipse class="cls-99" cx="217.33" cy="129.35" rx="2.67" ry="4.05" transform="translate(84.88 352) rotate(-89.88)"/></g></g></g></g></svg>