<svg id="Layer_1" data-name="Layer 1" xmlns="http://www.w3.org/2000/svg" viewBox="0 0 146.12 56.54"><defs><style>.cls-1{isolation:isolate;}.cls-2{fill:#afafaf;}.cls-3{fill:#f7b39f;}</style></defs><title>BoBo_Bottom_2</title><g id="BoBo_is_a_product_of_Hypermine_Labs" data-name="BoBo is a product of Hypermine Labs"><g class="cls-1"><g class="cls-1"><path class="cls-2" d="M10.35,48.82a2.69,2.69,0,0,1,.54,1.73,2.5,2.5,0,0,1-1.06,2.16,5.25,5.25,0,0,1-3.07.75H1.62V42.68H6.45a4.8,4.8,0,0,1,2.86.74,2.4,2.4,0,0,1,1,2,2.54,2.54,0,0,1-1.45,2.4A2.72,2.72,0,0,1,10.35,48.82ZM3.16,43.93v3.45H6.31a3.25,3.25,0,0,0,1.83-.44,1.61,1.61,0,0,0,0-2.57,3.17,3.17,0,0,0-1.83-.44Zm5.51,7.85a1.5,1.5,0,0,0,.66-1.35c0-1.21-.88-1.81-2.63-1.81H3.16v3.59H6.7A3.62,3.62,0,0,0,8.67,51.78Z" transform="translate(-0.52)"/><path class="cls-2" d="M19.83,45.3l-3.95,9A4,4,0,0,1,14.65,56a2.77,2.77,0,0,1-1.68.51,3.59,3.59,0,0,1-1.17-.19,2.54,2.54,0,0,1-.93-.56l.63-1.11a2.06,2.06,0,0,0,1.47.6,1.41,1.41,0,0,0,.9-.29,2.34,2.34,0,0,0,.65-1l.26-.57-3.6-8.14h1.54l2.85,6.53,2.82-6.53Z" transform="translate(-0.52)"/><path class="cls-2" d="M34,42.68V53.46H32.42v-4.8H26.23v4.8H24.69V42.68h1.54v4.64h6.19V42.68Z" transform="translate(-0.52)"/><path class="cls-2" d="M43.75,45.3l-4,9A4,4,0,0,1,38.57,56a2.8,2.8,0,0,1-1.69.51,3.48,3.48,0,0,1-1.16-.19,2.39,2.39,0,0,1-.93-.56l.63-1.11a2.06,2.06,0,0,0,1.46.6,1.41,1.41,0,0,0,.9-.29,2.45,2.45,0,0,0,.66-1l.26-.57L35.1,45.3h1.54l2.85,6.53L42.3,45.3Z" transform="translate(-0.52)"/><path class="cls-2" d="M51.14,45.74a3.71,3.71,0,0,1,1.47,1.47,4.26,4.26,0,0,1,.53,2.17,4.32,4.32,0,0,1-.53,2.18A3.71,3.71,0,0,1,51.14,53a4.24,4.24,0,0,1-2.12.52,3.72,3.72,0,0,1-1.61-.34,3.28,3.28,0,0,1-1.24-1v4.22H44.69V45.3h1.42v1.29a3.14,3.14,0,0,1,1.24-1A4,4,0,0,1,49,45.22,4.35,4.35,0,0,1,51.14,45.74ZM50.3,51.9a2.56,2.56,0,0,0,1-1,3.08,3.08,0,0,0,.36-1.5,3,3,0,0,0-.36-1.5,2.53,2.53,0,0,0-1-1,2.87,2.87,0,0,0-2.8,0,2.64,2.64,0,0,0-1,1,3.3,3.3,0,0,0,0,3,2.47,2.47,0,0,0,1,1,2.78,2.78,0,0,0,1.4.36A2.74,2.74,0,0,0,50.3,51.9Z" transform="translate(-0.52)"/><path class="cls-2" d="M62.09,49.87H55.47a2.53,2.53,0,0,0,1,1.73,3.08,3.08,0,0,0,2,.66,3,3,0,0,0,2.35-1l.82,1a3.52,3.52,0,0,1-1.38,1A5.18,5.18,0,0,1,56.09,53a3.75,3.75,0,0,1-1.55-1.48A4.23,4.23,0,0,1,54,49.38a4.38,4.38,0,0,1,.53-2.14A3.83,3.83,0,0,1,56,45.75a4.2,4.2,0,0,1,2.1-.53,4.1,4.1,0,0,1,2.08.53,3.75,3.75,0,0,1,1.44,1.49,4.56,4.56,0,0,1,.51,2.18A4.21,4.21,0,0,1,62.09,49.87Zm-5.78-2.75a2.57,2.57,0,0,0-.84,1.69h5.24a2.71,2.71,0,0,0-.84-1.69,2.57,2.57,0,0,0-1.78-.65A2.52,2.52,0,0,0,56.31,47.12Z" transform="translate(-0.52)"/></g><g class="cls-1"><path class="cls-2" d="M66.73,45.59a4.06,4.06,0,0,1,1.83-.37v1.43h-.34a2.53,2.53,0,0,0-1.89.71,2.87,2.87,0,0,0-.68,2v4.07H64.17V45.3h1.42v1.37A2.49,2.49,0,0,1,66.73,45.59Z" transform="translate(-0.52)"/></g><g class="cls-1"><path class="cls-2" d="M82.64,46.11a3.59,3.59,0,0,1,.9,2.65v4.7H82.07V48.93a2.58,2.58,0,0,0-.55-1.78A2,2,0,0,0,80,46.54a2.34,2.34,0,0,0-1.79.71,2.8,2.8,0,0,0-.66,2v4.2H76V48.93a2.53,2.53,0,0,0-.55-1.78,2,2,0,0,0-1.56-.61,2.34,2.34,0,0,0-1.79.71,2.8,2.8,0,0,0-.66,2v4.2H70V45.3h1.42v1.21a2.89,2.89,0,0,1,1.17-1,3.92,3.92,0,0,1,1.65-.33,3.57,3.57,0,0,1,1.69.39,2.68,2.68,0,0,1,1.14,1.12,3.19,3.19,0,0,1,1.29-1.11,4.12,4.12,0,0,1,1.85-.4A3.33,3.33,0,0,1,82.64,46.11Z" transform="translate(-0.52)"/><path class="cls-2" d="M85.85,43.45a.91.91,0,0,1-.29-.68.94.94,0,0,1,.29-.68,1,1,0,0,1,.71-.29,1,1,0,0,1,.72.27.88.88,0,0,1,.28.67.94.94,0,0,1-.28.7,1,1,0,0,1-1.43,0Zm0,1.85H87.3v8.16H85.82Z" transform="translate(-0.52)"/></g><g class="cls-1"><path class="cls-2" d="M96.63,46.12a3.54,3.54,0,0,1,.92,2.64v4.7H96.07V48.93a2.49,2.49,0,0,0-.57-1.78,2.14,2.14,0,0,0-1.63-.61,2.55,2.55,0,0,0-1.9.71,2.72,2.72,0,0,0-.69,2v4.2H89.8V45.3h1.42v1.23a2.92,2.92,0,0,1,1.21-1,4.14,4.14,0,0,1,1.73-.34A3.36,3.36,0,0,1,96.63,46.12Z" transform="translate(-0.52)"/></g><g class="cls-1"><path class="cls-2" d="M107.3,49.87h-6.63a2.57,2.57,0,0,0,1,1.73,3.08,3.08,0,0,0,2,.66,3,3,0,0,0,2.36-1l.81,1a3.48,3.48,0,0,1-1.37,1,5.21,5.21,0,0,1-4.14-.19,3.81,3.81,0,0,1-1.55-1.48,4.33,4.33,0,0,1-.54-2.16,4.27,4.27,0,0,1,.53-2.14,3.8,3.8,0,0,1,1.46-1.49,4.2,4.2,0,0,1,2.1-.53,4.14,4.14,0,0,1,2.09.53,3.73,3.73,0,0,1,1.43,1.49,4.45,4.45,0,0,1,.52,2.18A4.21,4.21,0,0,1,107.3,49.87Zm-5.79-2.75a2.66,2.66,0,0,0-.84,1.69h5.24a2.62,2.62,0,0,0-.84-1.69,2.57,2.57,0,0,0-1.78-.65A2.52,2.52,0,0,0,101.51,47.12Z" transform="translate(-0.52)"/></g><g class="cls-1"><path class="cls-2" d="M113,42.68h1.54v9.44h5.83v1.34H113Z" transform="translate(-0.52)"/></g><g class="cls-1"><path class="cls-2" d="M127.13,46.05a3.22,3.22,0,0,1,.9,2.48v4.93h-1.4V52.38a2.35,2.35,0,0,1-1.06.87,4,4,0,0,1-1.62.3,3.41,3.41,0,0,1-2.2-.66,2.28,2.28,0,0,1,0-3.47,3.87,3.87,0,0,1,2.5-.66h2.34v-.29A1.87,1.87,0,0,0,126,47a2.35,2.35,0,0,0-1.64-.51,4.26,4.26,0,0,0-1.41.24,3.54,3.54,0,0,0-1.17.64l-.62-1.11a4.41,4.41,0,0,1,1.51-.78,6.29,6.29,0,0,1,1.86-.27A3.72,3.72,0,0,1,127.13,46.05Zm-1.47,6a2.16,2.16,0,0,0,.89-1.08V49.83h-2.28c-1.25,0-1.88.42-1.88,1.26a1.15,1.15,0,0,0,.48,1,2.22,2.22,0,0,0,1.32.35A2.77,2.77,0,0,0,125.66,52Z" transform="translate(-0.52)"/><path class="cls-2" d="M136.92,45.74a3.84,3.84,0,0,1,1.47,1.47,4.36,4.36,0,0,1,.53,2.17,4.43,4.43,0,0,1-.53,2.18A3.84,3.84,0,0,1,136.92,53a4.31,4.31,0,0,1-2.13.52,3.92,3.92,0,0,1-1.66-.35,3.21,3.21,0,0,1-1.25-1v1.29h-1.42V42h1.48v4.5a3.17,3.17,0,0,1,1.23-1,3.94,3.94,0,0,1,1.62-.33A4.42,4.42,0,0,1,136.92,45.74Zm-.84,6.16a2.6,2.6,0,0,0,1-1,3.08,3.08,0,0,0,.36-1.5,3,3,0,0,0-.36-1.5,2.58,2.58,0,0,0-1-1,2.94,2.94,0,0,0-2.82,0,2.51,2.51,0,0,0-1,1,3,3,0,0,0-.36,1.5,3.08,3.08,0,0,0,.36,1.5,2.54,2.54,0,0,0,1,1,2.94,2.94,0,0,0,2.82,0Z" transform="translate(-0.52)"/><path class="cls-2" d="M141.07,53.28a4.26,4.26,0,0,1-1.45-.68l.62-1.17a4.54,4.54,0,0,0,1.31.61,5.17,5.17,0,0,0,1.56.23c1.29,0,1.94-.37,1.94-1.1a.71.71,0,0,0-.27-.59,1.72,1.72,0,0,0-.65-.32c-.26-.06-.63-.14-1.12-.22a11.48,11.48,0,0,1-1.61-.35,2.58,2.58,0,0,1-1.07-.68,1.91,1.91,0,0,1-.44-1.34,2.11,2.11,0,0,1,.92-1.78,4.12,4.12,0,0,1,2.48-.67,7,7,0,0,1,1.63.2,4.16,4.16,0,0,1,1.34.54l-.63,1.17a4.25,4.25,0,0,0-2.35-.65,2.8,2.8,0,0,0-1.44.31.93.93,0,0,0-.49.82.77.77,0,0,0,.28.63,1.74,1.74,0,0,0,.68.34c.27.07.66.15,1.15.24a12.78,12.78,0,0,1,1.59.37,2.3,2.3,0,0,1,1,.65,1.81,1.81,0,0,1,.43,1.29,2.05,2.05,0,0,1-.94,1.77,4.52,4.52,0,0,1-2.58.65A6.87,6.87,0,0,1,141.07,53.28Z" transform="translate(-0.52)"/></g></g></g><path id="Path_1510" data-name="Path 1510" class="cls-2" d="M36.06,17.77A17.77,17.77,0,1,1,18.26,0a17.78,17.78,0,0,1,17.8,17.77ZM29.13,9.21l-4,1.64a3.1,3.1,0,0,1-2.32,0,12.32,12.32,0,0,0-4.37-.78,12.67,12.67,0,0,0-4.35.78,3.2,3.2,0,0,1-2.32,0l-4-1.64V19.64C8.14,24.33,12.83,28,18.45,28s10.33-3.68,10.67-8.37Z" transform="translate(-0.52)"/><g id="Group_393" data-name="Group 393"><g id="Group_388" data-name="Group 388"><g id="Group_387" data-name="Group 387"><path id="Path_1511" data-name="Path 1511" class="cls-2" d="M41.55,9.5A1.67,1.67,0,0,1,43,7.6h0a1.85,1.85,0,0,1,.47,0h11.2A6,6,0,0,1,59,9.07a5.71,5.71,0,0,1,1.51,4.26A5.46,5.46,0,0,1,60,15.58a5,5,0,0,1-1.45,1.82,5.67,5.67,0,0,1,1.9,2.11,6.18,6.18,0,0,1,.64,2.8,6.05,6.05,0,0,1-1.63,4.56,6.61,6.61,0,0,1-4.74,1.57H43.44A1.68,1.68,0,0,1,41.55,27a1.93,1.93,0,0,1,0-.48ZM54.32,25.05a3.57,3.57,0,0,0,2.44-.6,3.24,3.24,0,0,0,.63-2.33,2.94,2.94,0,0,0-.73-2,2.54,2.54,0,0,0-2-.85H49.38c-1.08,0-1.62-.56-1.62-1.69s.54-1.69,1.62-1.69h4.88a2.48,2.48,0,0,0,1.86-.71,2.43,2.43,0,0,0,.68-1.75,2.68,2.68,0,0,0-.54-1.93,3.12,3.12,0,0,0-2.1-.5h-8.9V25.06Z" transform="translate(-0.52)"/><path id="Path_1512" data-name="Path 1512" class="cls-2" d="M68.39,24.64V11.3a3.38,3.38,0,0,1,3-3.75,3.48,3.48,0,0,1,.79,0H85.68a3.38,3.38,0,0,1,3.75,3,3.48,3.48,0,0,1,0,.79V24.64a3.39,3.39,0,0,1-3,3.75h0a3.48,3.48,0,0,1-.79,0H72.14a3.38,3.38,0,0,1-3.75-3A3.48,3.48,0,0,1,68.39,24.64Zm3.75-13.7V25H85.68V10.94Z" transform="translate(-0.52)"/><path id="Path_1513" data-name="Path 1513" class="cls-2" d="M98.7,9.5a1.67,1.67,0,0,1,1.41-1.9h0a1.85,1.85,0,0,1,.47,0h11.2a6,6,0,0,1,4.37,1.47,5.72,5.72,0,0,1,1.52,4.26,5.3,5.3,0,0,1-.49,2.25,5,5,0,0,1-1.45,1.82,5.67,5.67,0,0,1,1.9,2.11,6.18,6.18,0,0,1,.64,2.8,6.05,6.05,0,0,1-1.63,4.56,6.61,6.61,0,0,1-4.74,1.57H100.59A1.68,1.68,0,0,1,98.7,27a1.29,1.29,0,0,1,0-.48Zm12.77,15.55a3.57,3.57,0,0,0,2.44-.6,3.29,3.29,0,0,0,.63-2.33,3,3,0,0,0-.73-2,2.59,2.59,0,0,0-2.06-.85h-5.28c-1.07,0-1.61-.56-1.61-1.69s.54-1.69,1.61-1.69h4.92a2.45,2.45,0,0,0,1.85-.71,2.38,2.38,0,0,0,.69-1.75,2.77,2.77,0,0,0-.52-1.95,3.12,3.12,0,0,0-2.1-.5h-8.86V25Z" transform="translate(-0.52)"/><path id="Path_1514" data-name="Path 1514" class="cls-2" d="M125.54,24.64V11.3a3.39,3.39,0,0,1,3-3.75h0a3.48,3.48,0,0,1,.79,0h13.54a3.38,3.38,0,0,1,3.75,3,3.48,3.48,0,0,1,0,.79V24.64a3.38,3.38,0,0,1-3,3.75,3.48,3.48,0,0,1-.79,0H129.26a3.38,3.38,0,0,1-3.75-3,3.48,3.48,0,0,1,0-.79Zm3.75-13.7V25h13.54V10.94Z" transform="translate(-0.52)"/></g></g><g id="Group_390" data-name="Group 390"><g id="Group_389" data-name="Group 389"><path id="Path_1515" data-name="Path 1515" class="cls-2" d="M79.66,12.19H73.72v6.17Z" transform="translate(-0.52)"/></g></g><g id="Group_392" data-name="Group 392"><g id="Group_391" data-name="Group 391"><path id="Path_1516" data-name="Path 1516" class="cls-2" d="M141.49,18.17V12.23h-6.17Z" transform="translate(-0.52)"/></g></g></g><g id="Group_395" data-name="Group 395"><g id="Group_394" data-name="Group 394"><circle id="Ellipse_94" data-name="Ellipse 94" class="cls-3" cx="14.07" cy="17.73" r="1.91"/><circle id="Ellipse_95" data-name="Ellipse 95" class="cls-3" cx="21.78" cy="17.73" r="1.91"/></g></g></svg>