<svg id="Layer_1" data-name="Layer 1" xmlns="http://www.w3.org/2000/svg" viewBox="0 0 125.14 108.19"><defs><style>.cls-1{fill:#aaa;}.cls-2{fill:#0e0e0e;stroke:#aaa;stroke-miterlimit:10;stroke-width:0.71px;}.cls-3{fill:#0fc270;}</style></defs><title>changelly_new</title><path class="cls-1" d="M12.86,117.59a7.73,7.73,0,0,1,13.54-5.13L25,114a6,6,0,0,0-4.57-2.18,5.81,5.81,0,0,0,.14,11.58,6,6,0,0,0,4.48-2.23l1.48,1.34a7.68,7.68,0,0,1-13.67-4.89Z" transform="translate(-12.86 -21.49)"/><path class="cls-1" d="M29,105.13l2.2-1.1v8.7a5.61,5.61,0,0,1,5.08-2.9c3.6,0,5.7,2.42,5.7,5.94V125H39.77v-8.65c0-2.77-1.5-4.48-4.11-4.48a4.37,4.37,0,0,0-4.46,4.64V125H29Z" transform="translate(-12.86 -21.49)"/><path class="cls-1" d="M44.55,120.63c0-3.2,2.58-4.86,6.34-4.86a15.53,15.53,0,0,1,4.54.64V116c0-2.64-1.61-4-4.4-4A10.25,10.25,0,0,0,46.51,113l-.67-1.8a12.18,12.18,0,0,1,5.4-1.26,6.56,6.56,0,0,1,4.81,1.64,5.9,5.9,0,0,1,1.56,4.35V125H55.43V122.8a6.51,6.51,0,0,1-5.34,2.53C47.32,125.3,44.55,123.74,44.55,120.63Zm10.94-1.08v-1.37a15.2,15.2,0,0,0-4.33-.64c-2.77,0-4.32,1.21-4.32,3s1.72,3,3.73,3C53.26,123.53,55.49,121.89,55.49,119.55Z" transform="translate(-12.86 -21.49)"/><path class="cls-1" d="M61.37,110.15h2.2v2.58a5.61,5.61,0,0,1,5.08-2.9c3.6,0,5.69,2.42,5.69,5.94V125h-2.2v-8.65c0-2.77-1.51-4.48-4.11-4.48a4.37,4.37,0,0,0-4.46,4.64V125h-2.2Z" transform="translate(-12.86 -21.49)"/><path class="cls-1" d="M77.81,127.59l1-1.72a9.54,9.54,0,0,0,5.72,1.9c3.28,0,5.4-1.8,5.4-5.29v-1.74a7,7,0,0,1-5.83,3.14,7,7,0,1,1,5.8-11v-2.66H92.1v12.25a7.14,7.14,0,0,1-1.91,5.26,7.82,7.82,0,0,1-5.67,2A11.89,11.89,0,0,1,77.81,127.59ZM90,116.81a5.2,5.2,0,0,0-5.45-5,4.92,4.92,0,0,0-5.13,5,5,5,0,0,0,5.13,5A5.24,5.24,0,0,0,90,116.81Z" transform="translate(-12.86 -21.49)"/><path class="cls-1" d="M102.6,123.42a6.13,6.13,0,0,0,4.67-2.09l1.37,1.23a7.67,7.67,0,0,1-6.12,2.8,7.41,7.41,0,0,1-7.42-7.77c0-4.29,3-7.76,7.12-7.76,4.41,0,6.93,3.49,6.93,7.87,0,.19,0,.43,0,.78H97.36A5.22,5.22,0,0,0,102.6,123.42Zm4.35-6.71c-.27-2.72-1.8-5-4.73-5-2.55,0-4.51,2.12-4.83,5Z" transform="translate(-12.86 -21.49)"/><path class="cls-1" d="M112.27,106.1l2.2-1.1v20h-2.2Z" transform="translate(-12.86 -21.49)"/><path class="cls-1" d="M118.53,105.13l2.2-1.1v21h-2.2Z" transform="translate(-12.86 -21.49)"/><path class="cls-1" d="M123.66,128.93l.75-1.75a4.58,4.58,0,0,0,2.34.54c1.31,0,2.14-.7,3-2.79L123,110.13h2.44l5.4,12.38,4.76-12.36H138l-6.23,15.34c-1.26,3.06-2.69,4.19-4.94,4.19A6.92,6.92,0,0,1,123.66,128.93Z" transform="translate(-12.86 -21.49)"/><circle class="cls-2" cx="62.57" cy="35.73" r="35.38"/><path class="cls-3" d="M95.43,38.19c-.58,0-14.56.66-21,8-.66.74-1.24,1.45-1.78,2.11-.91.25-4.19,1.14-5.61,1.42a2.59,2.59,0,0,0-1.65,1.1c-1,1.42-2.7,4.37-2.77,4.47L61.4,57.37l2.26-1c1.48-.63,4-1.29,4.86-.76a.72.72,0,0,1,.33.66h0a6.79,6.79,0,0,0,.84,3.08l-.31.25a3.44,3.44,0,0,0-1.3,2.85V66.4H72a3.46,3.46,0,0,0,2.85-1.3l.25-.3a7,7,0,0,0,3.08.83h0a.75.75,0,0,1,.66.33c.53.89-.13,3.38-.76,4.86l-1,2.26,2.13-1.24c.13-.08,3.05-1.78,4.47-2.77a2.7,2.7,0,0,0,1.1-1.66c.28-1.45,1.17-4.7,1.42-5.61.66-.54,1.37-1.12,2.11-1.78,7.27-6.41,7.93-20.39,8-21v-.89Zm-30.09,16-.18,0c.54-.86,1.15-1.85,1.58-2.51a1,1,0,0,1,.63-.41c.92-.18,2.44-.59,3.74-.92a14.76,14.76,0,0,0-2,3.82A5.53,5.53,0,0,0,65.34,54.15Zm8.23,9.93a1.77,1.77,0,0,1-1.5.69H70.68L75.45,59l-5.76,4.8V62.38a1.78,1.78,0,0,1,.68-1.5l5.08-4a2.77,2.77,0,0,1,1.12-.54l2.09-.51-.51,2.09A3.12,3.12,0,0,1,77.62,59Zm9.64,3a1.07,1.07,0,0,1-.41.64c-.64.43-1.63,1-2.52,1.57a.88.88,0,0,0,0-.15,5.63,5.63,0,0,0,0-3.84,14.69,14.69,0,0,0,3.82-1.95C83.79,64.62,83.38,66.17,83.21,67.08Zm4-8.28c-6.08,5.33-8.62,5.87-11.13,4.7L78.86,60a4.45,4.45,0,0,0,.86-1.76l1.12-4.62-4.62,1.12a4.49,4.49,0,0,0-1.73.83L71,58.34c-1.17-2.52-.66-5.06,4.7-11.13,5.06-5.75,15.76-7.07,18.91-7.35C94.31,43,93,53.74,87.25,58.8Z" transform="translate(-12.86 -21.49)"/><path class="cls-3" d="M86,52.7a4.14,4.14,0,0,0,3-1.25,4.26,4.26,0,1,0-6-6,4.22,4.22,0,0,0,0,6A4.25,4.25,0,0,0,86,52.7Zm-1.85-6.13A2.62,2.62,0,0,1,86,45.81a2.59,2.59,0,0,1,1.86.76,2.64,2.64,0,1,1-3.74,3.74,2.59,2.59,0,0,1-.76-1.86A2.72,2.72,0,0,1,84.15,46.57Z" transform="translate(-12.86 -21.49)"/><path class="cls-3" d="M74.29,70.31a7.29,7.29,0,0,1-1,.84,15.39,15.39,0,0,1-2.16,1.37,19.17,19.17,0,0,1-2.33,1,16.32,16.32,0,0,1-2.44.66c-.41.11-.84.16-1.25.23l-.63.08-.31,0-.3,0-.64.06-.64,0c-.43,0-.83,0-1.27.05a29.12,29.12,0,0,1-3.73-.18c.15-.2.28-.4.43-.61A14.55,14.55,0,0,0,59.09,72a27.7,27.7,0,0,0,1.45-4.06A40.31,40.31,0,0,1,61.83,64a37.3,37.3,0,0,1,1.73-3.82,16.1,16.1,0,0,0-1.27,1.71,20.76,20.76,0,0,0-1.12,1.83,29.06,29.06,0,0,0-1.78,3.89,33.51,33.51,0,0,1-1.62,3.76,19.13,19.13,0,0,1-2.29,3.33l-.92,1.09L56,76a30.76,30.76,0,0,0,5.36.33c.46,0,.89,0,1.35-.07l.66-.08L64,76c.46,0,.89-.15,1.32-.23s.89-.2,1.32-.33.87-.25,1.3-.41.84-.33,1.24-.51a16.11,16.11,0,0,0,2.37-1.32,13.54,13.54,0,0,0,2.05-1.72,9,9,0,0,0,1.56-2.17A10.45,10.45,0,0,1,74.29,70.31Z" transform="translate(-12.86 -21.49)"/></svg>