<?xml version="1.0" encoding="utf-8"?>
<!-- Generator: Adobe Illustrator 23.0.3, SVG Export Plug-In . SVG Version: 6.00 Build 0)  -->
<svg version="1.1" id="Layer_1" xmlns="http://www.w3.org/2000/svg" xmlns:xlink="http://www.w3.org/1999/xlink" x="0px" y="0px"
	 viewBox="0 0 677.6 177.7" style="enable-background:new 0 0 677.6 177.7;" xml:space="preserve">
<style type="text/css">
	.st0{fill:none;stroke:#AAAAAA;stroke-width:4;stroke-miterlimit:10;}
	.st1{fill:#AAAAAA;}
	.st2{fill:#0FC270;}
</style>
<path class="st0" d="M594.6,158H83.4c-4.1,0-7.4-3.3-7.4-7.4V31.4c0-4.1,3.3-7.4,7.4-7.4h511.2c4.1,0,7.4,3.3,7.4,7.4v119.2
	C602,154.7,598.7,158,594.6,158z"/>
<g>
	<g>
		<path class="st1" d="M237.4,89.2c0-11.2,8.8-20.8,20.4-20.8c7.6,0,12.2,3.2,15.9,7.1l-3.7,4c-3.2-3.3-6.8-5.8-12.2-5.8
			c-8.1,0-14.2,6.8-14.2,15.5c0,8.6,6.3,15.5,14.6,15.5c5.1,0,8.8-2.6,12-6l4,3.6c-4,4.5-8.8,7.7-16.3,7.7
			C246.2,110,237.4,100.5,237.4,89.2z"/>
		<path class="st1" d="M280.7,55.8l5.9-2.9v23.3c2.6-4.3,6.8-7.8,13.6-7.8c9.6,0,15.3,6.5,15.3,15.9V109h-5.9V85.8c0-7.4-4-12-11-12
			c-6.8,0-11.9,5-11.9,12.4V109h-5.9V55.8z"/>
		<path class="st1" d="M322.3,97.4c0-8.6,6.9-13,17-13c5.1,0,8.6,0.7,12.2,1.7v-1.2c0-7.1-4.3-10.8-11.8-10.8
			c-4.7,0-8.4,1.2-12.1,2.9l-1.8-4.8c4.4-2,8.6-3.4,14.5-3.4c5.6,0,10,1.5,12.9,4.4c2.7,2.7,4.2,6.6,4.2,11.7v24.3h-5.8v-5.9
			c-2.7,3.5-7.3,6.8-14.3,6.8C329.7,109.9,322.3,105.7,322.3,97.4z M351.6,94.5v-3.7c-2.9-0.9-6.8-1.7-11.6-1.7
			c-7.4,0-11.6,3.2-11.6,8.1c0,5,4.6,7.9,10,7.9C345.6,105.1,351.6,100.7,351.6,94.5z"/>
		<path class="st1" d="M367.4,69.3h5.9v6.9c2.6-4.3,6.8-7.8,13.6-7.8c9.6,0,15.3,6.5,15.3,15.9V109h-5.9V85.8c0-7.4-4-12-11-12
			c-6.8,0-11.9,5-11.9,12.4V109h-5.9V69.3z"/>
		<path class="st1" d="M411.4,116l2.7-4.6c4.5,3.3,9.6,5.1,15.3,5.1c8.8,0,14.5-4.8,14.5-14.2v-4.7c-3.5,4.6-8.3,8.4-15.6,8.4
			c-9.6,0-18.7-7.1-18.7-18.8s9.2-18.8,18.7-18.8c7.5,0,12.3,3.7,15.5,8v-7.1h5.9v32.8c0,6.2-1.9,10.9-5.1,14.1
			c-3.5,3.5-8.8,5.3-15.2,5.3C422.8,121.5,416.7,119.7,411.4,116z M444,87.1c0-8.1-7.1-13.5-14.6-13.5c-7.6,0-13.7,5.3-13.7,13.5
			c0,8,6.4,13.5,13.7,13.5C436.9,100.7,444,95.3,444,87.1z"/>
		<path class="st1" d="M477.8,104.8c5.5,0,9.3-2.2,12.5-5.6l3.7,3.3c-4,4.5-8.8,7.5-16.4,7.5c-10.9,0-19.9-8.4-19.9-20.8
			c0-11.5,8.1-20.8,19.1-20.8c11.8,0,18.6,9.4,18.6,21.1c0,0.5,0,1.2-0.1,2.1h-31.5C464.7,100,470.8,104.8,477.8,104.8z M489.5,86.8
			c-0.7-7.3-4.8-13.4-12.7-13.4c-6.8,0-12.1,5.7-13,13.4H489.5z"/>
		<path class="st1" d="M503.7,58.4l5.9-2.9v53.6h-5.9V58.4z"/>
		<path class="st1" d="M520.5,55.8l5.9-2.9V109h-5.9V55.8z"/>
		<path class="st1" d="M534.2,119.6l2-4.7c1.9,1,3.7,1.4,6.3,1.4c3.5,0,5.8-1.9,8.1-7.5l-18.1-39.6h6.5l14.5,33.2l12.7-33.1h6.3
			l-16.7,41.1c-3.4,8.2-7.2,11.2-13.2,11.2C539.4,121.6,537,120.9,534.2,119.6z"/>
	</g>
	<g>
		<path class="st2" d="M220.7,35.1c-1.7,0.1-41.2,1.9-59.4,22.5c-1.9,2.1-3.5,4.1-5,6c-2.6,0.7-11.9,3.2-15.9,4
			c-1.9,0.4-3.5,1.4-4.7,3.1c-2.8,4-7.6,12.4-7.8,12.7l-3.5,6l6.4-2.8c4.2-1.8,11.2-3.7,13.7-2.2c0.4,0.3,0.9,0.6,0.9,1.9l0,0
			c0.1,2.9,0.9,5.8,2.4,8.7l-0.9,0.7c-2.4,1.9-3.8,4.9-3.7,8.1V115h11.2c3.1,0.1,6.1-1.2,8.1-3.7l0.7-0.9c2.9,1.5,5.8,2.3,8.7,2.4
			l0,0c1.2,0.1,1.6,0.5,1.9,0.9c1.5,2.5-0.4,9.6-2.2,13.7l-2.8,6.4l6-3.5c0.4-0.2,8.6-5,12.7-7.8c1.6-1.1,2.7-2.7,3.1-4.7
			c0.8-4.1,3.3-13.3,4-15.9c1.9-1.5,3.9-3.2,6-5c20.6-18.1,22.4-57.7,22.5-59.4V35L220.7,35.1z M135.5,80.3c-0.1,0-0.4,0.1-0.5,0.1
			c1.5-2.4,3.2-5.3,4.5-7.1c0.4-0.6,1.1-1,1.8-1.2c2.6-0.5,6.9-1.7,10.6-2.6c-2.7,4-4.5,7.6-5.5,10.8
			C143.8,79.1,140.2,79.1,135.5,80.3z M158.8,108.4c-1,1.3-2.6,2-4.2,1.9h-0.1h-3.9L164.1,94l-16.3,13.6v-3.9v-0.1
			c-0.1-1.7,0.6-3.2,1.9-4.2L164.1,88c0.9-0.7,2-1.3,3.2-1.5l5.9-1.4l-1.4,5.9c-0.3,1.2-0.8,2.2-1.5,3.2L158.8,108.4z M186,116.9
			c-0.1,0.7-0.6,1.4-1.2,1.8c-1.8,1.2-4.6,2.9-7.1,4.5c0.1-0.1,0.1-0.3,0.1-0.4c1.2-4.7,1.2-8.3,0-10.9c3.2-1,6.8-2.8,10.8-5.5
			C187.7,109.9,186.6,114.3,186,116.9z M197.5,93.5c-17.2,15.1-24.4,16.6-31.5,13.3l7.8-9.9c1.2-1.4,2-3.2,2.4-5l3.2-13.1L166.3,82
			c-1.8,0.4-3.5,1.3-4.9,2.4l-9.9,7.8c-3.3-7.1-1.9-14.3,13.3-31.5c14.3-16.3,44.6-20,53.5-20.8C217.5,48.9,213.8,79.1,197.5,93.5z"
			/>
		<path class="st2" d="M194,76.2c3.1,0,6.2-1.2,8.5-3.5c4.7-4.7,4.7-12.3,0-17.1c-4.7-4.7-12.3-4.7-17.1,0c-2.3,2.3-3.5,5.3-3.5,8.5
			c0,3.2,1.2,6.3,3.5,8.5C187.8,75,190.9,76.2,194,76.2z M188.7,58.9c1.4-1.4,3.4-2.2,5.3-2.2c1.9,0,3.8,0.7,5.3,2.2
			c2.9,2.9,2.9,7.6,0,10.6c-2.9,2.9-7.6,2.9-10.6,0c-1.4-1.4-2.2-3.3-2.2-5.3C186.6,62.2,187.3,60.3,188.7,58.9z"/>
		<path class="st2" d="M160.8,126.1c-0.9,0.9-1.8,1.7-2.8,2.4c-1.9,1.5-4,2.7-6.1,3.9c-2.2,1.1-4.3,2-6.6,2.8
			c-2.2,0.8-4.6,1.4-6.9,1.9c-1.2,0.3-2.4,0.4-3.5,0.6l-1.8,0.2l-0.9,0.1l-0.9,0.1l-1.8,0.1l-1.8,0.1c-1.2,0.1-2.4,0.1-3.6,0.1
			c-3.5,0.1-7.1-0.1-10.6-0.5c0.4-0.6,0.8-1.2,1.2-1.7c1.2-1.7,2.2-3.6,3-5.5c1.7-3.7,3-7.6,4.1-11.5c1.1-3.8,2.2-7.5,3.7-11.2
			s3-7.3,4.9-10.8c-1.3,1.5-2.5,3.2-3.6,4.8c-1.2,1.7-2.2,3.4-3.2,5.2c-1.9,3.5-3.7,7.3-5,11c-1.4,3.7-2.9,7.3-4.6,10.6
			c-1.8,3.4-4,6.5-6.5,9.4l-2.6,3.1l4,0.6c5,0.7,10.1,1.1,15.2,0.9c1.3-0.1,2.5-0.1,3.8-0.2l1.9-0.2l1.9-0.3
			c1.3-0.1,2.5-0.4,3.7-0.6c1.2-0.3,2.5-0.6,3.7-0.9c1.2-0.4,2.4-0.7,3.7-1.2c1.2-0.4,2.4-0.9,3.5-1.4c2.3-1.1,4.6-2.3,6.7-3.7
			c2.1-1.4,4.1-3.1,5.8-4.9c1.7-1.9,3.3-3.8,4.4-6.1C162.5,124.3,161.7,125.2,160.8,126.1z"/>
	</g>
</g>
</svg>
