<svg id="Layer_1" data-name="Layer 1" xmlns="http://www.w3.org/2000/svg" viewBox="0 0 99.77 100"><defs><style>.cls-1{fill:#afafaf;}.cls-2,.cls-3{fill:none;}.cls-3{stroke:#d75a32;stroke-width:4.44px;}</style></defs><title>profile</title><g id="Group_352" data-name="Group 352"><g id="Group_305" data-name="Group 305"><path id="Path_1415" data-name="Path 1415" class="cls-1" d="M1060.56,500.57a48.49,48.49,0,1,0,48.38,48.49h0A48.49,48.49,0,0,0,1060.56,500.57Zm0,14.14A23.24,23.24,0,1,1,1037.38,538h0A23.24,23.24,0,0,1,1060.56,514.71Zm0,74.76a40.17,40.17,0,0,1-32.21-16.22,68.65,68.65,0,0,1,64.42,0A40.19,40.19,0,0,1,1060.56,589.47Z" transform="translate(-1010.62 -499)"/></g></g><g id="Ellipse_2" data-name="Ellipse 2"><ellipse class="cls-2" cx="49.88" cy="50" rx="49.88" ry="50"/><ellipse class="cls-3" cx="49.88" cy="50" rx="47.66" ry="47.78"/></g></svg>