<svg id="Layer_1" data-name="Layer 1" xmlns="http://www.w3.org/2000/svg" viewBox="0 0 100 100"><defs><style>.cls-1{fill:#afafaf;}.cls-2{fill:#d75a32;}</style></defs><title>scan_bobo</title><path id="Path_1470" data-name="Path 1470" class="cls-1" d="M934.15,534.84a4.57,4.57,0,0,1-4.57-4.57v-9.14a10.67,10.67,0,0,1,10.67-10.67h9.13a4.57,4.57,0,0,1,0,9.14h-9.14a1.52,1.52,0,0,0-1.53,1.52v9.15A4.57,4.57,0,0,1,934.15,534.84Z" transform="translate(-910.34 -490.84)"/><path id="Path_1471" data-name="Path 1471" class="cls-1" d="M986,534.84a4.57,4.57,0,0,1-4.57-4.57v-9.14a1.52,1.52,0,0,0-1.53-1.52h-9.14a4.58,4.58,0,0,1,0-9.15h9.14a10.67,10.67,0,0,1,10.67,10.67h0v9.14A4.56,4.56,0,0,1,986,534.84Z" transform="translate(-910.34 -490.84)"/><path id="Path_1472" data-name="Path 1472" class="cls-1" d="M949.38,571.41h-9.14a10.66,10.66,0,0,1-10.67-10.67h0V551.6a4.57,4.57,0,0,1,9.14,0v9.14a1.53,1.53,0,0,0,1.53,1.53h9.14a4.57,4.57,0,0,1,.23,9.14Z" transform="translate(-910.34 -490.84)"/><path id="Path_1473" data-name="Path 1473" class="cls-1" d="M979.87,571.41h-9.14a4.57,4.57,0,0,1,0-9.14h9.14a1.52,1.52,0,0,0,1.52-1.52V551.6a4.58,4.58,0,0,1,9.15,0v9.15A10.67,10.67,0,0,1,979.87,571.41Z" transform="translate(-910.34 -490.84)"/><path id="Path_1474" data-name="Path 1474" class="cls-1" d="M993.15,590.84H927.53a17,17,0,0,1-17.19-16.68V507.51a17,17,0,0,1,17.19-16.67h65.62a17,17,0,0,1,17.19,16.67v66.65A17,17,0,0,1,993.15,590.84Zm-65.62-90.91a7.72,7.72,0,0,0-7.82,7.58v66.65a7.72,7.72,0,0,0,7.82,7.58h65.62a7.71,7.71,0,0,0,7.82-7.58V507.51a7.71,7.71,0,0,0-7.82-7.58Z" transform="translate(-910.34 -490.84)"/><circle id="Ellipse_76" data-name="Ellipse 76" class="cls-2" cx="49.72" cy="50.08" r="8.57"/></svg>