<svg id="Layer_1" data-name="Layer 1" xmlns="http://www.w3.org/2000/svg" viewBox="0 0 94.1 94.1"><defs><style>.cls-1,.cls-2{fill:none;stroke-width:6.01px;}.cls-1{stroke:#afafaf;stroke-miterlimit:10;}.cls-2{stroke:#d75a32;}</style></defs><title>settings</title><path class="cls-1" d="M79.14,61.52a6.63,6.63,0,0,0,1.32,7.29l.24.24a8,8,0,0,1,0,11.33h0a8,8,0,0,1-11.32,0h0l-.24-.24a6.66,6.66,0,0,0-11.29,4.73v.68a8,8,0,0,1-16,0v-.36a6.62,6.62,0,0,0-4.32-6,6.63,6.63,0,0,0-7.29,1.32L30,80.7a8,8,0,0,1-11.33,0h0a8,8,0,0,1,0-11.32h0l.24-.24a6.66,6.66,0,0,0-4.73-11.29h-.68a8,8,0,0,1,0-16h.36a6.62,6.62,0,0,0,6-4.32,6.63,6.63,0,0,0-1.32-7.29L18.32,30a8,8,0,0,1,0-11.33h0a8,8,0,0,1,11.32,0h0l.24.24a6.63,6.63,0,0,0,7.29,1.32h.32a6.61,6.61,0,0,0,4-6v-.68a8,8,0,0,1,16,0v.36a6.66,6.66,0,0,0,11.29,4.73l.24-.24a8,8,0,0,1,11.33,0h0a8,8,0,0,1,0,11.32h0l-.24.24a6.63,6.63,0,0,0-1.32,7.29v.32a6.61,6.61,0,0,0,6.05,4h.68a8,8,0,1,1,0,16h-.36A6.61,6.61,0,0,0,79.14,61.52Z" transform="translate(-2.46 -2.46)"/><circle class="cls-2" cx="47.05" cy="47.05" r="12.01"/></svg>