<svg id="Layer_1" data-name="Layer 1" xmlns="http://www.w3.org/2000/svg" viewBox="0 0 97.38 97.5"><defs><style>.cls-1,.cls-2{fill:none;stroke-width:9.37px;}.cls-1{stroke:#afafaf;stroke-miterlimit:10;}.cls-2{stroke:#d75a32;}</style></defs><title>settings</title><path class="cls-1" d="M79.22,61.55a6.66,6.66,0,0,0,1.29,7.27l.24.23a8,8,0,0,1,0,11.37h0a8,8,0,0,1-11.37,0h0l-.24-.23a6.4,6.4,0,0,0-7.26-1.29,6.53,6.53,0,0,0-4,6.09v.7a8,8,0,0,1-8,8,8.05,8.05,0,0,1-8-8v-.47a6.74,6.74,0,0,0-4.34-6.09,6.64,6.64,0,0,0-7.26,1.29l-.24.35a8,8,0,0,1-11.37,0h0a8,8,0,0,1,0-11.37h0l.24-.23a6.45,6.45,0,0,0,1.29-7.27,6.54,6.54,0,0,0-6.1-4h-.46a8,8,0,0,1-8-8,8.06,8.06,0,0,1,8-8h.35a6.72,6.72,0,0,0,6.09-4.33,6.63,6.63,0,0,0-1.29-7.27l-.35-.23a8,8,0,0,1,0-11.37h0a8,8,0,0,1,11.37,0h0l.23.23a6.42,6.42,0,0,0,7.27,1.29h.35a6.52,6.52,0,0,0,4-6.09v-.7a8,8,0,0,1,15.94,0v.35a6.65,6.65,0,0,0,11.25,4.8l.23-.23a8,8,0,0,1,11.37,0h0a8,8,0,0,1,0,11.37h0l-.23.23A6.43,6.43,0,0,0,79,37.3v.35a6.52,6.52,0,0,0,6.09,4h.7a8,8,0,0,1,0,15.94h-.35A6.9,6.9,0,0,0,79.22,61.55Z" transform="translate(-1.06 -0.85)"/><circle class="cls-2" cx="48.63" cy="48.75" r="11.48"/></svg>