<svg xmlns="http://www.w3.org/2000/svg" xmlns:xlink="http://www.w3.org/1999/xlink" viewBox="0 0 412 198.4"><defs><style>.cls-1{fill:none;}.cls-2{isolation:isolate;}.cls-3{clip-path:url(#clip-path);}.cls-4{opacity:0.35;}.cls-10,.cls-13,.cls-15,.cls-17,.cls-18,.cls-19,.cls-22,.cls-23,.cls-24,.cls-27,.cls-28,.cls-29,.cls-32,.cls-33,.cls-34,.cls-35,.cls-36,.cls-38,.cls-40,.cls-42,.cls-44,.cls-47,.cls-49,.cls-5,.cls-50,.cls-51,.cls-53,.cls-54,.cls-57,.cls-58,.cls-59,.cls-6,.cls-62,.cls-7{opacity:0.5;}.cls-10,.cls-11,.cls-12,.cls-13,.cls-14,.cls-15,.cls-16,.cls-17,.cls-18,.cls-19,.cls-20,.cls-21,.cls-22,.cls-23,.cls-24,.cls-25,.cls-26,.cls-27,.cls-28,.cls-29,.cls-30,.cls-31,.cls-32,.cls-33,.cls-34,.cls-35,.cls-36,.cls-37,.cls-38,.cls-39,.cls-40,.cls-41,.cls-42,.cls-43,.cls-44,.cls-45,.cls-46,.cls-47,.cls-48,.cls-49,.cls-5,.cls-50,.cls-51,.cls-52,.cls-53,.cls-54,.cls-55,.cls-56,.cls-57,.cls-58,.cls-59,.cls-6,.cls-60,.cls-61,.cls-62,.cls-63,.cls-65,.cls-67,.cls-68,.cls-69,.cls-7,.cls-70,.cls-71,.cls-8,.cls-9,.cls-91{mix-blend-mode:screen;}.cls-5{fill:url(#radial-gradient);}.cls-6{fill:url(#radial-gradient-2);}.cls-7{fill:url(#radial-gradient-3);}.cls-8{fill:url(#radial-gradient-4);}.cls-9{fill:url(#radial-gradient-5);}.cls-10{fill:url(#radial-gradient-6);}.cls-11{fill:url(#radial-gradient-7);}.cls-12{fill:url(#radial-gradient-8);}.cls-13{fill:url(#radial-gradient-9);}.cls-14{fill:url(#radial-gradient-10);}.cls-15{fill:url(#radial-gradient-11);}.cls-16{fill:url(#radial-gradient-12);}.cls-17{fill:url(#radial-gradient-13);}.cls-18{fill:url(#radial-gradient-14);}.cls-19{fill:url(#radial-gradient-15);}.cls-20{fill:url(#radial-gradient-16);}.cls-21{fill:url(#radial-gradient-17);}.cls-22{fill:url(#radial-gradient-18);}.cls-23{fill:url(#radial-gradient-19);}.cls-24{fill:url(#radial-gradient-20);}.cls-25{fill:url(#radial-gradient-21);}.cls-26{fill:url(#radial-gradient-22);}.cls-27{fill:url(#radial-gradient-23);}.cls-28{fill:url(#radial-gradient-24);}.cls-29{fill:url(#radial-gradient-25);}.cls-30{fill:url(#radial-gradient-26);}.cls-31{fill:url(#radial-gradient-27);}.cls-32{fill:url(#radial-gradient-28);}.cls-33{fill:url(#radial-gradient-29);}.cls-34{fill:url(#radial-gradient-30);}.cls-35{fill:url(#radial-gradient-31);}.cls-36{fill:url(#radial-gradient-32);}.cls-37{fill:url(#radial-gradient-33);}.cls-38{fill:url(#radial-gradient-34);}.cls-39{fill:url(#radial-gradient-35);}.cls-40{fill:url(#radial-gradient-36);}.cls-41{fill:url(#radial-gradient-37);}.cls-42{fill:url(#radial-gradient-38);}.cls-43{fill:url(#radial-gradient-39);}.cls-44{fill:url(#radial-gradient-40);}.cls-45{fill:url(#radial-gradient-41);}.cls-46{fill:url(#radial-gradient-42);}.cls-47{fill:url(#radial-gradient-43);}.cls-48{fill:url(#radial-gradient-44);}.cls-49{fill:url(#radial-gradient-45);}.cls-50{fill:url(#radial-gradient-46);}.cls-51{fill:url(#radial-gradient-47);}.cls-52{fill:url(#radial-gradient-48);}.cls-53{fill:url(#radial-gradient-49);}.cls-54{fill:url(#radial-gradient-50);}.cls-55{fill:url(#radial-gradient-51);}.cls-56{fill:url(#radial-gradient-52);}.cls-57{fill:url(#radial-gradient-53);}.cls-58{fill:url(#radial-gradient-54);}.cls-59{fill:url(#radial-gradient-55);}.cls-60{fill:url(#radial-gradient-56);}.cls-61{fill:url(#radial-gradient-57);}.cls-62{fill:url(#radial-gradient-58);}.cls-63{fill:url(#linear-gradient);}.cls-64,.cls-87,.cls-89,.cls-92{mix-blend-mode:multiply;}.cls-64{fill:url(#linear-gradient-2);}.cls-65{fill:url(#radial-gradient-59);}.cls-66{fill:url(#linear-gradient-3);}.cls-67{fill:url(#linear-gradient-4);}.cls-68{fill:url(#linear-gradient-5);}.cls-69{fill:url(#linear-gradient-6);}.cls-70{fill:url(#linear-gradient-7);}.cls-71{fill:url(#linear-gradient-8);}.cls-72{fill:url(#linear-gradient-9);}.cls-73{fill:url(#linear-gradient-10);}.cls-74{fill:url(#linear-gradient-11);}.cls-75{fill:url(#linear-gradient-12);}.cls-76{fill:url(#linear-gradient-13);}.cls-77{fill:url(#linear-gradient-14);}.cls-78{fill:url(#linear-gradient-15);}.cls-79{fill:url(#linear-gradient-16);}.cls-80{fill:url(#linear-gradient-17);}.cls-81{fill:url(#linear-gradient-18);}.cls-82{fill:url(#linear-gradient-19);}.cls-83{fill:url(#linear-gradient-20);}.cls-84{fill:url(#linear-gradient-21);}.cls-85{fill:url(#linear-gradient-22);}.cls-86{fill:url(#linear-gradient-23);}.cls-87,.cls-89,.cls-92{opacity:0.45;}.cls-87{fill:url(#linear-gradient-24);}.cls-88{fill:url(#linear-gradient-25);}.cls-89{fill:url(#linear-gradient-26);}.cls-90{fill:url(#linear-gradient-27);}.cls-91{fill:url(#linear-gradient-28);}.cls-92{fill:url(#linear-gradient-29);}.cls-93{opacity:0.8;}.cls-94{fill:url(#linear-gradient-30);}.cls-95{fill:url(#linear-gradient-31);}.cls-96{fill:url(#linear-gradient-32);}.cls-97{fill:url(#linear-gradient-33);}.cls-98{fill:url(#linear-gradient-34);}.cls-99{fill:url(#linear-gradient-35);}.cls-100{fill:url(#linear-gradient-36);}</style><clipPath id="clip-path" transform="translate(0.5 3.37)"><rect class="cls-1" x="0.5" y="-0.57" width="411" height="130"/></clipPath><radialGradient id="radial-gradient" cx="-320.08" cy="354.79" r="0.5" gradientTransform="matrix(-0.94, 0.54, 0.6, 0.84, -157.97, -58.53)" gradientUnits="userSpaceOnUse"><stop offset="0.07" stop-color="#fff"/><stop offset="1" stop-color="#9d9d9d"/></radialGradient><radialGradient id="radial-gradient-2" cx="-334.98" cy="362.98" r="0.5" xlink:href="#radial-gradient"/><radialGradient id="radial-gradient-3" cx="-329.22" cy="340.5" r="0.5" xlink:href="#radial-gradient"/><radialGradient id="radial-gradient-4" cx="1513.63" cy="11.01" r="5.76" gradientTransform="matrix(-1.11, 0, 0, 1, 2034.03, 53.67)" xlink:href="#radial-gradient"/><radialGradient id="radial-gradient-5" cx="1514.13" cy="0.5" r="3.18" gradientTransform="matrix(-1.11, 0, 0, 1, 2034.03, 53.67)" xlink:href="#radial-gradient"/><radialGradient id="radial-gradient-6" cx="-443.71" cy="19.74" r="0.5" gradientTransform="matrix(-0.51, 0.89, 0.99, 0.45, -13.61, 424.75)" xlink:href="#radial-gradient"/><radialGradient id="radial-gradient-7" cx="1610.1" cy="-14.05" r="3.3" gradientTransform="matrix(-1.11, 0, 0, 1, 2034.03, 53.67)" xlink:href="#radial-gradient"/><radialGradient id="radial-gradient-8" cx="1622.77" cy="-8.99" r="3.29" gradientTransform="matrix(-1.11, 0, 0, 1, 2034.03, 53.67)" xlink:href="#radial-gradient"/><radialGradient id="radial-gradient-9" cx="-1429.48" cy="652.67" r="0.5" gradientTransform="matrix(1.11, 0.05, -0.06, 1, 1868.3, -552.52)" xlink:href="#radial-gradient"/><radialGradient id="radial-gradient-10" cx="1605.35" cy="-31.1" r="5.42" gradientTransform="matrix(-1.11, 0, 0, 1, 2034.03, 53.67)" xlink:href="#radial-gradient"/><radialGradient id="radial-gradient-11" cx="-1461.02" cy="662.59" r="0.5" gradientTransform="matrix(1.11, 0.05, -0.06, 1, 1868.3, -552.52)" xlink:href="#radial-gradient"/><radialGradient id="radial-gradient-12" cx="1559.12" cy="-38.21" r="0.33" gradientTransform="matrix(-1.11, 0, 0, 1, 2034.03, 53.67)" xlink:href="#radial-gradient"/><radialGradient id="radial-gradient-13" cx="-1015.97" cy="93.54" r="0.5" gradientTransform="matrix(0.57, 0.86, 0.96, -0.51, 821.82, 960.52)" xlink:href="#radial-gradient"/><radialGradient id="radial-gradient-14" cx="-1030.87" cy="101.73" r="0.5" gradientTransform="matrix(0.57, 0.86, 0.96, -0.51, 821.82, 960.52)" xlink:href="#radial-gradient"/><radialGradient id="radial-gradient-15" cx="-1025.1" cy="79.24" r="0.5" gradientTransform="matrix(0.57, 0.86, 0.96, -0.51, 821.82, 960.52)" xlink:href="#radial-gradient"/><radialGradient id="radial-gradient-16" cx="1534.64" cy="-23.96" r="3.19" gradientTransform="matrix(-1.11, 0, 0, 1, 2034.03, 53.67)" xlink:href="#radial-gradient"/><radialGradient id="radial-gradient-17" cx="1537.26" cy="-8.92" r="3.17" gradientTransform="matrix(-1.11, 0, 0, 1, 2034.03, 53.67)" xlink:href="#radial-gradient"/><radialGradient id="radial-gradient-18" cx="-1104.47" cy="204.14" r="0.5" gradientTransform="matrix(0.64, -0.82, 0.91, 0.58, 911.34, -989.55)" xlink:href="#radial-gradient"/><radialGradient id="radial-gradient-19" cx="-1119.83" cy="212.26" r="0.9" gradientTransform="matrix(0.64, -0.82, 0.91, 0.58, 911.34, -989.55)" xlink:href="#radial-gradient"/><radialGradient id="radial-gradient-20" cx="-1113.61" cy="189.85" r="0.5" gradientTransform="matrix(0.64, -0.82, 0.91, 0.58, 911.34, -989.55)" xlink:href="#radial-gradient"/><radialGradient id="radial-gradient-21" cx="1491.08" cy="-17.02" r="3.19" gradientTransform="matrix(-1.11, 0, 0, 1, 2034.03, 53.67)" xlink:href="#radial-gradient"/><radialGradient id="radial-gradient-22" cx="1492.87" cy="-32" r="3.19" gradientTransform="matrix(-1.11, 0, 0, 1, 2034.03, 53.67)" xlink:href="#radial-gradient"/><radialGradient id="radial-gradient-23" cx="-1027.01" cy="25.08" r="0.5" gradientTransform="matrix(0.57, 0.86, 0.96, -0.51, 821.82, 960.52)" xlink:href="#radial-gradient"/><radialGradient id="radial-gradient-24" cx="-1041.92" cy="33.27" r="0.5" gradientTransform="matrix(0.57, 0.86, 0.96, -0.51, 821.82, 960.52)" xlink:href="#radial-gradient"/><radialGradient id="radial-gradient-25" cx="-1036.15" cy="10.78" r="0.5" gradientTransform="matrix(0.57, 0.86, 0.96, -0.51, 821.82, 960.52)" xlink:href="#radial-gradient"/><radialGradient id="radial-gradient-26" cx="1599.23" cy="1.3" r="3.19" gradientTransform="matrix(-1.11, 0, 0, 1, 2034.03, 53.67)" xlink:href="#radial-gradient"/><radialGradient id="radial-gradient-27" cx="1601.85" cy="16.34" r="3.17" gradientTransform="matrix(-1.11, 0, 0, 1, 2034.03, 53.67)" xlink:href="#radial-gradient"/><radialGradient id="radial-gradient-28" cx="-1002.64" cy="-6" r="0.5" gradientTransform="matrix(0.57, 0.86, 0.96, -0.51, 821.82, 960.52)" xlink:href="#radial-gradient"/><radialGradient id="radial-gradient-29" cx="-1017.54" cy="2.19" r="0.5" gradientTransform="matrix(0.57, 0.86, 0.96, -0.51, 821.82, 960.52)" xlink:href="#radial-gradient"/><radialGradient id="radial-gradient-30" cx="-986.31" cy="71.28" r="0.5" gradientTransform="matrix(0.57, 0.86, 0.96, -0.51, 821.82, 960.52)" xlink:href="#radial-gradient"/><radialGradient id="radial-gradient-31" cx="-1001.21" cy="79.47" r="0.5" gradientTransform="matrix(0.57, 0.86, 0.96, -0.51, 821.82, 960.52)" xlink:href="#radial-gradient"/><radialGradient id="radial-gradient-32" cx="-995.45" cy="56.98" r="0.5" gradientTransform="matrix(0.57, 0.86, 0.96, -0.51, 821.82, 960.52)" xlink:href="#radial-gradient"/><radialGradient id="radial-gradient-33" cx="1538.76" cy="12.9" r="3.19" gradientTransform="matrix(-1.11, 0, 0, 1, 2034.03, 53.67)" xlink:href="#radial-gradient"/><radialGradient id="radial-gradient-34" cx="-1169.2" cy="165.63" r="0.5" gradientTransform="matrix(0.64, -0.82, 0.91, 0.58, 911.34, -989.55)" xlink:href="#radial-gradient"/><radialGradient id="radial-gradient-35" cx="1557.99" cy="-3.35" r="3.19" gradientTransform="matrix(-1.11, 0, 0, 1, 2034.03, 53.67)" xlink:href="#radial-gradient"/><radialGradient id="radial-gradient-36" cx="-1209.89" cy="161.25" r="0.5" gradientTransform="matrix(0.64, -0.82, 0.91, 0.58, 911.34, -989.55)" xlink:href="#radial-gradient"/><radialGradient id="radial-gradient-37" cx="1571.86" cy="30.04" r="3.19" gradientTransform="matrix(-1.11, 0, 0, 1, 2034.03, 53.67)" xlink:href="#radial-gradient"/><radialGradient id="radial-gradient-38" cx="-418.73" cy="602.59" r="0.5" gradientTransform="matrix(-1.11, 0.05, 0.06, 1, -330.8, -552.52)" xlink:href="#radial-gradient"/><radialGradient id="radial-gradient-39" cx="593.31" cy="-33.55" r="6.46" gradientTransform="translate(-496.53 53.67) scale(1.11 1)" xlink:href="#radial-gradient"/><radialGradient id="radial-gradient-40" cx="-459.41" cy="598.21" r="0.5" gradientTransform="matrix(-1.11, 0.05, 0.06, 1, -330.8, -552.52)" xlink:href="#radial-gradient"/><radialGradient id="radial-gradient-41" cx="629.31" cy="-31.29" r="3.1" gradientTransform="translate(-496.53 53.67) scale(1.11 1)" xlink:href="#radial-gradient"/><radialGradient id="radial-gradient-42" cx="547.96" cy="-41.11" r="3.19" gradientTransform="translate(-496.53 53.67) scale(1.11 1)" xlink:href="#radial-gradient"/><radialGradient id="radial-gradient-43" cx="-525.95" cy="996.1" r="0.5" gradientTransform="matrix(-0.57, 0.86, -0.96, -0.51, 715.67, 960.52)" xlink:href="#radial-gradient"/><radialGradient id="radial-gradient-44" cx="510.82" cy="-45.18" r="3.17" gradientTransform="translate(-496.53 53.67) scale(1.11 1)" xlink:href="#radial-gradient"/><radialGradient id="radial-gradient-45" cx="-501.58" cy="965.02" r="0.5" gradientTransform="matrix(-0.57, 0.86, -0.96, -0.51, 715.67, 960.52)" xlink:href="#radial-gradient"/><radialGradient id="radial-gradient-46" cx="-516.48" cy="973.21" r="0.5" gradientTransform="matrix(-0.57, 0.86, -0.96, -0.51, 715.67, 960.52)" xlink:href="#radial-gradient"/><radialGradient id="radial-gradient-47" cx="-510.71" cy="950.73" r="0.5" gradientTransform="matrix(-0.57, 0.86, -0.96, -0.51, 715.67, 960.52)" xlink:href="#radial-gradient"/><radialGradient id="radial-gradient-48" cx="522.6" cy="-23.44" r="3.19" gradientTransform="translate(-496.53 53.67) scale(1.11 1)" xlink:href="#radial-gradient"/><radialGradient id="radial-gradient-49" cx="-519.9" cy="1030.32" r="0.5" gradientTransform="matrix(-0.64, -0.82, -0.91, 0.58, 626.15, -989.55)" xlink:href="#radial-gradient"/><radialGradient id="radial-gradient-50" cx="-529.03" cy="1016.02" r="0.5" gradientTransform="matrix(-0.64, -0.82, -0.91, 0.58, 626.15, -989.55)" xlink:href="#radial-gradient"/><radialGradient id="radial-gradient-51" cx="479.04" cy="-16.5" r="3.19" gradientTransform="translate(-496.53 53.67) scale(1.11 1)" xlink:href="#radial-gradient"/><radialGradient id="radial-gradient-52" cx="480.83" cy="-31.48" r="3.19" gradientTransform="translate(-496.53 53.67) scale(1.11 1)" xlink:href="#radial-gradient"/><radialGradient id="radial-gradient-53" cx="-512.62" cy="896.56" r="0.5" gradientTransform="matrix(-0.57, 0.86, -0.96, -0.51, 715.67, 960.52)" xlink:href="#radial-gradient"/><radialGradient id="radial-gradient-54" cx="-527.53" cy="904.75" r="0.5" gradientTransform="matrix(-0.57, 0.86, -0.96, -0.51, 715.67, 960.52)" xlink:href="#radial-gradient"/><radialGradient id="radial-gradient-55" cx="-521.76" cy="882.26" r="0.5" gradientTransform="matrix(-0.57, 0.86, -0.96, -0.51, 715.67, 960.52)" xlink:href="#radial-gradient"/><radialGradient id="radial-gradient-56" cx="587.19" cy="1.82" r="3.19" gradientTransform="translate(-496.53 53.67) scale(1.11 1)" xlink:href="#radial-gradient"/><radialGradient id="radial-gradient-57" cx="148.73" cy="70.53" r="3.17" gradientTransform="translate(-5.13) scale(1.11 1)" xlink:href="#radial-gradient"/><radialGradient id="radial-gradient-58" cx="-503.15" cy="873.67" r="0.5" gradientTransform="matrix(-0.57, 0.86, -0.96, -0.51, 715.67, 960.52)" xlink:href="#radial-gradient"/><linearGradient id="linear-gradient" x1="133.31" y1="-97.5" x2="150.3" y2="94.15" gradientUnits="userSpaceOnUse"><stop offset="0" stop-color="#606060"/><stop offset="0.23" stop-color="#606060" stop-opacity="0.79"/><stop offset="0.71" stop-color="#626262" stop-opacity="0.24"/><stop offset="0.9" stop-color="#626262" stop-opacity="0"/></linearGradient><linearGradient id="linear-gradient-2" x1="148.93" y1="211.84" x2="124.96" y2="-54.08" gradientUnits="userSpaceOnUse"><stop offset="0.07" stop-color="#747474"/><stop offset="0.52" stop-color="#434343"/><stop offset="0.64" stop-color="#3a3a3a"/><stop offset="1" stop-color="#232323"/></linearGradient><radialGradient id="radial-gradient-59" cx="186.08" cy="123.39" r="69.94" gradientTransform="matrix(0.04, 1, -2.22, 0.07, 468.82, -67.75)" gradientUnits="userSpaceOnUse"><stop offset="0" stop-color="#606060" stop-opacity="0.5"/><stop offset="0.42" stop-color="#616161" stop-opacity="0.29"/><stop offset="0.9" stop-color="#626262" stop-opacity="0"/></radialGradient><linearGradient id="linear-gradient-3" x1="293.69" y1="38.09" x2="304.67" y2="134.86" xlink:href="#linear-gradient-2"/><linearGradient id="linear-gradient-4" x1="294.63" y1="46.41" x2="300.17" y2="95.25" xlink:href="#linear-gradient-2"/><linearGradient id="linear-gradient-5" x1="295.16" y1="41.07" x2="304.11" y2="119.94" xlink:href="#linear-gradient-2"/><linearGradient id="linear-gradient-6" x1="310.1" y1="34.21" x2="339.63" y2="91.57" gradientUnits="userSpaceOnUse"><stop offset="0.07" stop-color="#fff"/><stop offset="0.52" stop-color="#909090"/><stop offset="0.78" stop-color="#6f6f6f"/><stop offset="1" stop-color="#585858"/></linearGradient><linearGradient id="linear-gradient-7" x1="316.59" y1="44.9" x2="335.9" y2="82.41" xlink:href="#linear-gradient-6"/><linearGradient id="linear-gradient-8" x1="311.92" y1="35.68" x2="334.02" y2="78.62" xlink:href="#linear-gradient-6"/><linearGradient id="linear-gradient-9" x1="308.3" y1="31.52" x2="317.32" y2="66.6" xlink:href="#linear-gradient-6"/><linearGradient id="linear-gradient-10" x1="826.15" y1="659.7" x2="835.44" y2="695.82" gradientTransform="translate(554.26 -1005.57) rotate(62.27)" xlink:href="#linear-gradient-6"/><linearGradient id="linear-gradient-11" x1="1502.83" y1="616.15" x2="1512.74" y2="654.69" gradientTransform="translate(1527.83 -1075.58) rotate(113.03)" xlink:href="#linear-gradient-6"/><linearGradient id="linear-gradient-12" x1="907.16" y1="685.6" x2="916.56" y2="722.14" gradientTransform="translate(662.15 -1059.98) rotate(68.3)" xlink:href="#linear-gradient-6"/><linearGradient id="linear-gradient-13" x1="315.64" y1="29.74" x2="324.67" y2="64.87" xlink:href="#linear-gradient-6"/><linearGradient id="linear-gradient-14" x1="296.71" y1="-124.79" x2="305.72" y2="-89.75" gradientTransform="translate(27.48 220.62) rotate(-12.12)" xlink:href="#linear-gradient-6"/><linearGradient id="linear-gradient-15" x1="311.8" y1="-203.56" x2="320.9" y2="-168.16" gradientTransform="translate(55.44 327.89) rotate(-18.07)" xlink:href="#linear-gradient-6"/><linearGradient id="linear-gradient-16" x1="318.43" y1="29.54" x2="327.46" y2="64.66" xlink:href="#linear-gradient-6"/><linearGradient id="linear-gradient-17" x1="323.28" y1="31.96" x2="332.25" y2="66.84" xlink:href="#linear-gradient-6"/><linearGradient id="linear-gradient-18" x1="290.34" y1="41.76" x2="411.5" y2="41.76" xlink:href="#linear-gradient-2"/><linearGradient id="linear-gradient-19" x1="388.15" y1="33.12" x2="408.36" y2="33.12" xlink:href="#linear-gradient-2"/><linearGradient id="linear-gradient-20" x1="286.82" y1="52.42" x2="399.53" y2="52.42" xlink:href="#linear-gradient-2"/><linearGradient id="linear-gradient-21" x1="404.54" y1="39.43" x2="408.68" y2="39.43" xlink:href="#linear-gradient-2"/><linearGradient id="linear-gradient-22" x1="983.5" y1="-137.54" x2="1104.65" y2="-137.54" gradientTransform="matrix(-1.25, -0.11, 0.09, -1.08, 1399.87, 21.98)" xlink:href="#linear-gradient-2"/><linearGradient id="linear-gradient-23" x1="16.41" y1="49.66" x2="156.34" y2="49.66" xlink:href="#linear-gradient-2"/><linearGradient id="linear-gradient-24" x1="149.24" y1="-9.64" x2="55.36" y2="80.89" xlink:href="#linear-gradient-2"/><linearGradient id="linear-gradient-25" x1="178.94" y1="88.33" x2="187.96" y2="167.84" xlink:href="#linear-gradient-2"/><linearGradient id="linear-gradient-26" x1="179.71" y1="95.12" x2="186.65" y2="156.25" xlink:href="#linear-gradient-2"/><linearGradient id="linear-gradient-27" x1="369.18" y1="57.65" x2="374.05" y2="100.53" xlink:href="#linear-gradient-2"/><linearGradient id="linear-gradient-28" x1="369.39" y1="59.53" x2="373.02" y2="91.58" xlink:href="#linear-gradient-2"/><linearGradient id="linear-gradient-29" x1="369.6" y1="61.38" x2="373.32" y2="94.16" xlink:href="#linear-gradient-2"/><linearGradient id="linear-gradient-30" x1="242.69" y1="130.32" x2="332.17" y2="130.32" xlink:href="#linear-gradient-2"/><linearGradient id="linear-gradient-31" x1="342.5" y1="130.37" x2="350.61" y2="130.37" gradientTransform="translate(476.18 -216.47) rotate(89.88)" xlink:href="#linear-gradient-2"/><linearGradient id="linear-gradient-32" x1="350.61" y1="130.39" x2="358.73" y2="130.39" gradientTransform="translate(484.29 -224.56) rotate(89.88)" xlink:href="#linear-gradient-2"/><linearGradient id="linear-gradient-33" x1="358.73" y1="130.41" x2="366.84" y2="130.41" gradientTransform="translate(492.4 -232.66) rotate(89.88)" xlink:href="#linear-gradient-2"/><linearGradient id="linear-gradient-34" x1="209.03" y1="130.08" x2="217.15" y2="130.08" gradientTransform="translate(342.71 -83.29) rotate(89.88)" xlink:href="#linear-gradient-2"/><linearGradient id="linear-gradient-35" x1="217.15" y1="130.1" x2="225.26" y2="130.1" gradientTransform="translate(350.82 -91.39) rotate(89.88)" xlink:href="#linear-gradient-2"/><linearGradient id="linear-gradient-36" x1="225.26" y1="130.12" x2="233.37" y2="130.12" gradientTransform="translate(358.93 -99.48) rotate(89.88)" xlink:href="#linear-gradient-2"/></defs><title>bobo_banner</title><g class="cls-2"><g id="Layer_1" data-name="Layer 1"><g class="cls-3"><g class="cls-4"><path class="cls-5" d="M355.77,68.18a2,2,0,0,0-.36-.18,1.9,1.9,0,0,0-.4,0,1.71,1.71,0,0,0,.19-.33,1.23,1.23,0,0,0,0-.36,1.79,1.79,0,0,0,.35.18,3.16,3.16,0,0,0,.41,0,2.07,2.07,0,0,0-.2.32A1.64,1.64,0,0,0,355.77,68.18Z" transform="translate(0.5 3.37)"/><path class="cls-6" d="M374.68,67a2,2,0,0,0-.36-.18,3.16,3.16,0,0,0-.41,0,1.5,1.5,0,0,0,.2-.32,1.64,1.64,0,0,0,0-.37,2,2,0,0,0,.36.18,2,2,0,0,0,.41,0,1.64,1.64,0,0,0-.2.33A1.6,1.6,0,0,0,374.68,67Z" transform="translate(0.5 3.37)"/><path class="cls-7" d="M355.76,51.21a2,2,0,0,0-.36-.18,1.9,1.9,0,0,0-.4,0,1.56,1.56,0,0,0,.19-.32,1.64,1.64,0,0,0,0-.37,2,2,0,0,0,.36.18,2,2,0,0,0,.41,0,1.5,1.5,0,0,0-.2.32A1.64,1.64,0,0,0,355.76,51.21Z" transform="translate(0.5 3.37)"/><path class="cls-8" d="M346.13,63.19a.36.36,0,0,1,.46.09.29.29,0,0,1-.1.42.35.35,0,0,1-.46-.09A.28.28,0,0,1,346.13,63.19Zm-5.86-2.09a.71.71,0,0,0,.92.18.57.57,0,0,0,.2-.83.71.71,0,0,0-.92-.18A.57.57,0,0,0,340.27,61.1Zm3,7.54a1.43,1.43,0,0,0,1.85.36,1.14,1.14,0,0,0,.41-1.66,1.44,1.44,0,0,0-1.85-.36A1.14,1.14,0,0,0,343.26,68.64Zm10.81-5.26a.71.71,0,0,0,.92.18.55.55,0,0,0,.2-.82.71.71,0,0,0-.92-.19A.57.57,0,0,0,354.07,63.38Z" transform="translate(0.5 3.37)"/><path class="cls-9" d="M348.12,54.85a.2.2,0,0,1-.25-.07.17.17,0,0,1,.08-.23.2.2,0,0,1,.25.07A.16.16,0,0,1,348.12,54.85Zm3.13,1.4a.4.4,0,0,0-.5-.14.33.33,0,0,0-.16.45.39.39,0,0,0,.5.14A.32.32,0,0,0,351.25,56.25ZM350,52a.78.78,0,0,0-1-.27.63.63,0,0,0-.31.89.78.78,0,0,0,1,.28A.64.64,0,0,0,350,52Zm-6.24,2.45a.39.39,0,0,0-.5-.14.31.31,0,0,0-.15.45.4.4,0,0,0,.5.14A.31.31,0,0,0,343.75,54.41Z" transform="translate(0.5 3.37)"/><path class="cls-10" d="M231.14,38.69a2.92,2.92,0,0,0-.4,0,1.9,1.9,0,0,0-.34.21,1.61,1.61,0,0,0,0-.37,1.87,1.87,0,0,0-.23-.3,2,2,0,0,0,.41,0,2.15,2.15,0,0,0,.33-.21,1.61,1.61,0,0,0,0,.37A2,2,0,0,0,231.14,38.69Z" transform="translate(0.5 3.37)"/><path class="cls-11" d="M239.89,39.19a.2.2,0,0,1,.25-.07.15.15,0,0,1,.08.22.19.19,0,0,1-.25.07A.15.15,0,0,1,239.89,39.19Zm-3.45.47a.4.4,0,0,0,.5-.14.32.32,0,0,0-.17-.45.39.39,0,0,0-.49.14A.31.31,0,0,0,236.44,39.66Zm3.78,2.85a.78.78,0,0,0,1-.29.63.63,0,0,0-.33-.89.77.77,0,0,0-1,.29A.63.63,0,0,0,240.22,42.51Zm3.52-5.22a.39.39,0,0,0,.5-.15.31.31,0,0,0-.16-.44.39.39,0,0,0-.5.14A.33.33,0,0,0,243.74,37.29Z" transform="translate(0.5 3.37)"/><path class="cls-12" d="M226.6,45.3a.19.19,0,0,1-.25.05.15.15,0,0,1-.06-.23.19.19,0,0,1,.25,0A.15.15,0,0,1,226.6,45.3Zm3.49-.21a.39.39,0,0,0-.51.11.31.31,0,0,0,.12.46.4.4,0,0,0,.51-.11A.32.32,0,0,0,230.09,45.09ZM226.59,42a.79.79,0,0,0-1,.22.62.62,0,0,0,.23.91.79.79,0,0,0,1-.21A.63.63,0,0,0,226.59,42Zm-4,4.94a.39.39,0,0,0-.51.11.32.32,0,0,0,.12.46.41.41,0,0,0,.51-.11A.32.32,0,0,0,222.58,46.9Z" transform="translate(0.5 3.37)"/><path class="cls-13" d="M241.28,28.39a1.84,1.84,0,0,1,.22-.32,1.74,1.74,0,0,1,.36-.15,1.69,1.69,0,0,1-.34-.2,1.4,1.4,0,0,1-.18-.33,1.84,1.84,0,0,1-.22.32,1.91,1.91,0,0,1-.36.16,1.55,1.55,0,0,1,.34.19A1.4,1.4,0,0,1,241.28,28.39Z" transform="translate(0.5 3.37)"/><path class="cls-14" d="M247.46,20.25a.39.39,0,0,1-.41.34.36.36,0,1,1,.41-.34Zm4.59,2.2a1.52,1.52,0,0,0-1.65,1.34,1.48,1.48,0,0,0,1.49,1.48,1.51,1.51,0,0,0,1.64-1.34A1.47,1.47,0,0,0,252.05,22.45Zm-13.67,1a.77.77,0,0,0-.83.67.75.75,0,0,0,.75.74.76.76,0,0,0,.82-.67A.74.74,0,0,0,238.38,23.48Z" transform="translate(0.5 3.37)"/><path class="cls-15" d="M205.63,36.72a1.85,1.85,0,0,1,.21-.32,2.25,2.25,0,0,1,.37-.16,1.83,1.83,0,0,1-.35-.19,1.63,1.63,0,0,1-.18-.33,1.39,1.39,0,0,1-.21.31,1.45,1.45,0,0,1-.37.16,2,2,0,0,1,.35.2A1.4,1.4,0,0,1,205.63,36.72Z" transform="translate(0.5 3.37)"/><path class="cls-16" d="M296.85,15.19a.31.31,0,0,0-.11.46.4.4,0,0,0,.51.1.31.31,0,0,0,.11-.46A.4.4,0,0,0,296.85,15.19Z" transform="translate(0.5 3.37)"/><path class="cls-17" d="M337.2,37.51a1.77,1.77,0,0,0-.21.31,1.79,1.79,0,0,0,0,.37,2,2,0,0,0-.35-.19,2.42,2.42,0,0,0-.41,0,1.77,1.77,0,0,0,.21-.31,1.79,1.79,0,0,0,0-.37,1.7,1.7,0,0,0,.35.19A2.42,2.42,0,0,0,337.2,37.51Z" transform="translate(0.5 3.37)"/><path class="cls-18" d="M336.63,20.51a1.77,1.77,0,0,0-.21.31,2,2,0,0,0,0,.37,1.7,1.7,0,0,0-.35-.19,2.29,2.29,0,0,0-.4,0,1.38,1.38,0,0,0,.2-.31,1.37,1.37,0,0,0,0-.37,1.7,1.7,0,0,0,.35.19A2.42,2.42,0,0,0,336.63,20.51Z" transform="translate(0.5 3.37)"/><path class="cls-19" d="M318.31,36.9a1.77,1.77,0,0,0-.21.31,1.79,1.79,0,0,0,0,.37,1.85,1.85,0,0,0-.36-.19,2.34,2.34,0,0,0-.4,0,1.77,1.77,0,0,0,.21-.31,1.79,1.79,0,0,0,0-.37,1.7,1.7,0,0,0,.35.19A2.42,2.42,0,0,0,318.31,36.9Z" transform="translate(0.5 3.37)"/><path class="cls-20" d="M323.47,30.54a.16.16,0,0,1,.07-.23.19.19,0,0,1,.25.06.17.17,0,0,1-.06.23A.21.21,0,0,1,323.47,30.54Zm-1.41,2.87a.31.31,0,0,0,.13-.46.4.4,0,0,0-.51-.12.33.33,0,0,0-.13.46A.4.4,0,0,0,322.06,33.41Zm4.71-1.34a.63.63,0,0,0,.26-.91.78.78,0,0,0-1-.23.63.63,0,0,0-.26.91A.79.79,0,0,0,326.77,32.07Zm-3-5.47a.32.32,0,0,0,.13-.46.4.4,0,0,0-.51-.12.33.33,0,0,0-.13.46A.4.4,0,0,0,323.75,26.6Z" transform="translate(0.5 3.37)"/><path class="cls-21" d="M322.08,43.88a.15.15,0,0,1-.08.22.19.19,0,0,1-.25-.07.16.16,0,0,1,.08-.23A.2.2,0,0,1,322.08,43.88Zm1.68-2.75a.31.31,0,0,0-.17.44.38.38,0,0,0,.49.16.32.32,0,0,0,.17-.44A.38.38,0,0,0,323.76,41.13Zm-4.82,1a.65.65,0,0,0-.35.89.78.78,0,0,0,1,.31.65.65,0,0,0,.35-.89A.78.78,0,0,0,318.94,42.1Zm2.49,5.69a.31.31,0,0,0-.17.44.38.38,0,0,0,.49.16.32.32,0,0,0,.18-.45A.4.4,0,0,0,321.43,47.79Z" transform="translate(0.5 3.37)"/><path class="cls-22" d="M386.17,30a1.79,1.79,0,0,1-.18-.33,2.05,2.05,0,0,1,.05-.37,1.92,1.92,0,0,1-.37.17,2.35,2.35,0,0,1-.4-.05,1.79,1.79,0,0,1,.18.33,1.42,1.42,0,0,1-.05.37,1.72,1.72,0,0,1,.37-.16A1.75,1.75,0,0,1,386.17,30Z" transform="translate(0.5 3.37)"/><path class="cls-23" d="M384,47.43a2.93,2.93,0,0,1-.32-.59,2.92,2.92,0,0,1,.08-.66,1.44,1.44,0,0,1-1.39.22,2.93,2.93,0,0,1,.32.59,2.92,2.92,0,0,1-.08.66,3.11,3.11,0,0,1,.66-.29A3.7,3.7,0,0,1,384,47.43Z" transform="translate(0.5 3.37)"/><path class="cls-24" d="M367.29,29.17a1.79,1.79,0,0,1-.18-.33,1.92,1.92,0,0,1,.05-.36,2.46,2.46,0,0,1-.37.16,2.62,2.62,0,0,1-.4,0,1.5,1.5,0,0,1,.18.33,1.92,1.92,0,0,1-.05.36,1.72,1.72,0,0,1,.37-.16A1.75,1.75,0,0,1,367.29,29.17Z" transform="translate(0.5 3.37)"/><path class="cls-25" d="M372.1,35.85a.18.18,0,0,1,0,.24.21.21,0,0,1-.26,0,.16.16,0,0,1-.05-.24A.21.21,0,0,1,372.1,35.85ZM370.19,33a.3.3,0,0,0,.09.46.39.39,0,0,0,.51-.08.31.31,0,0,0-.09-.46A.39.39,0,0,0,370.19,33Zm4.05,1.76a.63.63,0,0,0,.18.93.8.8,0,0,0,1-.16.62.62,0,0,0-.18-.93A.8.8,0,0,0,374.24,34.77Zm-3,5.15a.31.31,0,0,0,.08.46.4.4,0,0,0,.52-.08.31.31,0,0,0-.09-.46A.4.4,0,0,0,371.24,39.92Z" transform="translate(0.5 3.37)"/><path class="cls-26" d="M371.45,22.55a.16.16,0,0,1-.07-.23.2.2,0,0,1,.25-.05.15.15,0,0,1,.07.22A.19.19,0,0,1,371.45,22.55Zm2.17,2.69a.3.3,0,0,0-.13-.45.39.39,0,0,0-.51.12.31.31,0,0,0,.14.45A.39.39,0,0,0,373.62,25.24Zm-4.2-1.45a.63.63,0,0,0-.27-.91.79.79,0,0,0-1,.24.63.63,0,0,0,.26.91A.79.79,0,0,0,369.42,23.79Zm2.5-5.36a.3.3,0,0,0-.13-.45.39.39,0,0,0-.5.12.3.3,0,0,0,.13.45A.38.38,0,0,0,371.92,18.43Z" transform="translate(0.5 3.37)"/><path class="cls-27" d="M265.24,62.76a2,2,0,0,0-.21.32,1.79,1.79,0,0,0,0,.37,2,2,0,0,0-.35-.19,1.68,1.68,0,0,0-.41,0,2,2,0,0,0,.21-.32,1.73,1.73,0,0,0,0-.36,3.09,3.09,0,0,0,.35.19A2.19,2.19,0,0,0,265.24,62.76Z" transform="translate(0.5 3.37)"/><path class="cls-28" d="M264.67,45.76a2,2,0,0,0-.21.32,2,2,0,0,0,0,.37,1.7,1.7,0,0,0-.35-.19,2.34,2.34,0,0,0-.4,0,2.27,2.27,0,0,0,.21-.31,1.79,1.79,0,0,0,0-.37,2.39,2.39,0,0,0,.35.19A2.19,2.19,0,0,0,264.67,45.76Z" transform="translate(0.5 3.37)"/><path class="cls-29" d="M246.35,62.15a2,2,0,0,0-.21.32,1.68,1.68,0,0,0,0,.36,2.15,2.15,0,0,0-.35-.18,1.68,1.68,0,0,0-.41,0,2,2,0,0,0,.21-.32,1.68,1.68,0,0,0,0-.36,1.79,1.79,0,0,0,.35.18A1.68,1.68,0,0,0,246.35,62.15Z" transform="translate(0.5 3.37)"/><path class="cls-30" d="M251.51,55.79a.15.15,0,0,1,.07-.22.19.19,0,0,1,.25.06.15.15,0,0,1-.06.22A.2.2,0,0,1,251.51,55.79Zm-1.41,2.87a.3.3,0,0,0,.13-.45.39.39,0,0,0-.5-.12.32.32,0,0,0-.14.46A.4.4,0,0,0,250.1,58.66Zm4.71-1.33a.63.63,0,0,0,.26-.91.79.79,0,0,0-1-.24.63.63,0,0,0-.26.91A.79.79,0,0,0,254.81,57.33Zm-3-5.48a.3.3,0,0,0,.13-.45.4.4,0,0,0-.51-.12.33.33,0,0,0-.13.46A.4.4,0,0,0,251.79,51.85Z" transform="translate(0.5 3.37)"/><path class="cls-31" d="M250.12,69.14a.15.15,0,0,1-.08.22.2.2,0,0,1-.25-.08.15.15,0,0,1,.09-.22A.18.18,0,0,1,250.12,69.14Zm1.68-2.75a.31.31,0,0,0-.17.44.38.38,0,0,0,.49.16.32.32,0,0,0,.17-.45A.39.39,0,0,0,251.8,66.39Zm-4.82,1a.64.64,0,0,0-.35.89.78.78,0,0,0,1,.31.64.64,0,0,0,.35-.89A.78.78,0,0,0,247,67.36ZM249.47,73a.32.32,0,0,0-.17.45.39.39,0,0,0,.49.15.31.31,0,0,0,.18-.44A.39.39,0,0,0,249.47,73Z" transform="translate(0.5 3.37)"/><path class="cls-32" d="M249.2,99.55a.63.63,0,0,0-.19.68,1.7,1.7,0,0,0-.35-.19,2.42,2.42,0,0,0-.41,0,1.77,1.77,0,0,0,.21-.31,2,2,0,0,0,0-.37,1.7,1.7,0,0,0,.35.19A2.29,2.29,0,0,0,249.2,99.55Z" transform="translate(0.5 3.37)"/><path class="cls-33" d="M248.63,82.55a1.77,1.77,0,0,0-.21.31,1.79,1.79,0,0,0,0,.37,1.7,1.7,0,0,0-.35-.19,2.42,2.42,0,0,0-.41,0,1.77,1.77,0,0,0,.21-.31,1.79,1.79,0,0,0,0-.37,1.85,1.85,0,0,0,.36.19A2.34,2.34,0,0,0,248.63,82.55Z" transform="translate(0.5 3.37)"/><path class="cls-34" d="M332.62,74.36a1.46,1.46,0,0,0-.21.32,1.29,1.29,0,0,0,0,.36,1.79,1.79,0,0,0-.35-.18,1.68,1.68,0,0,0-.41,0,1.46,1.46,0,0,0,.21-.32,1.29,1.29,0,0,0,0-.36,1.79,1.79,0,0,0,.35.18A1.68,1.68,0,0,0,332.62,74.36Z" transform="translate(0.5 3.37)"/><path class="cls-35" d="M332,57.36a1.5,1.5,0,0,0-.2.32,1.29,1.29,0,0,0,0,.36,1.79,1.79,0,0,0-.35-.18,1.68,1.68,0,0,0-.41,0,2,2,0,0,0,.21-.32,1.86,1.86,0,0,0,0-.36,1.79,1.79,0,0,0,.35.18A1.59,1.59,0,0,0,332,57.36Z" transform="translate(0.5 3.37)"/><path class="cls-36" d="M313.73,73.75a1.46,1.46,0,0,0-.21.32,1.31,1.31,0,0,0,0,.36,2.39,2.39,0,0,0-.35-.19,2.19,2.19,0,0,0-.41,0,2,2,0,0,0,.21-.32,1.29,1.29,0,0,0,0-.36,1.79,1.79,0,0,0,.35.18A1.68,1.68,0,0,0,313.73,73.75Z" transform="translate(0.5 3.37)"/><path class="cls-37" d="M318.89,67.39a.14.14,0,0,1,.06-.22.21.21,0,0,1,.26,0,.16.16,0,0,1-.07.23A.19.19,0,0,1,318.89,67.39Zm-1.41,2.87a.32.32,0,0,0,.13-.45.4.4,0,0,0-.51-.12.3.3,0,0,0-.13.45A.4.4,0,0,0,317.48,70.26Zm4.71-1.33a.63.63,0,0,0,.26-.91.79.79,0,0,0-1-.24.63.63,0,0,0-.26.91A.8.8,0,0,0,322.19,68.93Zm-3-5.48a.31.31,0,0,0,.14-.45.4.4,0,0,0-.51-.12.3.3,0,0,0-.13.45A.38.38,0,0,0,319.16,63.45Z" transform="translate(0.5 3.37)"/><path class="cls-38" d="M309.48,60.54a1.34,1.34,0,0,1-.18-.33,1.42,1.42,0,0,1,0-.36A2.24,2.24,0,0,1,309,60a1.86,1.86,0,0,1-.41,0,1.79,1.79,0,0,1,.18.33,1.33,1.33,0,0,1-.05.36,2.46,2.46,0,0,1,.37-.16A1.86,1.86,0,0,1,309.48,60.54Z" transform="translate(0.5 3.37)"/><path class="cls-39" d="M297.55,49.52a.15.15,0,0,1,.05.23.19.19,0,0,1-.26,0,.15.15,0,0,1,0-.23A.2.2,0,0,1,297.55,49.52Zm-1.91-2.84a.31.31,0,0,0,.09.46.4.4,0,0,0,.52-.08.32.32,0,0,0-.09-.46A.4.4,0,0,0,295.64,46.68Zm4.06,1.76a.63.63,0,0,0,.17.93.79.79,0,0,0,1-.16.62.62,0,0,0-.17-.93A.79.79,0,0,0,299.7,48.44Zm-3,5.15a.3.3,0,0,0,.09.46.38.38,0,0,0,.51-.08.31.31,0,0,0-.08-.46A.4.4,0,0,0,296.69,53.59Z" transform="translate(0.5 3.37)"/><path class="cls-40" d="M279.3,91.21a1.34,1.34,0,0,1-.18-.33,1.42,1.42,0,0,1,0-.36,2.24,2.24,0,0,1-.36.16,2.79,2.79,0,0,1-.41,0,1.63,1.63,0,0,1,.18.32,1.35,1.35,0,0,1-.05.37,1.72,1.72,0,0,1,.37-.16A1.86,1.86,0,0,1,279.3,91.21Z" transform="translate(0.5 3.37)"/><path class="cls-41" d="M283.45,84.59a.16.16,0,0,1-.07-.23.21.21,0,0,1,.26,0,.15.15,0,0,1,.06.22A.19.19,0,0,1,283.45,84.59Zm2.18,2.69a.31.31,0,0,0-.14-.45.38.38,0,0,0-.5.12.3.3,0,0,0,.13.45A.4.4,0,0,0,285.63,87.28Zm-4.21-1.45a.63.63,0,0,0-.26-.91.8.8,0,0,0-1,.24.63.63,0,0,0,.27.91A.78.78,0,0,0,281.42,85.83Zm2.51-5.36a.32.32,0,0,0-.13-.45.4.4,0,0,0-.51.12.3.3,0,0,0,.13.45A.39.39,0,0,0,283.93,80.47Z" transform="translate(0.5 3.37)"/><path class="cls-42" d="M168.72,28.91a1.87,1.87,0,0,0-.21-.31,1.61,1.61,0,0,0-.37-.16,2,2,0,0,0,.35-.2,1.4,1.4,0,0,0,.18-.33,1.65,1.65,0,0,0,.21.32,2.25,2.25,0,0,0,.37.16,1.83,1.83,0,0,0-.35.19A1.63,1.63,0,0,0,168.72,28.91Z" transform="translate(0.5 3.37)"/><path class="cls-43" d="M162.92,20.4a.37.37,0,0,1,.41.34.37.37,0,0,1-.37.37.37.37,0,0,1-.41-.34A.37.37,0,0,1,162.92,20.4Zm-4.61-5.19a.75.75,0,0,0,.82.66.74.74,0,0,0,.75-.73.76.76,0,0,0-.82-.67A.74.74,0,0,0,158.31,15.21Zm-1.84,9.24a1.51,1.51,0,0,0,1.65,1.34,1.47,1.47,0,0,0,1.48-1.48A1.52,1.52,0,0,0,158,23,1.48,1.48,0,0,0,156.47,24.45Zm14.41.29a.76.76,0,0,0,.83.67.74.74,0,0,0,.74-.74.75.75,0,0,0-.82-.66A.73.73,0,0,0,170.88,24.74Z" transform="translate(0.5 3.37)"/><path class="cls-44" d="M213.75,22.5a1.53,1.53,0,0,0-.22-.31,1.91,1.91,0,0,0-.36-.16,1.55,1.55,0,0,0,.34-.19,1.63,1.63,0,0,0,.18-.33,1.53,1.53,0,0,0,.22.31,1.91,1.91,0,0,0,.36.16,1.83,1.83,0,0,0-.35.19A2.09,2.09,0,0,0,213.75,22.5Z" transform="translate(0.5 3.37)"/><path class="cls-45" d="M205.1,22.26a.17.17,0,0,1-.17-.17.18.18,0,0,1,.19-.17.19.19,0,0,1,.18.18A.19.19,0,0,1,205.1,22.26ZM207,24.87a.35.35,0,0,0-.36-.35.36.36,0,0,0-.38.32.35.35,0,0,0,.36.35A.36.36,0,0,0,207,24.87Zm1.28-4.29a.74.74,0,1,0-.77.65A.73.73,0,0,0,208.32,20.58Zm-6.77-.65a.36.36,0,0,0-.36-.35.37.37,0,0,0-.38.33.35.35,0,0,0,.36.34A.36.36,0,0,0,201.55,19.93Z" transform="translate(0.5 3.37)"/><path class="cls-46" d="M113.28,11.71a.16.16,0,0,1,.06.23.2.2,0,0,1-.26.05.16.16,0,0,1,0-.23A.2.2,0,0,1,113.28,11.71ZM111.22,9a.31.31,0,0,0,.11.46.39.39,0,0,0,.51-.1.32.32,0,0,0-.11-.46A.4.4,0,0,0,111.22,9Zm4.14,1.59a.61.61,0,0,0,.23.91.79.79,0,0,0,1-.2.63.63,0,0,0-.23-.92A.8.8,0,0,0,115.36,10.54Zm-2.72,5.27a.31.31,0,0,0,.11.46.41.41,0,0,0,.52-.1.32.32,0,0,0-.12-.46A.4.4,0,0,0,112.64,15.81Z" transform="translate(0.5 3.37)"/><path class="cls-47" d="M56.77,1.25a1.38,1.38,0,0,1,.2.31,1.37,1.37,0,0,1,0,.37,1.7,1.7,0,0,1,.35-.19,2.42,2.42,0,0,1,.41,0,2.27,2.27,0,0,1-.21-.31,2,2,0,0,1,0-.37,2.39,2.39,0,0,1-.35.19A2.29,2.29,0,0,1,56.77,1.25Z" transform="translate(0.5 3.37)"/><path class="cls-48" d="M72.13,7.54a.16.16,0,0,1,.09.22.21.21,0,0,1-.25.08.16.16,0,0,1-.09-.22A.21.21,0,0,1,72.13,7.54ZM69.71,5a.33.33,0,0,0,.18.45.38.38,0,0,0,.49-.16.32.32,0,0,0-.17-.44A.4.4,0,0,0,69.71,5ZM74,6.15a.64.64,0,0,0,.35.89.77.77,0,0,0,1-.31A.63.63,0,0,0,75,5.84.78.78,0,0,0,74,6.15Zm-2,5.53a.32.32,0,0,0,.17.44.4.4,0,0,0,.5-.15.32.32,0,0,0-.18-.45A.38.38,0,0,0,72,11.68Z" transform="translate(0.5 3.37)"/><path class="cls-49" d="M72.8,38a1.34,1.34,0,0,1,.21.31,1.37,1.37,0,0,1,0,.37,1.7,1.7,0,0,1,.35-.19,2.42,2.42,0,0,1,.41,0,1.34,1.34,0,0,1-.21-.31,1.37,1.37,0,0,1,0-.37,1.7,1.7,0,0,1-.35.19A2.42,2.42,0,0,1,72.8,38Z" transform="translate(0.5 3.37)"/><path class="cls-50" d="M73.37,21a1.34,1.34,0,0,1,.21.31,1.37,1.37,0,0,1,0,.37,2.39,2.39,0,0,1,.35-.19,2.42,2.42,0,0,1,.41,0,1.77,1.77,0,0,1-.21-.31,1.37,1.37,0,0,1,0-.37,1.7,1.7,0,0,1-.35.19A2.42,2.42,0,0,1,73.37,21Z" transform="translate(0.5 3.37)"/><path class="cls-51" d="M91.69,37.42a1.34,1.34,0,0,1,.21.31,1.37,1.37,0,0,1,0,.37,1.7,1.7,0,0,1,.35-.19,2.42,2.42,0,0,1,.41,0,1.34,1.34,0,0,1-.21-.31,1.37,1.37,0,0,1,0-.37,1.7,1.7,0,0,1-.35.19A2.42,2.42,0,0,1,91.69,37.42Z" transform="translate(0.5 3.37)"/><path class="cls-52" d="M86.28,31.12a.16.16,0,0,1-.07-.23.2.2,0,0,1,.26-.06.16.16,0,0,1,.06.23A.2.2,0,0,1,86.28,31.12Zm2.17,2.69a.32.32,0,0,0-.13-.46.4.4,0,0,0-.51.12.33.33,0,0,0,.13.46A.4.4,0,0,0,88.45,33.81Zm-4.2-1.45a.63.63,0,0,0-.26-.91.8.8,0,0,0-1,.23.63.63,0,0,0,.26.91A.8.8,0,0,0,84.25,32.36ZM86.76,27a.3.3,0,0,0-.13-.45.39.39,0,0,0-.51.11.32.32,0,0,0,.14.46A.39.39,0,0,0,86.76,27Z" transform="translate(0.5 3.37)"/><path class="cls-53" d="M23.83,30.5a1.79,1.79,0,0,0,.18-.33,1.33,1.33,0,0,0-.05-.36,2.46,2.46,0,0,0,.37.16,2.5,2.5,0,0,0,.41,0,1.34,1.34,0,0,0-.18.33,1.52,1.52,0,0,0,0,.37,1.6,1.6,0,0,0-.36-.16A1.86,1.86,0,0,0,23.83,30.5Z" transform="translate(0.5 3.37)"/><path class="cls-54" d="M42.71,29.69a1.79,1.79,0,0,0,.18-.33,1.33,1.33,0,0,0,0-.36,2.46,2.46,0,0,0,.37.16,2.79,2.79,0,0,0,.41,0,1.34,1.34,0,0,0-.18.33,1.42,1.42,0,0,0,0,.36,1.6,1.6,0,0,0-.36-.16A1.86,1.86,0,0,0,42.71,29.69Z" transform="translate(0.5 3.37)"/><path class="cls-55" d="M38.16,36.41a.17.17,0,0,1,0,.24.21.21,0,0,1-.26,0,.17.17,0,0,1,0-.24A.21.21,0,0,1,38.16,36.41Zm1.14-3a.31.31,0,0,0-.09.46.4.4,0,0,0,.52.08.3.3,0,0,0,.09-.46A.4.4,0,0,0,39.3,33.45Zm-4.57,1.68a.64.64,0,0,0-.18.93.81.81,0,0,0,1,.16.62.62,0,0,0,.17-.93A.79.79,0,0,0,34.73,35.13Zm3.52,5.23a.32.32,0,0,0-.09.47.4.4,0,0,0,.52.07.3.3,0,0,0,.09-.46A.41.41,0,0,0,38.25,40.36Z" transform="translate(0.5 3.37)"/><path class="cls-56" d="M38.3,23a.15.15,0,0,1,.07-.22.19.19,0,0,1,.25.06.14.14,0,0,1-.06.22A.2.2,0,0,1,38.3,23Zm-1.41,2.87a.31.31,0,0,0,.13-.45.39.39,0,0,0-.51-.12.31.31,0,0,0-.13.45A.4.4,0,0,0,36.89,25.88Zm4.71-1.33a.64.64,0,0,0,.27-.91.8.8,0,0,0-1-.24.63.63,0,0,0-.26.91A.78.78,0,0,0,41.6,24.55Zm-3-5.48a.31.31,0,0,0,.13-.45.4.4,0,0,0-.51-.12.33.33,0,0,0-.13.46A.4.4,0,0,0,38.59,19.07Z" transform="translate(0.5 3.37)"/><path class="cls-57" d="M144.76,63.28a1.46,1.46,0,0,1,.21.32,1.37,1.37,0,0,1,0,.37,1.7,1.7,0,0,1,.35-.19,2.42,2.42,0,0,1,.41,0,1.62,1.62,0,0,1-.21-.31,1.37,1.37,0,0,1,0-.37,2.39,2.39,0,0,1-.35.19A2.19,2.19,0,0,1,144.76,63.28Z" transform="translate(0.5 3.37)"/><path class="cls-58" d="M145.33,46.29a1.34,1.34,0,0,1,.21.31,1.37,1.37,0,0,1,0,.37,1.7,1.7,0,0,1,.35-.19,2.42,2.42,0,0,1,.41,0,1.62,1.62,0,0,1-.21-.31,1.37,1.37,0,0,1,0-.37,2.39,2.39,0,0,1-.35.19A2.42,2.42,0,0,1,145.33,46.29Z" transform="translate(0.5 3.37)"/><path class="cls-59" d="M163.65,62.67a1.46,1.46,0,0,1,.21.32,1.29,1.29,0,0,1,0,.36,1.79,1.79,0,0,1,.35-.18,1.68,1.68,0,0,1,.41,0,1.46,1.46,0,0,1-.21-.32,1.31,1.31,0,0,1,0-.36,2.39,2.39,0,0,1-.35.19A2.19,2.19,0,0,1,163.65,62.67Z" transform="translate(0.5 3.37)"/><path class="cls-60" d="M158.24,56.37a.15.15,0,0,1-.07-.22.2.2,0,0,1,.26-.06.15.15,0,0,1,.06.22A.19.19,0,0,1,158.24,56.37Zm2.17,2.7a.32.32,0,0,0-.13-.46.4.4,0,0,0-.51.12.31.31,0,0,0,.13.45A.4.4,0,0,0,160.41,59.07Zm-4.2-1.46a.63.63,0,0,0-.27-.91.79.79,0,0,0-1,.24.63.63,0,0,0,.26.91A.8.8,0,0,0,156.21,57.61Zm2.51-5.35a.31.31,0,0,0-.13-.46.4.4,0,0,0-.51.12.31.31,0,0,0,.13.45A.4.4,0,0,0,158.72,52.26Z" transform="translate(0.5 3.37)"/><path class="cls-61" d="M160.13,69.58a.16.16,0,0,1,.09.22.21.21,0,0,1-.25.08.16.16,0,0,1-.09-.22A.21.21,0,0,1,160.13,69.58Zm-2.42-2.52a.32.32,0,0,0,.17.45.39.39,0,0,0,.5-.16.31.31,0,0,0-.18-.44A.39.39,0,0,0,157.71,67.06ZM162,68.19a.63.63,0,0,0,.34.89.78.78,0,0,0,1-.31.64.64,0,0,0-.35-.89A.77.77,0,0,0,162,68.19Zm-2,5.53a.32.32,0,0,0,.17.44.39.39,0,0,0,.49-.15.32.32,0,0,0-.17-.45A.38.38,0,0,0,160,73.72Z" transform="translate(0.5 3.37)"/><path class="cls-62" d="M161.37,83.07a1.34,1.34,0,0,1,.21.31,1.37,1.37,0,0,1,0,.37,1.7,1.7,0,0,1,.35-.19,2.42,2.42,0,0,1,.41,0,1.34,1.34,0,0,1-.21-.31,1.37,1.37,0,0,1,0-.37,1.7,1.7,0,0,1-.35.19A2.42,2.42,0,0,1,161.37,83.07Z" transform="translate(0.5 3.37)"/><path class="cls-63" d="M281.46,36.45c-12.06-6.89-27.65-4.84-41.79-3s-30.17,2.93-41.16-5.29c-8.4-6.27-12.59-17.2-22.82-20.66-5.92-2-12.49-.94-18.74-.12A222.12,222.12,0,0,1,80.25,4C66.35.87,52.59-3.7,38.09-3.35A91.14,91.14,0,0,0,17.84-.73C14.88,0,.93,3.45.27,6.23-.48,9.38,2.85,11.84,6,13.33s6.83,1.92,10.21,3c2.35.74,4.59,1.81,7,2.42a39.48,39.48,0,0,0,5,.83c5.87.71,11.62,3.19,17.62,2.6,5.1-.5,9.63-2.34,14.26-4.21,11.11-4.48,24.06-4.67,35.55-1.24,4.52,1.35,10.76,3.36,14.7,5.58,4.39,2.47,6,7.71,10.49,9.86a14.38,14.38,0,0,0,4.73,1c19.81,2,47.05-10.59,63.44,5.51,2.41,2.38,6.53,8.55,4.42,11.9-2.69,4.27-9.58,1.78-13.86,1.09a180.29,180.29,0,0,0-58.18.5c-12.45,2.1-24.78,5.45-37.44,5.3-24-.28-47.4-13.07-70.77-8.27-3.45.71-7.13,2-8.68,4.9-1.78,3.3.13,7.45,3.32,9.74s7.34,3.16,11.34,3.9a379.92,379.92,0,0,0,147.11-2c6.29-1.34,12.82-2.85,19.13-1.6,5.83,1.16,10.75,4.53,16.16,6.8,17.13,7.17,37.21,2.74,55.43-1.81,7.31-1.82,14.73-3.68,21.24-7.18,6.88-3.7,13-10.68,10.68-17.57C287.74,41,284.77,38.34,281.46,36.45Z" transform="translate(0.5 3.37)"/><path class="cls-64" d="M44.72,129.34c9.77-1.08,19.62,6.53,29.9,7.56,13.6,1.36,26-9,39.68-9.09,16.85-.17,31.9,15.07,48.46,12,10-1.84,17.48-9.87,26.37-14.75a44.62,44.62,0,0,1,28.48-4.87c10.56,1.74,21.69,7.21,31.35,2.57,3.12-1.5,5.69-3.94,8.18-6.37,8.71-8.51,17.1-17.49,27-24.58-12.28,4-24,12.24-36.56,9.91-10-1.84-17.47-9.87-26.36-14.75A44.66,44.66,0,0,0,192.7,82.1c-10.55,1.73-21.68,7.21-31.34,2.57-3.12-1.5-5.69-3.94-8.18-6.37-9.2-9-18-18.5-28.64-25.76s-23.38-12.18-36.1-10.67C78.86,43,69.75,47.69,60.12,47.25c-17.38-.78-29.74-17.41-46.07-23.47A26.64,26.64,0,0,0-.5,22.31V173.5a5.6,5.6,0,0,0,5.56,5.61H44.72Z" transform="translate(0.5 3.37)"/><ellipse class="cls-65" cx="202.67" cy="126.77" rx="156.55" ry="71.63"/><path class="cls-66" d="M288.88,56.36a7.85,7.85,0,0,0-3.77.86c-.88.51-1.09,1.32-1.84,1.8-1.39.89-3.32.35-4.88.24a16.92,16.92,0,0,0-7.81,1.41c-1.13.5-2.33,1.29-2.39,2.42s1,2,2,2.53c4.24,2.23,8.92.7,13.63.92,5.37.25,8.13,4.64,13,5.09,4.13.39,8.27.64,12.42.67,3.83,0,8.2-.4,10.47-3.16,2.09-2.55,8.85-8.54,2-10.26-2-.5-4.1-.07-6.17.06s-4.41-.17-5.64-1.66c-.58-.71-.84-1.6-1.46-2.28-1.36-1.46-3.91-1.38-5.88-.68s-3.72,1.87-5.78,2.29C294.2,57.13,291.53,56.37,288.88,56.36Z" transform="translate(0.5 3.37)"/><path class="cls-67" d="M269,64.47c.07-1.13,1.26-1.92,2.39-2.41a17,17,0,0,1,7.82-1.42c1.55.11,3.48.66,4.87-.24.75-.48,1-1.28,1.84-1.79a7.87,7.87,0,0,1,3.78-.86c2.64,0,5.31.76,7.89.24,2.07-.41,3.82-1.59,5.79-2.29s4.52-.77,5.87.69c.62.67.88,1.57,1.46,2.28,1.24,1.49,3.58,1.79,5.64,1.66s4.18-.57,6.17-.07a5.2,5.2,0,0,1,2.19,1c-.13-1-1-1.9-3-2.4s-4.1-.07-6.17.06-4.41-.17-5.64-1.66c-.58-.71-.84-1.6-1.46-2.28-1.36-1.46-3.91-1.38-5.88-.68s-3.72,1.87-5.78,2.29c-2.58.52-5.25-.24-7.9-.25a7.85,7.85,0,0,0-3.77.86c-.88.51-1.09,1.32-1.84,1.8-1.39.89-3.32.35-4.88.24a16.92,16.92,0,0,0-7.81,1.41c-1.13.5-2.33,1.29-2.39,2.42a2.17,2.17,0,0,0,.79,1.65A2.45,2.45,0,0,1,269,64.47Z" transform="translate(0.5 3.37)"/><path class="cls-68" d="M321.71,58.88c-2-.5-4.1-.07-6.17.06s-4.41-.17-5.64-1.66c-.58-.71-.84-1.6-1.46-2.28-1.36-1.46-3.91-1.38-5.88-.68s-3.72,1.87-5.78,2.29c-2.58.52-5.25-.24-7.9-.25a7.85,7.85,0,0,0-3.77.86c-.88.51-1.09,1.32-1.84,1.8-1.39.89-3.32.35-4.88.24a16.92,16.92,0,0,0-7.81,1.41l-.4.19a5.35,5.35,0,0,0,1.42,1c4.23,2.23,8.92.7,13.63.92,5.37.25,8.13,4.64,13,5.1,4.13.38,8.27.63,12.42.66,3.83,0,8.2-.4,10.47-3.16.83-1,2.42-2.6,3.58-4.23C324.5,60.2,323.65,59.37,321.71,58.88Z" transform="translate(0.5 3.37)"/><ellipse class="cls-69" cx="322.32" cy="57.96" rx="24.08" ry="21.61"/><path class="cls-70" d="M344,49.83a18.61,18.61,0,0,1,.19,2.6c0,11.28-10.19,20.43-22.77,20.43-10.74,0-19.75-6.68-22.13-15.67,1.42,10,11,17.83,22.57,17.83,12.57,0,22.77-9.15,22.77-20.44A18.26,18.26,0,0,0,344,49.83Z" transform="translate(0.5 3.37)"/><ellipse class="cls-71" cx="321.07" cy="53.46" rx="18.02" ry="16.18"/><path class="cls-72" d="M321.52,71.92c0,.89-1.27,1.61-2.83,1.61s-2.83-.72-2.83-1.61,1.27-1.61,2.83-1.61S321.52,71,321.52,71.92Z" transform="translate(0.5 3.37)"/><path class="cls-73" d="M341.72,47.9c-.88.42-2.18-.26-2.91-1.5s-.6-2.58.27-3,2.18.26,2.91,1.5S342.59,47.49,341.72,47.9Z" transform="translate(0.5 3.37)"/><path class="cls-74" d="M340.24,64c-.91-.35-1.16-1.68-.55-3s1.85-2.06,2.76-1.71,1.16,1.67.55,3S341.15,64.35,340.24,64Z" transform="translate(0.5 3.37)"/><path class="cls-75" d="M342.41,51.19c-.44.15-1-.22-1.29-.85s-.15-1.25.29-1.41,1,.22,1.3.84S342.85,51,342.41,51.19Z" transform="translate(0.5 3.37)"/><path class="cls-76" d="M327.94,72.09c0,.42-.63.76-1.42.76s-1.41-.34-1.41-.76.63-.76,1.41-.76S327.94,71.67,327.94,72.09Z" transform="translate(0.5 3.37)"/><path class="cls-77" d="M304.49,58.33c.38,1.6-.18,3.06-1.25,3.27s-2.25-.92-2.63-2.53.18-3.06,1.25-3.27S304.1,56.73,304.49,58.33Z" transform="translate(0.5 3.37)"/><path class="cls-78" d="M306.37,63.69c.25.67,0,1.33-.46,1.47s-1.09-.28-1.33-.94,0-1.33.46-1.47S306.13,63,306.37,63.69Z" transform="translate(0.5 3.37)"/><path class="cls-79" d="M322.46,36.4c0,.68-1,1.23-2.27,1.23s-2.26-.55-2.26-1.23,1-1.23,2.26-1.23S322.46,35.72,322.46,36.4Z" transform="translate(0.5 3.37)"/><ellipse class="cls-80" cx="325.29" cy="39.77" rx="1.03" ry="0.74"/><path class="cls-81" d="M360.2,57.65a98,98,0,0,1,18.28-.78,23,23,0,0,1,5.91,1.31c3.88,1.19,8.07,2.18,12,1.24s7.41-4.51,6.49-8.09c-1.61-6.34,12.21-7.19,7.68-15.12-1.5-2.62-4.84-4.16-8.12-4.15-4.16,0-8.94,2-12.08-.41a11.39,11.39,0,0,1-2.26-2.91,17.48,17.48,0,0,0-12.64-7.68c-9.06-.87-10.49,7.08-17.63,7.94-6.41.77-14-.1-18.32,4.18-1.79,1.77-2.76,4.22-5,5.54-1.84,1.11-4.19,1.2-6.41,1.29a198.87,198.87,0,0,0-31.29,3.82c-2.82.57-6.19,1.76-6.49,4.34-.21,1.8,1.35,3.45,3.2,4.16a15.74,15.74,0,0,0,5.94.65L319,52.64c3-.06,6.53.09,8.32,2.28.86,1,1.14,2.39,1.83,3.54,1.74,2.89,5.76,4.07,9.42,4.07C346,62.54,352.87,58.9,360.2,57.65Z" transform="translate(0.5 3.37)"/><path class="cls-82" d="M390.2,33.26c3.14,2.45,7.92.41,12.08.4a10.44,10.44,0,0,1,6.08,1.92c-.08-.17-.17-.35-.27-.53-1.5-2.62-4.84-4.17-8.12-4.16-4.05,0-8.69,1.93-11.82-.23A9.74,9.74,0,0,0,390.2,33.26Z" transform="translate(0.5 3.37)"/><path class="cls-83" d="M399.33,49a10.29,10.29,0,0,1-1.86.66c-4,1-8.15,0-12-1.24a23.08,23.08,0,0,0-5.91-1.31,98,98,0,0,0-18.28.78c-7.33,1.26-14.16,4.89-21.62,4.88-3.66,0-7.69-1.18-9.42-4.07-.69-1.15-1-2.49-1.83-3.54-1.79-2.18-5.3-2.33-8.32-2.28l-19.51.35a19.07,19.07,0,0,1-5.13-.39l-2.1.4c-2.82.58-6.19,1.76-6.49,4.34-.21,1.8,1.35,3.46,3.19,4.17a16,16,0,0,0,6,.65l19.51-.35c3,0,6.53.1,8.32,2.28.86,1,1.14,2.39,1.83,3.54,1.73,2.9,5.76,4.07,9.42,4.08,7.46,0,14.29-3.63,21.62-4.89A98,98,0,0,1,375,56.31a23.08,23.08,0,0,1,5.91,1.31c3.87,1.2,8.06,2.19,12,1.24s7.4-4.51,6.49-8.09A3.82,3.82,0,0,1,399.33,49Z" transform="translate(0.5 3.37)"/><path class="cls-84" d="M404.68,41a4.88,4.88,0,0,1,0,2.49c2.79-2,5.39-4.2,3.26-8.2C405.8,36.9,404,38.54,404.68,41Z" transform="translate(0.5 3.37)"/><path class="cls-85" d="M69.3,42.23c-7,.5-16-.16-23-.9a32.85,32.85,0,0,1-7.27-2c-4.73-1.67-9.88-3.14-14.93-2.49S14.38,41,15.15,45c1.38,7-16,6.64-11.16,15.67,1.6,3,5.64,5,9.75,5.28,5.21.39,11.41-1.36,15.09,1.59a12.26,12.26,0,0,1,2.53,3.38,22.17,22.17,0,0,0,15,9.53c11.26,1.81,13.87-6.68,22.9-6.93,8.11-.22,17.47,1.43,23.37-2.8,2.43-1.74,3.9-4.31,6.81-5.53,2.43-1,5.38-.9,8.17-.79a285.42,285.42,0,0,0,39.58-1.16c3.59-.35,7.93-1.32,8.58-4.09.45-1.93-1.34-3.87-3.58-4.82a22.83,22.83,0,0,0-7.38-1.27l-24.48-1.48c-3.79-.23-8.17-.73-10.19-3.27-1-1.22-1.18-2.7-1.93-4-1.87-3.31-6.8-5-11.39-5.32C87.53,38.27,78.6,41.56,69.3,42.23Z" transform="translate(0.5 3.37)"/><path class="cls-86" d="M152.69,54.79a22.56,22.56,0,0,0-7.38-1.27L120.83,52c-3.79-.23-8.17-.73-10.19-3.27-1-1.22-1.18-2.7-1.93-4-1.87-3.31-6.8-5-11.39-5.32C88,38.71,79.05,42,69.75,42.67c-7,.51-16-.15-23-.89a32.34,32.34,0,0,1-7.27-2c-4.73-1.66-9.88-3.13-14.93-2.48-3.41.44-6.64,2.19-8.15,4.5a13.42,13.42,0,0,1,5.94-2.27c5-.65,10.2.82,14.93,2.49a32.7,32.7,0,0,0,7.27,2c7,.74,16,1.4,23,.9,9.3-.67,18.23-4,27.57-3.24,4.59.35,9.51,2,11.39,5.32.74,1.31,1,2.79,1.93,4,2,2.54,6.4,3,10.19,3.27l24.48,1.48A22.83,22.83,0,0,1,150.48,57c2.24.95,4,2.89,3.57,4.82a1.7,1.7,0,0,1-.1.32,4.05,4.05,0,0,0,2.32-2.55C156.71,57.68,154.93,55.73,152.69,54.79Z" transform="translate(0.5 3.37)"/><path class="cls-87" d="M152.24,54.06a13.51,13.51,0,0,0-3-.84c-.63.11-1.26.18-1.87.24a285.42,285.42,0,0,1-39.58,1.16c-2.79-.11-5.74-.23-8.17.79-2.91,1.23-4.38,3.8-6.81,5.54-5.9,4.22-15.26,2.57-23.37,2.79-9,.25-11.64,8.74-22.9,6.94a22.21,22.21,0,0,1-15-9.54A12.22,12.22,0,0,0,29,57.77c-3.68-3-9.88-1.21-15.09-1.59a14,14,0,0,1-7.88-3C3.57,54.8,2.1,56.89,4,60.4c1.6,3,5.64,5,9.75,5.28,5.21.38,11.41-1.37,15.08,1.59a12.21,12.21,0,0,1,2.54,3.37,22.18,22.18,0,0,0,15,9.54C57.67,82,60.28,73.5,69.31,73.25c8.1-.23,17.47,1.43,23.37-2.8,2.43-1.74,3.9-4.31,6.81-5.53,2.43-1,5.38-.9,8.17-.79A288.56,288.56,0,0,0,147.24,63c3.59-.36,7.93-1.32,8.58-4.09C156.26,57,154.48,55,152.24,54.06Z" transform="translate(0.5 3.37)"/><path class="cls-88" d="M172.79,103.82a9,9,0,0,0-4.31,1c-1,.58-1.24,1.49-2.1,2-1.58,1-3.79.39-5.57.27a19.41,19.41,0,0,0-8.92,1.61c-1.29.57-2.65,1.47-2.73,2.76s1.12,2.26,2.32,2.89c3.62,1.91,8.08,2.06,12.24,1.57s8.24-1.54,12.42-1.87c11.59-.9,23.88,3.76,34.53-.42a5.2,5.2,0,0,0,3-2.25c.9-2-1.11-4.16-3.38-4.73s-4.68-.07-7,.08-5-.2-6.44-1.9c-.66-.81-1-1.83-1.67-2.6-1.55-1.66-4.47-1.58-6.71-.78s-4.25,2.14-6.6,2.61C178.86,104.69,175.81,103.83,172.79,103.82Z" transform="translate(0.5 3.37)"/><path class="cls-89" d="M211.84,109.47c-10.65,4.19-22.94-.48-34.53.43-4.18.32-8.25,1.38-12.42,1.87s-8.62.33-12.24-1.58a5.8,5.8,0,0,1-1.5-1.08,3.25,3.25,0,0,0-2,2.39c-.06,1.25,1.12,2.26,2.32,2.89,3.62,1.91,8.08,2.06,12.24,1.57s8.24-1.54,12.42-1.87c11.59-.9,23.88,3.76,34.53-.42a5.2,5.2,0,0,0,3-2.25,2.65,2.65,0,0,0-.34-2.65A9.45,9.45,0,0,1,211.84,109.47Z" transform="translate(0.5 3.37)"/><path class="cls-90" d="M365.86,66a4.85,4.85,0,0,0-2.32.53c-.54.31-.67.81-1.13,1.1-.86.56-2.05.22-3,.15a10.4,10.4,0,0,0-4.81.87c-.7.31-1.43.79-1.47,1.49s.6,1.22,1.25,1.56a11.46,11.46,0,0,0,6.6.85c2.25-.26,4.44-.84,6.7-1,6.25-.49,12.88,2,18.62-.23a2.84,2.84,0,0,0,1.61-1.21c.48-1.06-.6-2.25-1.83-2.55a12.37,12.37,0,0,0-3.79,0,4.15,4.15,0,0,1-3.47-1c-.36-.43-.52-1-.91-1.4-.83-.9-2.4-.85-3.61-.42a27.16,27.16,0,0,1-3.56,1.41C369.14,66.48,367.49,66,365.86,66Z" transform="translate(0.5 3.37)"/><path class="cls-91" d="M355.24,69.83a10.4,10.4,0,0,1,4.81-.87c1,.07,2.15.4,3-.15.46-.3.59-.79,1.13-1.11a4.73,4.73,0,0,1,2.32-.52c1.63,0,3.28.46,4.87.15a27.22,27.22,0,0,0,3.56-1.42c1.21-.42,2.78-.47,3.61.43.39.41.55,1,.91,1.4.75.92,2.2,1.1,3.47,1a12.69,12.69,0,0,1,3.79,0,2.92,2.92,0,0,1,1.28.7,2.51,2.51,0,0,0-1.93-1.86,12.37,12.37,0,0,0-3.79,0,4.15,4.15,0,0,1-3.47-1c-.36-.43-.52-1-.91-1.4-.83-.9-2.4-.85-3.61-.42a27.16,27.16,0,0,1-3.56,1.41c-1.59.32-3.24-.15-4.87-.15a4.85,4.85,0,0,0-2.32.53c-.54.31-.67.81-1.13,1.1-.86.56-2.05.22-3,.15a10.4,10.4,0,0,0-4.81.87c-.7.31-1.43.79-1.47,1.49a1.46,1.46,0,0,0,.65,1.16C353.81,70.62,354.54,70.13,355.24,69.83Z" transform="translate(0.5 3.37)"/><path class="cls-92" d="M387.05,68a4.52,4.52,0,0,1-1,.52c-5.74,2.26-12.37-.26-18.62.23-2.25.18-4.45.75-6.7,1a11.46,11.46,0,0,1-6.6-.85h0a1.67,1.67,0,0,0-1,1.24c0,.67.6,1.22,1.25,1.56a11.46,11.46,0,0,0,6.6.85c2.25-.26,4.44-.84,6.7-1,6.25-.49,12.88,2,18.62-.23a2.84,2.84,0,0,0,1.61-1.21A1.77,1.77,0,0,0,387.05,68Z" transform="translate(0.5 3.37)"/></g><g class="cls-93"><path class="cls-94" d="M332.17,91.12l-16.77,6.8a13.1,13.1,0,0,1-9.73.17,50.76,50.76,0,0,0-18.29-3.31A52.5,52.5,0,0,0,269.17,98a13.55,13.55,0,0,1-9.73-.21l-16.75-6.88v43.64c1.49,19.65,21.11,35.1,44.61,35.15s43.28-15.32,44.77-35Zm-60.93,27.54a8,8,0,1,1-8,8A8,8,0,0,1,271.24,118.66Zm32.27.07a8,8,0,1,1-8,8A8,8,0,0,1,303.51,118.73Z" transform="translate(0.5 3.37)"/><ellipse class="cls-95" cx="346.56" cy="130.37" rx="2.67" ry="4.06" transform="translate(215.94 480.02) rotate(-89.88)"/><ellipse class="cls-96" cx="354.67" cy="130.39" rx="2.67" ry="4.06" transform="translate(224.01 488.15) rotate(-89.88)"/><ellipse class="cls-97" cx="362.78" cy="130.41" rx="2.67" ry="4.06" transform="translate(232.09 496.28) rotate(-89.88)"/><ellipse class="cls-98" cx="213.09" cy="130.08" rx="2.67" ry="4.06" transform="translate(83.05 346.26) rotate(-89.88)"/><ellipse class="cls-99" cx="221.2" cy="130.1" rx="2.67" ry="4.06" transform="translate(91.13 354.39) rotate(-89.88)"/><ellipse class="cls-100" cx="229.32" cy="130.12" rx="2.67" ry="4.06" transform="translate(99.2 362.52) rotate(-89.88)"/></g></g></g></g></svg>