<svg id="Layer_1" data-name="Layer 1" xmlns="http://www.w3.org/2000/svg" viewBox="0 0 99 79.2"><defs><style>.cls-1{fill:#afafaf;}.cls-2{fill:#fff;isolation:isolate;}</style></defs><title>superhero</title><path class="cls-1" d="M75.5,117.49a3.49,3.49,0,0,1-2.48-1L27,70.36a3.66,3.66,0,0,1-.62-4.26L40.25,40.17a3.52,3.52,0,0,1,3.11-1.87h64.28a3.52,3.52,0,0,1,3.11,1.87L124.58,66.1a3.64,3.64,0,0,1-.63,4.26l-46,46.1A3.42,3.42,0,0,1,75.5,117.49Z" transform="translate(-26 -38.3)"/><path class="cls-2" d="M73.64,102.22h-.13a1,1,0,0,1-.87-.78v-.33L75,81.8a1,1,0,0,0-.71-.94l-.33,0-17.24.07a1,1,0,0,1-.59-.18,1,1,0,0,1-.39-1.1l.14-.28L78,48.88a1,1,0,0,1,.83-.41H79a1,1,0,0,1,.86.8v.33l-2.93,19v.15a1,1,0,0,0,.69.94l.33,0,16.44,0a1.14,1.14,0,0,1,.57.16,1,1,0,0,1,.42,1.08l-.13.29L74.49,101.77a1,1,0,0,1-.85.45Z" transform="translate(-26 -38.3)"/></svg>