<svg id="Layer_1" data-name="Layer 1" xmlns="http://www.w3.org/2000/svg" viewBox="0 0 71.76 71.76"><defs><style>.cls-1{fill:#0e0e0e;stroke:#afafaf;stroke-miterlimit:10;}.cls-2{fill:#0fc270;}</style></defs><title>changelly_new</title><circle class="cls-1" cx="35.88" cy="35.88" r="35.38"/><path class="cls-2" d="M94.43,56.19c-.58,0-14.56.66-21,8-.66.74-1.24,1.45-1.78,2.11-.91.25-4.19,1.14-5.61,1.42a2.59,2.59,0,0,0-1.65,1.1c-1,1.42-2.7,4.37-2.77,4.47L60.4,75.37l2.26-1c1.48-.63,4-1.29,4.86-.76a.72.72,0,0,1,.33.66h0a6.79,6.79,0,0,0,.84,3.08l-.31.25a3.44,3.44,0,0,0-1.3,2.85V84.4H71a3.46,3.46,0,0,0,2.85-1.3l.25-.3a7,7,0,0,0,3.08.83h0a.75.75,0,0,1,.66.33c.53.89-.13,3.38-.76,4.86l-1,2.26,2.13-1.24c.13-.08,3.05-1.78,4.47-2.77a2.7,2.7,0,0,0,1.1-1.66c.28-1.45,1.17-4.7,1.42-5.61.66-.54,1.37-1.12,2.11-1.78,7.27-6.41,7.93-20.39,8-21v-.89Zm-30.09,16-.18,0c.54-.86,1.15-1.85,1.58-2.51a1,1,0,0,1,.63-.41c.92-.18,2.44-.59,3.74-.92a14.76,14.76,0,0,0-2,3.82A5.53,5.53,0,0,0,64.34,72.15Zm8.23,9.93a1.77,1.77,0,0,1-1.5.69H69.68L74.45,77l-5.76,4.8V80.38a1.78,1.78,0,0,1,.68-1.5l5.08-4a2.77,2.77,0,0,1,1.12-.54l2.09-.51-.51,2.09A3.12,3.12,0,0,1,76.62,77Zm9.64,3a1.07,1.07,0,0,1-.41.64c-.64.43-1.63,1-2.52,1.57a.88.88,0,0,0,0-.15,5.63,5.63,0,0,0,0-3.84,14.69,14.69,0,0,0,3.82-2C82.79,82.62,82.38,84.17,82.21,85.08Zm4-8.28c-6.08,5.33-8.62,5.87-11.13,4.7L77.86,78a4.45,4.45,0,0,0,.86-1.76l1.12-4.62-4.62,1.12a4.49,4.49,0,0,0-1.73.83L70,76.34c-1.17-2.52-.66-5.06,4.7-11.13,5.06-5.75,15.76-7.07,18.91-7.35C93.31,61,92,71.74,86.25,76.8Z" transform="translate(-38.55 -39.35)"/><path class="cls-2" d="M85,70.7a4.14,4.14,0,0,0,3-1.25,4.26,4.26,0,1,0-6-6,4.22,4.22,0,0,0,0,6A4.25,4.25,0,0,0,85,70.7Zm-1.85-6.13A2.62,2.62,0,0,1,85,63.81a2.59,2.59,0,0,1,1.86.76,2.64,2.64,0,1,1-3.74,3.74,2.59,2.59,0,0,1-.76-1.86A2.72,2.72,0,0,1,83.15,64.57Z" transform="translate(-38.55 -39.35)"/><path class="cls-2" d="M73.29,88.31a7.29,7.29,0,0,1-1,.84,15.39,15.39,0,0,1-2.16,1.37,19.17,19.17,0,0,1-2.33,1,16.32,16.32,0,0,1-2.44.66c-.41.11-.84.16-1.25.23l-.63.08-.31,0-.3,0-.64.06-.64,0c-.43,0-.83,0-1.27.05a29.12,29.12,0,0,1-3.73-.18c.15-.2.28-.4.43-.61A14.55,14.55,0,0,0,58.09,90a27.7,27.7,0,0,0,1.45-4.06A40.31,40.31,0,0,1,60.83,82a37.3,37.3,0,0,1,1.73-3.82,16.1,16.1,0,0,0-1.27,1.71,20.76,20.76,0,0,0-1.12,1.83,29.06,29.06,0,0,0-1.78,3.89,33.51,33.51,0,0,1-1.62,3.76,19.13,19.13,0,0,1-2.29,3.33l-.92,1.09L55,94a30.76,30.76,0,0,0,5.36.33c.46,0,.89,0,1.35-.07l.66-.08L63,94c.46,0,.89-.15,1.32-.23s.89-.2,1.32-.33.87-.25,1.3-.41.84-.33,1.24-.51a16.11,16.11,0,0,0,2.37-1.32,13.54,13.54,0,0,0,2.05-1.72,9,9,0,0,0,1.56-2.17A10.45,10.45,0,0,1,73.29,88.31Z" transform="translate(-38.55 -39.35)"/></svg>