<?xml version="1.0" encoding="utf-8"?>
<!-- Generator: Adobe Illustrator 23.0.2, SVG Export Plug-In . SVG Version: 6.00 Build 0)  -->
<svg version="1.1" id="Layer_1" xmlns="http://www.w3.org/2000/svg" xmlns:xlink="http://www.w3.org/1999/xlink" x="0px" y="0px"
	 viewBox="0 0 800 800" style="enable-background:new 0 0 800 800;" xml:space="preserve">
<style type="text/css">
	.st0{fill:url(#SVGID_1_);}
	.st1{fill:url(#SVGID_2_);}
	.st2{fill:#D1D9E6;}
	.st3{fill:#FFFFFF;}
</style>
<g id="rounded">
	
		<linearGradient id="SVGID_1_" gradientUnits="userSpaceOnUse" x1="141.906" y1="658.094" x2="658.094" y2="141.906" gradientTransform="matrix(1 0 0 -1 0 800)">
		<stop  offset="1.208727e-02" style="stop-color:#3291F6"/>
		<stop  offset="0.5078" style="stop-color:#1F74EB"/>
	</linearGradient>
	<circle class="st0" cx="400" cy="400" r="365"/>
	
		<linearGradient id="SVGID_2_" gradientUnits="userSpaceOnUse" x1="400" y1="400" x2="658.1" y2="141.9" gradientTransform="matrix(1 0 0 -1 0 800)">
		<stop  offset="2.234637e-02" style="stop-color:#3485EF"/>
		<stop  offset="0.9628" style="stop-color:#1461E5"/>
	</linearGradient>
	<path class="st1" d="M658.1,141.9c142.5,142.5,142.5,373.7,0,516.2s-373.7,142.5-516.2,0L658.1,141.9z"/>
	<g>
		<g>
			<g>
				<path class="st2" d="M308.7,459.7L472,289.9c12.5-12.5,32-11.6,45,1.4l94.4,91c10,9.6,9.8,28.7,0.5,39
					c-12.1,12.1-25.7,13-44.2,0.4l-68.4-74.1l-172,163.7c-11.5,8.9-23.3,16.4-41.4,4.9c-6.2-8.4,6.1-24.7,1.3-29.6L308.7,459.7z"/>
			</g>
			<g>
				<path class="st2" d="M301.2,516.7c-14-0.4-24.9-9.6-24.9-20.4l0.8-194.1c0-10.7,10.1-23.8,24-24.2c18.6,0,26.7,15,26.7,26.2
					v192.7C327.9,508,315.9,517.1,301.2,516.7z"/>
			</g>
			<g>
				<path class="st2" d="M491.8,522c-17.3,0-24.5-12.8-24.5-23V321c0-10.1,10.7-22.3,24.5-22.7c14.5-0.4,26.5,11.7,26.5,22.2v176.1
					C518.2,509,509.6,522,491.8,522z"/>
			</g>
		</g>
		<g>
			<g>
				<path class="st3" d="M295.4,518.8c-10.7-0.4-19.1-9.6-19.1-20.4v-194c0-10.7,8.4-23.8,19.1-24.2c11.2-0.4,20.5,12.5,20.5,23.7
					v195.2C315.9,510.2,306.6,519.3,295.4,518.8z"/>
			</g>
			<g>
				<path class="st3" d="M486.3,520.8c-10.9,0-19.9-12.7-19.9-23.7V305.8c0-10.9,8.9-19.9,19.9-19.9s19.9,8.9,19.9,19.9v191.3
					C506.1,508,497.3,520.8,486.3,520.8z"/>
			</g>
			<g>
				<path class="st3" d="M296.2,516.9c-6.5,0-13-2.5-17.8-7.5l-90-90.2c-9.8-9.9-9.8-25.7,0.1-35.6c9.9-9.8,25.7-9.8,35.6,0.1
					l72.5,72.9l173.3-165c9.8-9.3,25-9.3,34.8,0.1l94.3,91c10,9.6,10.2,25.6,0.7,35.6c-9.6,10.1-25.6,10.2-35.6,0.7L487,344.7
					L313.4,510C308.7,514.6,302.4,516.9,296.2,516.9z"/>
			</g>
		</g>
		<path class="st3" d="M469,376.3l-11,10.4c0,0,3.1-17.3-5.8-8.9c-8.9,8.5,13.7-21.4,13.7-21.4l4.6,5.8L469,376.3z"/>
		<path class="st3" d="M506.1,373.7c0,0,0.6-10.6,12.1,7.5V367l-12.5-6.5L506.1,373.7z"/>
		<path class="st3" d="M316,423.8c0,0,1.7,11.8,12-3.4v14.2l-12.5,6.5L316,423.8z"/>
	</g>
</g>
</svg>
