<svg id="Layer_1" data-name="Layer 1" xmlns="http://www.w3.org/2000/svg" viewBox="0 0 56 56"><defs><style>.cls-1{fill:#ffbdad;}.cls-2{fill:none;stroke:#afafaf;}.cls-3{fill:#ff8659;}.cls-4{fill:#ff6326;}.cls-5{fill:#fff16b;}.cls-6{fill:#ffb454;}.cls-7{fill:#ff7038;}.cls-8{fill:#ff405c;}.cls-9{fill:#00429b;}.cls-10{fill:#002659;}</style></defs><title>offers</title><g id="Rectangle_46" data-name="Rectangle 46"><rect class="cls-1" width="56" height="56" rx="10"/><rect class="cls-2" x="0.5" y="0.5" width="55" height="55" rx="9.5"/></g><g id="discount"><path id="Path_1426" data-name="Path 1426" class="cls-3" d="M90.62,102.05H74.92A3.9,3.9,0,0,1,71,98.19V80a1,1,0,0,1,.22-.63l6.42-8.42a1.08,1.08,0,0,1,.86-.43h8.57a1.07,1.07,0,0,1,.85.43l6.43,8.42a1,1,0,0,1,.21.63V98.19A3.9,3.9,0,0,1,90.62,102.05Z" transform="translate(-48.5 -56)"/><path id="Path_1427" data-name="Path 1427" class="cls-4" d="M94.34,79.32,87.91,70.9a1.07,1.07,0,0,0-.86-.43H82.77v31.58h7.85a3.9,3.9,0,0,0,3.93-3.86V80A1.08,1.08,0,0,0,94.34,79.32Z" transform="translate(-48.5 -56)"/><path id="Path_1428" data-name="Path 1428" class="cls-5" d="M70.6,97.13,59.68,86.21a3.86,3.86,0,0,1,0-5.46l12.9-12.9a1,1,0,0,1,.6-.3L83.6,66.06a1,1,0,0,1,.89.3l6,6a1,1,0,0,1,.3.9L89.26,83.63a1,1,0,0,1-.3.6l-12.9,12.9a3.87,3.87,0,0,1-5.46,0Z" transform="translate(-48.5 -56)"/><path id="Path_1429" data-name="Path 1429" class="cls-6" d="M89.23,83.66l1.52-10.4a1,1,0,0,0-.3-.89l-3-3L64.7,91.68l5.55,5.45a4,4,0,0,0,5.56,0L88.93,84.25A1,1,0,0,0,89.23,83.66Z" transform="translate(-48.5 -56)"/><path id="Path_1430" data-name="Path 1430" class="cls-7" d="M71.07,90.87a1.09,1.09,0,0,1-.25-1.1l5-15.15a1.08,1.08,0,0,1,2,.68L72.85,90.44a1.07,1.07,0,0,1-1.36.68,1.09,1.09,0,0,1-.42-.26Z" transform="translate(-48.5 -56)"/><path id="Path_1431" data-name="Path 1431" class="cls-8" d="M83.07,80.25a3.21,3.21,0,1,0,0,4.54h0A3.22,3.22,0,0,0,83.07,80.25Zm-1.52,3a1.06,1.06,0,0,1-1.51,0,1.07,1.07,0,0,1,0-1.52,1.06,1.06,0,0,1,1.51,0,1.07,1.07,0,0,1,0,1.52h0Z" transform="translate(-48.5 -56)"/><path id="Path_1432" data-name="Path 1432" class="cls-7" d="M70.18,80.25a3.21,3.21,0,1,0,0,4.54h0A3.2,3.2,0,0,0,70.18,80.25Zm-1.51,3a1.06,1.06,0,0,1-1.51,0,1.07,1.07,0,0,1,0-1.52,1.06,1.06,0,0,1,1.51,0,1.07,1.07,0,0,1,0,1.52Z" transform="translate(-48.5 -56)"/><path id="Path_1433" data-name="Path 1433" class="cls-8" d="M72.86,90.36l3.2-9.6-3.38,3.39-1.85,5.54a1.07,1.07,0,0,0,2,.68Z" transform="translate(-48.5 -56)"/><g id="Group_320" data-name="Group 320"><path id="Path_1434" data-name="Path 1434" class="cls-9" d="M90.45,66.36a1.07,1.07,0,0,0-1.52,0l-6.05,6.06,1.51,1.51,6.06-6.05A1.07,1.07,0,0,0,90.45,66.36Z" transform="translate(-48.5 -56)"/><path id="Path_1435" data-name="Path 1435" class="cls-10" d="M90.44,67.88a1.07,1.07,0,0,0,0-1.52l-6.81,6.82.76.75Z" transform="translate(-48.5 -56)"/></g><g id="Group_321" data-name="Group 321"><path id="Path_1436" data-name="Path 1436" class="cls-3" d="M85.29,75.76a1.07,1.07,0,0,1-.76-.31l-3-3A1.08,1.08,0,0,1,83,70.9l3,3a1.07,1.07,0,0,1-.76,1.83Z" transform="translate(-48.5 -56)"/><path id="Path_1437" data-name="Path 1437" class="cls-4" d="M86.05,73.93l-1.52-1.51L83,73.93l1.51,1.52a1.08,1.08,0,0,0,1.52,0A1.07,1.07,0,0,0,86.05,73.93Z" transform="translate(-48.5 -56)"/></g></g></svg>