<svg id="Layer_1" data-name="Layer 1" xmlns="http://www.w3.org/2000/svg" viewBox="0 0 56 56"><defs><style>.cls-1{fill:#b3d4ff;}.cls-2{fill:none;stroke:#afafaf;}.cls-3{fill:#194b98;}.cls-4{fill:#6090ea;}</style></defs><title>refferals</title><g id="Rectangle_47" data-name="Rectangle 47"><rect class="cls-1" width="56" height="56" rx="10"/><rect class="cls-2" x="0.5" y="0.5" width="55" height="55" rx="9.5"/></g><g id="Group_354" data-name="Group 354"><g id="Group_322" data-name="Group 322"><path id="Path_1438" data-name="Path 1438" class="cls-3" d="M88.23,97.75a1.49,1.49,0,0,1-1.46,1.82H58.53A1.48,1.48,0,0,1,57.37,99a1.52,1.52,0,0,1-.31-1.27A16,16,0,0,1,72.26,85.1H73a17,17,0,0,1,12.85,7.06Z" transform="translate(-48.5 -56)"/></g><path id="Path_1439" data-name="Path 1439" class="cls-3" d="M65.71,75.2A6.94,6.94,0,1,1,73,82.13h-.7A6.94,6.94,0,0,1,65.71,75.2Z" transform="translate(-48.5 -56)"/><g id="Group_323" data-name="Group 323"><path id="Path_1440" data-name="Path 1440" class="cls-4" d="M97.42,94.7a1.08,1.08,0,0,1-.22.88,1,1,0,0,1-.8.38H76.77a1,1,0,0,1-1-1.26,11.1,11.1,0,0,1,10.56-8.8h.54a11.83,11.83,0,0,1,8.92,4.91Z" transform="translate(-48.5 -56)"/></g><path id="Path_1441" data-name="Path 1441" class="cls-4" d="M81.76,79a4.83,4.83,0,1,1,5.07,4.82h-.49A4.84,4.84,0,0,1,81.76,79Z" transform="translate(-48.5 -56)"/></g></svg>