<svg id="Layer_1" data-name="Layer 1" xmlns="http://www.w3.org/2000/svg" viewBox="0 0 56 56"><defs><style>.cls-1{fill:#abf5d0;}.cls-2{fill:none;stroke:#afafaf;}.cls-3{fill:#1692ff;}.cls-4{fill:#007fdd;}.cls-5{fill:#57d9a3;}.cls-6{fill:#019065;}.cls-7{fill:#ffca2b;}.cls-8{fill:#f4af03;}</style></defs><title>rewards</title><g id="Rectangle_45" data-name="Rectangle 45"><rect class="cls-1" width="56" height="56" rx="10"/><rect class="cls-2" x="0.5" y="0.5" width="55" height="55" rx="9.5"/></g><g id="Group_353" data-name="Group 353"><path id="Path_1420" data-name="Path 1420" class="cls-3" d="M81.83,89.55a1.08,1.08,0,0,0-1.06,0,12.2,12.2,0,0,1-12.78,0,1,1,0,0,0-1.43.34,1.06,1.06,0,0,0-.15.55V100a1,1,0,0,0,.47.87,1.06,1.06,0,0,0,1,.08L74.38,98,80.9,101a1.06,1.06,0,0,0,1-.08,1,1,0,0,0,.47-.87V90.46A1,1,0,0,0,81.83,89.55Z" transform="translate(-47.5 -55)"/><path id="Path_1421" data-name="Path 1421" class="cls-4" d="M80.88,101a1,1,0,0,0,1.37-.52,1.07,1.07,0,0,0,.09-.43V90.46a1,1,0,0,0-1-1,1,1,0,0,0-.54.16,12,12,0,0,1-6.36,1.8V98Z" transform="translate(-47.5 -55)"/><path id="Path_1422" data-name="Path 1422" class="cls-5" d="M74.38,65.05a14.2,14.2,0,1,0,14.2,14.21h0A14.22,14.22,0,0,0,74.38,65.05Z" transform="translate(-47.5 -55)"/><path id="Path_1423" data-name="Path 1423" class="cls-6" d="M88.58,79.2A14.17,14.17,0,0,0,74.42,65.05V93.36A14.17,14.17,0,0,0,88.58,79.2Z" transform="translate(-47.5 -55)"/><path id="Path_1424" data-name="Path 1424" class="cls-7" d="M80.56,79.2l2-3.65a1,1,0,0,0-.43-1.4.89.89,0,0,0-.45-.12l-4.16-.15-2.2-3.51A1,1,0,0,0,73.83,70a1.12,1.12,0,0,0-.32.33l-2.2,3.51L67.15,74a1,1,0,0,0-1,1.06,1.21,1.21,0,0,0,.12.46l2,3.65-2,3.66a1,1,0,0,0,.43,1.4,1.16,1.16,0,0,0,.45.12l4.16.14L73.5,88a1,1,0,0,0,1.44.33.92.92,0,0,0,.32-.33l2.2-3.51,4.16-.14a1,1,0,0,0,1-1.07.89.89,0,0,0-.12-.45Z" transform="translate(-47.5 -55)"/><path id="Path_1425" data-name="Path 1425" class="cls-8" d="M75.28,88l2.19-3.52,4.14-.14a1,1,0,0,0,1-1.07,1.16,1.16,0,0,0-.12-.45L80.54,79.2l1.95-3.65a1,1,0,0,0-.43-1.4.89.89,0,0,0-.45-.12l-4.14-.15-2.19-3.51a1,1,0,0,0-.88-.49V88.52A1,1,0,0,0,75.28,88Z" transform="translate(-47.5 -55)"/></g></svg>