<svg id="Layer_1" data-name="Layer 1" xmlns="http://www.w3.org/2000/svg" viewBox="0 0 56 56"><defs><style>.cls-1{fill:#c0b6f2;}.cls-2{fill:none;stroke:#afafaf;}.cls-3{fill:#008cc3;}.cls-4{fill:#756e96;}.cls-5{fill:#8e86b5;}.cls-6{fill:#00baff;}.cls-7{fill:#00131e;}.cls-8{fill:#00263f;}.cls-9{fill:#005c83;}</style></defs><title>shopping</title><g id="Rectangle_49" data-name="Rectangle 49"><rect class="cls-1" width="56" height="56" rx="10"/><rect class="cls-2" x="0.5" y="0.5" width="55" height="55" rx="9.5"/></g><path id="Path_1502" data-name="Path 1502" class="cls-3" d="M65.75,92.07H91.12L93.5,74.56H63.38Z" transform="translate(-48.5 -56)"/><path id="Path_1503" data-name="Path 1503" class="cls-4" d="M93.5,74.56H76.06V92.07H91.12Z" transform="translate(-48.5 -56)"/><path id="Path_1504" data-name="Path 1504" class="cls-5" d="M63.38,74.56l2.37,17.51H78.44V74.56Z" transform="translate(-48.5 -56)"/><path id="Path_1505" data-name="Path 1505" class="cls-6" d="M66.77,77.17l1.57,12.27H71L69.83,77.17Z" transform="translate(-48.5 -56)"/><path id="Path_1506" data-name="Path 1506" class="cls-3" d="M87,77.17,85.89,89.44h2.65l1.57-12.27Z" transform="translate(-48.5 -56)"/><path id="Path_1507" data-name="Path 1507" class="cls-6" d="M73.37,77.17l.75,12.27h2.39l-.37-12.27Z" transform="translate(-48.5 -56)"/><path id="Path_1508" data-name="Path 1508" class="cls-3" d="M80.73,77.17l-.37,12.27h2.4l.74-12.27Z" transform="translate(-48.5 -56)"/><circle id="Ellipse_91" data-name="Ellipse 91" class="cls-7" cx="38.16" cy="42.41" r="2.58"/><circle id="Ellipse_92" data-name="Ellipse 92" class="cls-8" cx="21.36" cy="42.41" r="2.58"/><path id="Path_1509" data-name="Path 1509" class="cls-9" d="M90.79,96.88H65.46L61.64,72.46H58.45v-2.1h5l3.82,24.42H90.79Z" transform="translate(-48.5 -56)"/><rect id="Rectangle_50" data-name="Rectangle 50" class="cls-8" x="29.94" y="38.78" width="12.35" height="2.1"/></svg>