<svg id="Layer_1" data-name="Layer 1" xmlns="http://www.w3.org/2000/svg" xmlns:xlink="http://www.w3.org/1999/xlink" viewBox="0 0 83.53 83.53"><defs><style>.cls-1{fill:#1b295e;}.cls-2{fill:none;stroke:#fff;stroke-linecap:round;stroke-linejoin:round;stroke-width:5.14px;}.cls-3{fill:url(#linear-gradient);}</style><linearGradient id="linear-gradient" x1="218.09" y1="-380.1" x2="218.32" y2="-380.33" gradientTransform="translate(-39201 68341.08) scale(180 179.51)" gradientUnits="userSpaceOnUse"><stop offset="0" stop-color="#00aee9"/><stop offset="1" stop-color="#69fabd"/></linearGradient></defs><title>one</title><circle class="cls-1" cx="76" cy="88.23" r="41.76" transform="translate(-69.4 76.45) rotate(-66.59)"/><path class="cls-2" d="M90.66,101.83" transform="translate(-34.23 -46.47)"/><path class="cls-2" d="M86.92,77.74" transform="translate(-34.23 -46.47)"/><path class="cls-2" d="M74.4,110.22" transform="translate(-34.23 -46.47)"/><path class="cls-2" d="M92.2,101.83" transform="translate(-34.23 -46.47)"/><path class="cls-2" d="M86.92,77.74" transform="translate(-34.23 -46.47)"/><path class="cls-2" d="M65.1,77.74" transform="translate(-34.23 -46.47)"/><path class="cls-2" d="M59.82,101.83" transform="translate(-34.23 -46.47)"/><path class="cls-2" d="M74.36,110.22" transform="translate(-34.23 -46.47)"/><path class="cls-2" d="M65.1,77.74" transform="translate(-34.23 -46.47)"/><path class="cls-2" d="M82.82,79.57" transform="translate(-34.23 -46.47)"/><path class="cls-2" d="M73.08,110.22" transform="translate(-34.23 -46.47)"/><path class="cls-2" d="M87.55,101.14" transform="translate(-34.23 -46.47)"/><path class="cls-2" d="M82.82,79.57" transform="translate(-34.23 -46.47)"/><path class="cls-2" d="M63.3,79.57" transform="translate(-34.23 -46.47)"/><path class="cls-2" d="M73,110.22" transform="translate(-34.23 -46.47)"/><path class="cls-2" d="M63.3,79.57" transform="translate(-34.23 -46.47)"/><path id="Shape" class="cls-3" d="M89.62,64.34A10.34,10.34,0,0,0,79.28,74.65V86.07c-1.06.07-2.15.12-3.28.12s-2.21,0-3.28.11V74.65a10.34,10.34,0,0,0-20.68,0V102a10.34,10.34,0,0,0,20.68,0V90.53c1.06-.07,2.15-.12,3.28-.12s2.21,0,3.28-.11V102A10.34,10.34,0,0,0,100,102V74.65A10.34,10.34,0,0,0,89.62,64.34ZM62.38,68.56a6.1,6.1,0,0,1,6.1,6.09v12.1a34.39,34.39,0,0,0-8.78,2.48,15.84,15.84,0,0,0-3.41,2V74.65A6.11,6.11,0,0,1,62.38,68.56ZM68.48,102a6.1,6.1,0,1,1-12.2,0h0V99.21c0-2.42,1.91-4.71,5.13-6.13A29.58,29.58,0,0,1,68.48,91V102ZM89.62,108a6.1,6.1,0,0,1-6.1-6.09V89.85a34.39,34.39,0,0,0,8.78-2.48,15.84,15.84,0,0,0,3.41-2V102A6.11,6.11,0,0,1,89.62,108Zm1-24.53a30,30,0,0,1-7.07,2.07V74.65a6.1,6.1,0,1,1,12.2,0h0v2.74C95.72,79.8,93.81,82.09,90.59,83.51Z" transform="translate(-34.23 -46.47)"/></svg>